<svg width="467" height="188" viewBox="0 0 467 188" fill="none" xmlns="http://www.w3.org/2000/svg">
<path opacity="0.5" d="M430.5 116C430.5 125.75 425.315 135.096 415.813 143.654C406.311 152.212 392.533 159.942 375.465 166.444C341.333 179.447 294.146 187.5 242 187.5C189.854 187.5 142.667 179.447 108.535 166.444C91.467 159.942 77.6892 152.212 68.1872 143.654C58.685 135.096 53.5 125.75 53.5 116C53.5 106.25 58.685 96.9042 68.1872 88.3459C77.6892 79.7877 91.467 72.0576 108.535 65.5556C142.667 52.5528 189.854 44.5 242 44.5C294.146 44.5 341.333 52.5528 375.465 65.5556C392.533 72.0576 406.311 79.7877 415.813 88.3459C425.315 96.9042 430.5 106.25 430.5 116Z" stroke="#483526"/>
<path opacity="0.3" d="M270.5 51.5C270.5 58.419 266.812 65.0683 260.018 71.1742C253.223 77.28 243.362 82.8014 231.135 87.4486C206.685 96.7417 172.873 102.5 135.5 102.5C98.1274 102.5 64.3154 96.7417 39.8647 87.4486C27.6376 82.8014 17.7772 77.28 10.9825 71.1742C4.18752 65.0683 0.5 58.419 0.5 51.5C0.5 44.581 4.18752 37.9317 10.9825 31.8258C17.7772 25.72 27.6376 20.1986 39.8647 15.5514C64.3154 6.25831 98.1274 0.5 135.5 0.5C172.873 0.5 206.685 6.25831 231.135 15.5514C243.362 20.1986 253.223 25.72 260.018 31.8258C266.812 37.9317 270.5 44.581 270.5 51.5Z" stroke="#483526"/>
<path opacity="0.7" d="M270.25 109H272.075L265.625 91.425H263.775L257.325 109H259.15L261.15 103.4H268.225L270.25 109ZM264.725 93.25C264.725 93.25 265.1 94.7 265.4 95.525L267.7 101.9H261.65L264 95.525C264.3 94.7 264.675 93.25 264.675 93.25H264.725ZM273.705 109H279.905C282.855 109 285.18 107.2 285.18 104.075C285.18 101.95 284.03 100.225 282.23 99.725V99.675C283.58 99 284.455 97.675 284.455 95.85C284.455 93.1 282.48 91.425 279.705 91.425H273.705V109ZM275.43 99.05V92.975H279.68C281.555 92.975 282.68 94.175 282.68 95.975C282.68 97.8 281.48 99.05 279.705 99.05H275.43ZM275.43 107.45V100.55H279.905C281.955 100.55 283.38 101.925 283.38 104.025C283.38 106.125 282.055 107.45 279.93 107.45H275.43ZM286.93 100.1C286.93 105.225 290.63 109.3 295.83 109.3C300.155 109.3 302.555 106.575 302.555 106.575L301.555 105.35C301.555 105.35 299.405 107.7 295.855 107.7C291.68 107.7 288.73 104.275 288.73 100.075C288.73 95.925 291.68 92.725 295.805 92.725C299.105 92.725 301.155 94.675 301.155 94.675L302.08 93.4C302.08 93.4 299.955 91.125 295.755 91.125C290.73 91.125 286.93 95 286.93 100.1ZM321.207 109H323.032L316.582 91.425H314.732L308.282 109H310.107L312.107 103.4H319.182L321.207 109ZM315.682 93.25C315.682 93.25 316.057 94.7 316.357 95.525L318.657 101.9H312.607L314.957 95.525C315.257 94.7 315.632 93.25 315.632 93.25H315.682ZM323.362 107.05C323.362 107.05 325.337 109.3 328.937 109.3C332.237 109.3 334.262 107.175 334.262 104.55C334.262 98.775 325.487 99.975 325.487 95.8C325.487 94.25 326.937 92.775 329.187 92.775C331.487 92.775 333.037 94.275 333.037 94.275L333.887 92.825C333.887 92.825 332.237 91.125 329.187 91.125C325.937 91.125 323.712 93.325 323.712 95.85C323.712 101.3 332.487 100.175 332.487 104.6C332.487 106.5 330.912 107.65 328.987 107.65C326.212 107.65 324.387 105.725 324.387 105.725L323.362 107.05ZM342.328 109H352.678V107.45H344.053V100.925H350.728V99.375H344.053V92.975H352.228V91.425H342.328V109ZM366.061 109H367.886L361.436 91.425H359.586L353.136 109H354.961L356.961 103.4H364.036L366.061 109ZM360.536 93.25C360.536 93.25 360.911 94.7 361.211 95.525L363.511 101.9H357.461L359.811 95.525C360.111 94.7 360.486 93.25 360.486 93.25H360.536ZM368.216 107.05C368.216 107.05 370.191 109.3 373.791 109.3C377.091 109.3 379.116 107.175 379.116 104.55C379.116 98.775 370.341 99.975 370.341 95.8C370.341 94.25 371.791 92.775 374.041 92.775C376.341 92.775 377.891 94.275 377.891 94.275L378.741 92.825C378.741 92.825 377.091 91.125 374.041 91.125C370.791 91.125 368.566 93.325 368.566 95.85C368.566 101.3 377.341 100.175 377.341 104.6C377.341 106.5 375.766 107.65 373.841 107.65C371.066 107.65 369.241 105.725 369.241 105.725L368.216 107.05ZM385.468 109H387.218V101.45L393.118 91.425H391.168L387.443 97.8C386.893 98.725 386.368 99.9 386.368 99.9H386.318C386.318 99.9 385.768 98.7 385.243 97.8L381.518 91.425H379.543L385.468 101.45V109ZM410.987 109H412.812L406.362 91.425H404.512L398.062 109H399.887L401.887 103.4H408.962L410.987 109ZM405.462 93.25C405.462 93.25 405.837 94.7 406.137 95.525L408.437 101.9H402.387L404.737 95.525C405.037 94.7 405.412 93.25 405.412 93.25H405.462ZM413.143 107.05C413.143 107.05 415.118 109.3 418.718 109.3C422.018 109.3 424.043 107.175 424.043 104.55C424.043 98.775 415.268 99.975 415.268 95.8C415.268 94.25 416.718 92.775 418.968 92.775C421.268 92.775 422.818 94.275 422.818 94.275L423.668 92.825C423.668 92.825 422.018 91.125 418.968 91.125C415.718 91.125 413.493 93.325 413.493 95.85C413.493 101.3 422.268 100.175 422.268 104.6C422.268 106.5 420.693 107.65 418.768 107.65C415.993 107.65 414.168 105.725 414.168 105.725L413.143 107.05ZM430.959 109H440.484V107.45H436.609V91.425H435.009L431.034 95.375L432.134 96.5L434.009 94.625C434.709 93.95 434.884 93.575 434.884 93.575H434.934C434.934 93.575 434.909 94.05 434.909 94.55V107.45H430.959V109ZM441.554 109H452.529V107.45H443.354C443.379 102.775 452.254 101.95 452.254 96.05C452.254 93.3 450.254 91.125 446.904 91.125C443.179 91.125 441.579 94.3 441.579 94.3L442.879 95.175C442.879 95.175 444.229 92.775 446.804 92.775C449.004 92.775 450.454 94.225 450.454 96.15C450.454 100.9 441.454 101.7 441.454 107.875C441.454 108.225 441.479 108.6 441.554 109ZM453.965 106.9C453.965 106.9 456.09 109.3 459.54 109.3C462.865 109.3 465.315 106.8 465.315 103.8C465.315 100 462.04 98.75 459.815 98.625L465.065 92.575V91.425H454.79V92.975H461.39C462.315 92.975 462.815 92.9 462.815 92.9V92.95C462.815 92.95 462.365 93.375 461.89 93.925L457.49 99.075L457.915 100.1H459.115C461.415 100.1 463.54 101.375 463.54 103.85C463.54 106.1 461.615 107.65 459.515 107.65C456.815 107.65 455.015 105.575 455.015 105.575L453.965 106.9ZM283.138 129H284.233L280.363 118.455H279.253L275.383 129H276.478L277.678 125.64H281.923L283.138 129ZM279.823 119.55C279.823 119.55 280.048 120.42 280.228 120.915L281.608 124.74H277.978L279.388 120.915C279.568 120.42 279.793 119.55 279.793 119.55H279.823ZM285.211 129H288.931C290.701 129 292.096 127.92 292.096 126.045C292.096 124.77 291.406 123.735 290.326 123.435V123.405C291.136 123 291.661 122.205 291.661 121.11C291.661 119.46 290.476 118.455 288.811 118.455H285.211V129ZM286.246 123.03V119.385H288.796C289.921 119.385 290.596 120.105 290.596 121.185C290.596 122.28 289.876 123.03 288.811 123.03H286.246ZM286.246 128.07V123.93H288.931C290.161 123.93 291.016 124.755 291.016 126.015C291.016 127.275 290.221 128.07 288.946 128.07H286.246ZM293.145 123.66C293.145 126.735 295.365 129.18 298.485 129.18C301.08 129.18 302.52 127.545 302.52 127.545L301.92 126.81C301.92 126.81 300.63 128.22 298.5 128.22C295.995 128.22 294.225 126.165 294.225 123.645C294.225 121.155 295.995 119.235 298.47 119.235C300.45 119.235 301.68 120.405 301.68 120.405L302.235 119.64C302.235 119.64 300.96 118.275 298.44 118.275C295.425 118.275 293.145 120.6 293.145 123.66ZM306.587 123.66C306.587 126.735 308.807 129.18 311.927 129.18C314.522 129.18 315.962 127.545 315.962 127.545L315.362 126.81C315.362 126.81 314.072 128.22 311.942 128.22C309.437 128.22 307.667 126.165 307.667 123.645C307.667 121.155 309.437 119.235 311.912 119.235C313.892 119.235 315.122 120.405 315.122 120.405L315.677 119.64C315.677 119.64 314.402 118.275 311.882 118.275C308.867 118.275 306.587 120.6 306.587 123.66ZM316.647 123.66C316.647 126.75 319.032 129.18 322.017 129.18C325.002 129.18 327.387 126.75 327.387 123.66C327.387 120.63 325.002 118.275 322.017 118.275C319.032 118.275 316.647 120.63 316.647 123.66ZM317.727 123.66C317.727 121.14 319.632 119.235 322.017 119.235C324.387 119.235 326.307 121.14 326.307 123.66C326.307 126.24 324.387 128.22 322.017 128.22C319.632 128.22 317.727 126.24 317.727 123.66ZM328.65 129H329.685L330.27 121.62C330.315 121.05 330.3 120.12 330.3 120.12H330.33C330.33 120.12 330.66 121.095 330.9 121.62L333.375 127.035H334.35L336.825 121.62C337.065 121.08 337.38 120.15 337.38 120.15H337.41C337.41 120.15 337.395 121.05 337.44 121.62L338.025 129H339.06L338.22 118.455H337.155L334.395 124.65C334.155 125.19 333.87 125.94 333.87 125.94H333.84C333.84 125.94 333.57 125.19 333.33 124.65L330.57 118.455H329.49L328.65 129ZM340.703 129H341.738L342.323 121.62C342.368 121.05 342.353 120.12 342.353 120.12H342.383C342.383 120.12 342.713 121.095 342.953 121.62L345.428 127.035H346.403L348.878 121.62C349.118 121.08 349.433 120.15 349.433 120.15H349.463C349.463 120.15 349.448 121.05 349.493 121.62L350.078 129H351.113L350.273 118.455H349.208L346.448 124.65C346.208 125.19 345.923 125.94 345.923 125.94H345.893C345.893 125.94 345.623 125.19 345.383 124.65L342.623 118.455H341.543L340.703 129ZM352.951 125.325C352.951 127.665 354.601 129.18 357.001 129.18C359.386 129.18 361.021 127.665 361.021 125.325V118.455H359.986V125.28C359.986 127.125 358.801 128.22 356.986 128.22C355.171 128.22 354.001 127.125 354.001 125.31V118.455H352.951V125.325ZM363.19 129H364.225V121.41C364.225 120.855 364.135 119.985 364.135 119.985H364.165C364.165 119.985 364.675 120.885 365.035 121.41L370.42 129H371.425V118.455H370.39V126.045C370.39 126.6 370.48 127.47 370.48 127.47H370.45C370.45 127.47 369.94 126.57 369.58 126.045L364.195 118.455H363.19V129ZM373.734 129H374.769V118.455H373.734V129ZM379.456 129H380.491V119.385H384.271V118.455H375.661V119.385H379.456V129ZM387.609 129H388.659V124.47L392.199 118.455H391.029L388.794 122.28C388.464 122.835 388.149 123.54 388.149 123.54H388.119C388.119 123.54 387.789 122.82 387.474 122.28L385.239 118.455H384.054L387.609 124.47V129ZM333.241 149H338.956V148.07H336.631V138.455H335.671L333.286 140.825L333.946 141.5L335.071 140.375C335.491 139.97 335.596 139.745 335.596 139.745H335.626C335.626 139.745 335.611 140.03 335.611 140.33V148.07H333.241V149ZM339.599 149H346.184V148.07H340.679C340.694 145.265 346.019 144.77 346.019 141.23C346.019 139.58 344.819 138.275 342.809 138.275C340.574 138.275 339.614 140.18 339.614 140.18L340.394 140.705C340.394 140.705 341.204 139.265 342.749 139.265C344.069 139.265 344.939 140.135 344.939 141.29C344.939 144.14 339.539 144.62 339.539 148.325C339.539 148.535 339.554 148.76 339.599 149ZM347.045 147.74C347.045 147.74 348.32 149.18 350.39 149.18C352.385 149.18 353.855 147.68 353.855 145.88C353.855 143.6 351.89 142.85 350.555 142.775L353.705 139.145V138.455H347.54V139.385H351.5C352.055 139.385 352.355 139.34 352.355 139.34V139.37C352.355 139.37 352.085 139.625 351.8 139.955L349.16 143.045L349.415 143.66H350.135C351.515 143.66 352.79 144.425 352.79 145.91C352.79 147.26 351.635 148.19 350.375 148.19C348.755 148.19 347.675 146.945 347.675 146.945L347.045 147.74ZM354.553 146.075H359.833V149H360.868V146.075H362.368V145.16H360.868V138.455H359.743L354.553 145.4V146.075ZM355.813 145.16V145.13L359.323 140.555C359.608 140.18 359.848 139.76 359.848 139.76H359.878C359.878 139.76 359.833 140.3 359.833 140.75V145.16H355.813ZM363.053 147.68C363.053 147.68 364.043 149.18 366.143 149.18C368.198 149.18 369.803 147.665 369.803 145.715C369.803 143.81 368.288 142.28 366.173 142.28C365.228 142.28 364.568 142.685 364.568 142.685H364.538C364.538 142.685 364.598 142.46 364.643 142.085L364.943 139.385H369.143V138.455H364.043L363.473 143.57L364.133 143.81C364.133 143.81 364.928 143.24 366.053 143.24C367.553 143.24 368.723 144.275 368.723 145.715C368.723 147.155 367.553 148.19 366.098 148.19C364.493 148.19 363.713 146.96 363.713 146.96L363.053 147.68ZM374.642 149.18C376.487 149.18 377.957 147.845 377.957 145.655C377.957 143.66 376.592 142.25 374.672 142.25C373.577 142.25 372.512 142.73 372.002 143.48H371.972C372.152 141.425 373.277 139.25 375.482 139.25C376.352 139.25 377.012 139.625 377.012 139.625L377.402 138.71C377.402 138.71 376.637 138.275 375.467 138.275C372.212 138.275 370.832 141.59 370.832 144.23C370.832 147.08 372.347 149.18 374.642 149.18ZM374.627 148.205C373.052 148.205 371.957 146.39 371.957 144.98C371.957 144.125 373.097 143.18 374.507 143.18C375.947 143.18 376.892 144.17 376.892 145.67C376.892 147.125 376.052 148.205 374.627 148.205ZM379.483 149H380.563L385.453 139.175V138.455H378.598V139.385H383.533C384.058 139.385 384.328 139.355 384.328 139.355V139.385C384.328 139.385 384.028 139.79 383.743 140.36L379.483 149ZM386.031 145.97C386.031 147.965 387.696 149.18 389.601 149.18C391.641 149.18 393.096 147.785 393.096 146.135C393.096 145.04 392.436 144.365 391.566 143.87C391.686 143.75 392.856 142.52 392.856 141.02C392.856 139.37 391.596 138.275 389.631 138.275C387.501 138.275 386.451 139.58 386.451 140.945C386.451 141.95 387.006 142.595 387.756 143.09C387.516 143.24 386.031 144.275 386.031 145.97ZM392.031 146.12C392.031 147.365 390.846 148.22 389.601 148.22C388.326 148.22 387.096 147.35 387.096 145.925C387.096 144.575 388.281 143.735 388.611 143.54C390.171 144.29 392.031 144.755 392.031 146.12ZM387.501 140.96C387.501 140.015 388.281 139.235 389.631 139.235C390.906 139.235 391.806 139.94 391.806 141.065C391.806 142.325 390.906 143.27 390.711 143.45C389.196 142.79 387.501 142.325 387.501 140.96ZM396.645 149.18C399.915 149.18 401.28 145.865 401.28 143.225C401.28 140.375 399.765 138.275 397.47 138.275C395.625 138.275 394.17 139.61 394.17 141.8C394.17 143.795 395.52 145.205 397.44 145.205C398.535 145.205 399.6 144.725 400.125 143.975H400.155C399.96 146.03 398.85 148.205 396.63 148.205C395.76 148.205 395.1 147.83 395.1 147.83L394.71 148.745C394.71 148.745 395.49 149.18 396.645 149.18ZM397.605 144.275C396.165 144.275 395.22 143.285 395.22 141.785C395.22 140.33 396.06 139.25 397.485 139.25C399.06 139.25 400.155 141.065 400.155 142.475C400.155 143.33 399.03 144.275 397.605 144.275ZM406.196 149.18C408.941 149.18 409.826 146.78 409.826 143.72C409.826 140.69 408.941 138.275 406.196 138.275C403.451 138.275 402.551 140.69 402.551 143.72C402.551 146.78 403.451 149.18 406.196 149.18ZM406.196 148.205C404.186 148.205 403.631 146.24 403.631 143.72C403.631 141.215 404.186 139.25 406.196 139.25C408.191 139.25 408.746 141.215 408.746 143.72C408.746 146.24 408.191 148.205 406.196 148.205Z" fill="#483526"/>
</svg>
