<svg width="148" height="82" viewBox="0 0 148 82" fill="none" xmlns="http://www.w3.org/2000/svg">
<path opacity="0.7" d="M56.3539 21.5156C59.9866 21.0696 60.7678 17.7496 60.2706 13.7001C59.7782 9.69017 58.2146 6.63798 54.5819 7.08402C50.9492 7.53006 50.1505 10.8723 50.6429 14.8822C51.1401 18.9318 52.7212 21.9617 56.3539 21.5156ZM56.1955 20.2253C53.5354 20.5519 52.4816 18.0417 52.0722 14.7067C51.6651 11.3916 52.0803 8.70094 54.7403 8.37433C57.3805 8.05016 58.4343 10.5604 58.8413 13.8755C59.2508 17.2105 58.8356 19.9012 56.1955 20.2253ZM64.3512 11.4863C65.8996 11.2961 66.9991 9.91182 66.8114 8.3833C66.6262 6.87463 65.222 5.77758 63.6736 5.96769C62.1253 6.15781 61.0481 7.55954 61.2333 9.06821C61.421 10.5967 62.8028 11.6764 64.3512 11.4863ZM62.7563 20.4877L64.1856 20.3122L73.0924 5.05302L71.6829 5.22608L62.7563 20.4877ZM64.2147 10.3746C63.3016 10.4867 62.5166 9.83754 62.4045 8.9244C62.2948 8.03111 62.897 7.19147 63.8101 7.07935C64.7233 6.96723 65.5305 7.63382 65.6402 8.52711C65.7523 9.44025 65.1279 10.2625 64.2147 10.3746ZM69.0397 17.1773C69.225 18.686 70.6068 19.7656 72.1552 19.5755C73.7036 19.3854 74.8031 18.0011 74.6178 16.4924C74.4302 14.9639 73.026 13.8668 71.4776 14.0569C69.9293 14.247 68.8521 15.6488 69.0397 17.1773ZM70.2283 17.0112C70.1187 16.1179 70.701 15.2807 71.6141 15.1686C72.5273 15.0565 73.3345 15.723 73.4442 16.6163C73.5563 17.5295 72.9319 18.3517 72.0187 18.4638C71.1056 18.5759 70.3405 17.9243 70.2283 17.0112ZM9.2605 52.2439L10.6104 52.0782L10.0936 47.8698C10.0156 47.2346 10.0122 46.5499 10.1327 45.8903C10.389 44.3677 11.3046 43.1268 12.7141 42.9538C12.9721 42.9221 13.2152 42.9326 13.2152 42.9326L13.0519 41.6025C13.0519 41.6025 12.7865 41.5747 12.5086 41.6088C10.9404 41.8014 9.97011 43.0892 9.67893 44.6564L9.63923 44.6612C9.63923 44.6612 9.63506 44.2991 9.58144 43.8623L9.36451 42.0956L8.0345 42.2589L9.2605 52.2439ZM13.8738 46.5593C14.2443 49.5767 16.8844 51.5496 19.8025 51.1913C22.7206 50.833 24.805 48.28 24.4345 45.2626C24.0714 42.3048 21.4361 40.3716 18.518 40.7299C15.5999 41.0882 13.5107 43.6015 13.8738 46.5593ZM15.2634 46.3887C14.9855 44.1257 16.5252 42.2239 18.6691 41.9606C20.813 41.6974 22.7671 43.1702 23.045 45.4333C23.3301 47.7558 21.7977 49.7172 19.6538 49.9804C17.5099 50.2437 15.5486 48.7113 15.2634 46.3887ZM25.5334 53.8729C25.5334 53.8729 26.3212 54.3807 27.3534 54.2539C28.6835 54.0906 29.6158 53.15 29.9759 51.8162L33.417 39.1423L31.948 39.3227L29.9642 46.9614C29.8266 47.4821 29.7559 48.0549 29.7559 48.0549L29.7162 48.0598C29.7162 48.0598 29.4891 47.5235 29.2297 47.0516L25.3972 40.127L23.9084 40.3098L29.2934 49.7036L28.851 51.1886C28.5661 52.1505 28.0385 52.9407 27.1651 53.0479C26.5298 53.1259 25.918 52.7376 25.918 52.7376L25.5334 53.8729ZM34.3493 46.4028C34.593 48.3879 36.4395 49.1486 38.1069 48.9438C40.6082 48.6367 41.1762 46.3706 41.1762 46.3706L41.2159 46.3657C41.2159 46.3657 41.2177 46.7081 41.2786 47.2043L41.4126 48.2961L42.703 48.1377L41.9181 41.7457C41.611 39.2445 40.1177 38.0778 37.7157 38.3727C35.4726 38.6481 34.3013 39.9405 34.3013 39.9405L35.0633 40.8948C35.0633 40.8948 36.1175 39.7981 37.7651 39.5958C39.1944 39.4203 40.3269 39.9462 40.5634 41.8717L40.5951 42.1298L40.0392 42.1981C38.3122 42.4101 33.9349 43.0282 34.3493 46.4028ZM35.7291 46.1528C35.4585 43.9494 38.5877 43.5047 40.1559 43.3121L40.7316 43.2415L40.7852 43.6782C40.9972 45.4052 40.0896 47.5317 38.1839 47.7657C36.6951 47.9485 35.8436 47.0858 35.7291 46.1528ZM44.4284 45.528C44.6965 47.7116 46.1972 47.7893 47.0309 47.6869C47.289 47.6552 47.5223 47.5863 47.5223 47.5863L47.3736 46.3754C47.3736 46.3754 47.2172 46.4147 47.0386 46.4366C46.5225 46.5 45.9026 46.3746 45.7417 45.0645L44.3548 33.7693L43.005 33.935L44.4284 45.528ZM48.6608 43.7187C49.0703 47.0536 51.4392 47.1456 52.5906 47.0043C52.9479 46.9604 53.1614 46.8939 53.1614 46.8939L53.0127 45.683C53.0127 45.683 52.8389 45.7446 52.561 45.7787C51.8066 45.8714 50.2813 45.7564 49.9936 43.414L49.3843 38.4513L51.8855 38.1441L51.7466 37.0126L49.2454 37.3197L48.892 34.4414L47.5619 34.6047L47.9154 37.4831L46.5853 37.6464L46.7243 38.7779L48.0344 38.617L48.6608 43.7187ZM52.8405 34.4402L54.2499 34.2671L54.0427 32.5798L52.6333 32.7528L52.8405 34.4402ZM54.3865 46.7032L55.7363 46.5374L54.5103 36.5524L53.1605 36.7181L54.3865 46.7032ZM56.7011 41.3612C57.0789 44.4381 59.5853 46.3066 62.563 45.941C64.8061 45.6656 66.0846 44.0981 66.0846 44.0981L65.3425 43.1414C65.3425 43.1414 64.2803 44.501 62.454 44.7252C60.3895 44.9787 58.472 43.8036 58.098 41.2502L65.7605 40.3093C65.7605 40.3093 65.7441 39.8479 65.7149 39.6097C65.4102 37.1283 63.74 35.1773 60.9807 35.5161C58.281 35.8476 56.299 38.0858 56.7011 41.3612ZM58.0211 40.1312C58.0925 38.0873 59.4124 36.8572 61.0799 36.6525C62.5687 36.4697 63.9586 37.2864 64.294 39.361L58.0211 40.1312ZM67.0249 43.9222C67.0249 43.9222 68.4733 45.2153 70.8951 44.918C72.9 44.6718 74.1656 43.3275 73.9658 41.6997C73.5612 38.4045 68.2547 39.6605 67.9841 37.4571C67.8476 36.3454 68.7667 35.7893 69.7791 35.665C71.4267 35.4627 72.3924 36.271 72.3924 36.271L72.8811 35.1632C72.8811 35.1632 71.7743 34.1908 69.6701 34.4492C67.8637 34.671 66.3752 35.8411 66.5946 37.6277C66.9943 40.8833 72.3081 39.6868 72.5762 41.8704C72.7054 42.9225 71.8382 43.573 70.7662 43.7046C68.9003 43.9337 67.6399 42.8593 67.6399 42.8593L67.0249 43.9222ZM75.8357 44.0695L77.4039 43.877L77.2089 42.2889L75.6407 42.4814L75.8357 44.0695Z" fill="#483526"/>
<path opacity="0.7" d="M89.7493 37.3078C89.5507 37.4997 89.5452 37.8162 89.737 38.0148L92.8631 41.2517C93.055 41.4503 93.3715 41.4559 93.5701 41.264C93.7688 41.0722 93.7743 40.7556 93.5824 40.557L90.8037 37.6798L93.6809 34.901C93.8795 34.7092 93.885 34.3927 93.6932 34.194C93.5014 33.9954 93.1848 33.9899 92.9862 34.1817L89.7493 37.3078ZM147.097 81.6675C147.593 81.6057 147.593 81.6052 147.593 81.6047C147.593 81.6045 147.593 81.6039 147.593 81.6035C147.592 81.6027 147.592 81.6017 147.592 81.6007C147.592 81.5986 147.592 81.596 147.591 81.593C147.59 81.5869 147.589 81.5791 147.588 81.5694C147.585 81.5502 147.58 81.5238 147.574 81.4905C147.562 81.424 147.542 81.3301 147.512 81.2104C147.452 80.9711 147.35 80.6293 147.181 80.1998C146.842 79.3403 146.232 78.1322 145.147 76.6921C142.976 73.8113 138.911 70.0155 131.32 66.2203L130.873 67.1147C138.352 70.8544 142.287 74.5586 144.349 77.294C145.38 78.6621 145.945 79.7912 146.251 80.5669C146.404 80.9549 146.493 81.2553 146.542 81.4536C146.567 81.5528 146.582 81.6265 146.591 81.6731C146.595 81.6963 146.598 81.7128 146.599 81.7223C146.6 81.727 146.601 81.7299 146.601 81.7311C146.601 81.7317 146.601 81.7319 146.601 81.7316C146.601 81.7314 146.601 81.7311 146.601 81.7308C146.601 81.7306 146.601 81.7302 146.601 81.7301C146.601 81.7297 146.601 81.7293 147.097 81.6675ZM131.32 66.2203C123.716 62.4182 116.778 61.4041 112.145 60.3543C110.983 60.0911 109.976 59.8284 109.136 59.5233C108.293 59.2175 107.647 58.8792 107.186 58.48C106.735 58.0896 106.457 57.6377 106.346 57.0743C106.232 56.4982 106.286 55.766 106.575 54.8128L105.618 54.5222C105.3 55.569 105.208 56.4764 105.365 57.2677C105.523 58.0717 105.93 58.715 106.531 59.236C107.123 59.7481 107.897 60.1373 108.795 60.4633C109.695 60.7902 110.75 61.0638 111.924 61.3296C116.631 62.3961 123.407 63.3818 130.873 67.1147L131.32 66.2203ZM106.575 54.8128C106.817 54.0149 107.459 53.4329 108.543 53.0341C109.636 52.6321 111.113 52.4443 112.884 52.4095C116.425 52.34 120.954 52.8815 125.546 53.3524C130.108 53.8202 134.732 54.2181 138.373 53.8288C141.972 53.444 144.896 52.2534 145.584 49.2802L144.61 49.0547C144.083 51.3316 141.828 52.4536 138.266 52.8344C134.747 53.2108 130.228 52.8273 125.648 52.3576C121.097 51.8909 116.484 51.3386 112.864 51.4097C111.055 51.4452 109.447 51.6363 108.198 52.0956C106.94 52.5583 105.983 53.32 105.618 54.5222L106.575 54.8128ZM145.584 49.2802C145.95 47.6974 145.152 46.3546 143.737 45.2628C142.328 44.1758 140.216 43.2542 137.677 42.4634C132.587 40.8783 125.597 39.7649 118.563 38.983C111.522 38.2001 104.408 37.7464 99.0563 37.4883C96.3798 37.3593 94.143 37.2791 92.5749 37.2312C91.7909 37.2072 91.1739 37.1913 90.7528 37.1814C90.5423 37.1765 90.3806 37.173 90.2715 37.1708C90.217 37.1697 90.1756 37.1689 90.1477 37.1683C90.1338 37.1681 90.1233 37.1679 90.1162 37.1677C90.1127 37.1677 90.11 37.1676 90.1082 37.1676C90.1073 37.1676 90.1066 37.1676 90.1061 37.1676C90.1056 37.1676 90.1054 37.1676 90.0967 37.6675C90.088 38.1674 90.0882 38.1674 90.0885 38.1674C90.089 38.1674 90.0896 38.1674 90.0904 38.1674C90.0921 38.1675 90.0947 38.1675 90.0981 38.1676C90.1049 38.1677 90.1152 38.1679 90.1289 38.1682C90.1562 38.1687 90.1971 38.1695 90.2512 38.1706C90.3592 38.1728 90.5198 38.1762 90.7293 38.1811C91.1482 38.191 91.7628 38.2068 92.5444 38.2307C94.1075 38.2785 96.3384 38.3584 99.0081 38.4872C104.348 38.7447 111.44 39.1972 118.453 39.9768C125.473 40.7573 132.385 41.8627 137.379 43.4182C139.883 44.1978 141.859 45.077 143.126 46.0545C144.386 47.0271 144.851 48.0125 144.61 49.0547L145.584 49.2802Z" fill="#483526"/>
</svg>
