<svg width="167" height="38" viewBox="0 0 167 38" fill="none" xmlns="http://www.w3.org/2000/svg">
<path d="M38 19C38 29.4928 29.4928 38 19 38C8.50717 38 0 29.4928 0 19C0 8.50717 8.50717 0 19 0C29.495 0 38 8.50717 38 19Z" fill="#2081E2"/>
<path d="M9.37407 19.6384L9.45604 19.5095L14.3987 11.7774C14.4709 11.6642 14.6408 11.6759 14.6954 11.7988C15.5211 13.6494 16.2336 15.9509 15.8999 17.3837C15.7574 17.9733 15.3669 18.7716 14.9277 19.5095C14.8711 19.6169 14.8086 19.7223 14.7423 19.8238C14.711 19.8707 14.6583 19.898 14.6017 19.898H9.51851C9.38186 19.898 9.30183 19.7496 9.37407 19.6384Z" fill="white"/>
<path d="M31.4048 21.0748V22.2987C31.4048 22.369 31.3619 22.4315 31.2994 22.4588C30.9169 22.6228 29.607 23.224 29.0624 23.9814C27.6725 25.9159 26.6106 28.682 24.2368 28.682H14.334C10.8242 28.682 7.97998 25.8281 7.97998 22.3065V22.1933C7.97998 22.0996 8.05609 22.0235 8.1498 22.0235H13.6703C13.7796 22.0235 13.8596 22.125 13.8499 22.2323C13.8108 22.5915 13.8772 22.9585 14.047 23.2923C14.375 23.958 15.0543 24.3738 15.7883 24.3738H18.5212V22.2402H15.8195C15.6809 22.2402 15.5989 22.0801 15.679 21.9669C15.7082 21.922 15.7414 21.8751 15.7766 21.8224C16.0323 21.4593 16.3973 20.8952 16.7604 20.253C17.0083 19.8196 17.2484 19.357 17.4417 18.8924C17.4807 18.8084 17.5119 18.7225 17.5432 18.6386C17.5959 18.4902 17.6506 18.3516 17.6896 18.213C17.7287 18.0959 17.7598 17.9729 17.7911 17.8577C17.8829 17.4634 17.9219 17.0457 17.9219 16.6123C17.9219 16.4425 17.9141 16.2649 17.8985 16.095C17.8906 15.9096 17.8672 15.7241 17.8438 15.5387C17.8282 15.3747 17.7989 15.2127 17.7677 15.0429C17.7287 14.7949 17.674 14.549 17.6115 14.3011L17.59 14.2074C17.5432 14.0375 17.5041 13.8755 17.4495 13.7057C17.2953 13.1728 17.1176 12.6535 16.9302 12.1675C16.8619 11.9742 16.7838 11.7888 16.7057 11.6033C16.5906 11.3242 16.4734 11.0704 16.3661 10.8303C16.3114 10.721 16.2646 10.6214 16.2177 10.5199C16.165 10.4047 16.1104 10.2896 16.0557 10.1803C16.0167 10.0963 15.9718 10.0182 15.9405 9.94014L15.6067 9.32329C15.5599 9.23935 15.638 9.13979 15.7297 9.16517L17.8184 9.73126H17.8243C17.8282 9.73126 17.8301 9.73323 17.8321 9.73323L18.1073 9.80935L18.4099 9.89527L18.5212 9.92646V8.68497C18.5212 8.08567 19.0014 7.59961 19.5948 7.59961C19.8915 7.59961 20.1609 7.72064 20.3542 7.91778C20.5474 8.11497 20.6684 8.38435 20.6684 8.68497V10.5277L20.891 10.5902C20.9086 10.5961 20.9261 10.6039 20.9417 10.6156C20.9964 10.6566 21.0745 10.7171 21.174 10.7913C21.2521 10.8537 21.3361 10.9299 21.4376 11.0079C21.6386 11.1699 21.8787 11.3788 22.1423 11.6189C22.2125 11.6794 22.2809 11.7419 22.3433 11.8044C22.683 12.1206 23.0637 12.4915 23.4267 12.9014C23.5282 13.0166 23.6278 13.1337 23.7293 13.2567C23.8308 13.3817 23.9382 13.5046 24.0319 13.6276C24.1549 13.7916 24.2876 13.9614 24.4028 14.1391C24.4574 14.223 24.5199 14.3089 24.5726 14.3928C24.721 14.6173 24.8518 14.8496 24.9767 15.0819C25.0294 15.1893 25.084 15.3064 25.1309 15.4216C25.2695 15.732 25.3788 16.0482 25.4491 16.3644C25.4705 16.4327 25.4862 16.5069 25.494 16.5733V16.5889C25.5174 16.6826 25.5252 16.7822 25.533 16.8837C25.5642 17.2077 25.5486 17.5317 25.4784 17.8577C25.4491 17.9964 25.41 18.1271 25.3632 18.2658C25.3163 18.3985 25.2695 18.5371 25.209 18.6679C25.0919 18.9392 24.9532 19.2105 24.7893 19.4643C24.7366 19.558 24.6741 19.6576 24.6116 19.7513C24.5433 19.8508 24.473 19.9445 24.4106 20.0363C24.3247 20.1534 24.233 20.2764 24.1392 20.3857C24.0553 20.5009 23.9694 20.6161 23.8757 20.7176C23.7449 20.8718 23.62 21.0182 23.4892 21.1587C23.4111 21.2505 23.3272 21.3442 23.2413 21.4281C23.1574 21.5218 23.0714 21.6057 22.9934 21.6838C22.8626 21.8146 22.7533 21.9161 22.6615 22.0001L22.4468 22.1972C22.4156 22.2246 22.3746 22.2402 22.3316 22.2402H20.6684V24.3738H22.7611C23.2296 24.3738 23.6747 24.2079 24.0338 23.9033C24.1568 23.796 24.6936 23.3314 25.328 22.6306C25.3495 22.6071 25.3769 22.5896 25.4081 22.5818L31.1882 20.9108C31.2956 20.8796 31.4048 20.9615 31.4048 21.0748Z" fill="white"/>
<path d="M56.5146 28.1189C54.797 28.1189 53.2181 27.734 51.7783 26.9642C50.3556 26.1944 49.219 25.1233 48.3689 23.7511C47.5364 22.3621 47.1199 20.8057 47.1199 19.082C47.1199 17.3583 47.5364 15.8103 48.3689 14.438C49.219 13.0658 50.3556 11.9947 51.7783 11.2249C53.2181 10.4551 54.797 10.0702 56.5146 10.0702C58.2322 10.0702 59.8024 10.4551 61.2251 11.2249C62.6653 11.9947 63.7928 13.0658 64.6082 14.438C65.4412 15.8103 65.8573 17.3583 65.8573 19.082C65.8573 20.8057 65.4412 22.3621 64.6082 23.7511C63.7757 25.1233 62.6478 26.1944 61.2251 26.9642C59.8024 27.734 58.2322 28.1189 56.5146 28.1189ZM56.5146 24.2029C57.9719 24.2029 59.1343 23.7343 60.0019 22.7972C60.8869 21.86 61.3292 20.6216 61.3292 19.082C61.3292 17.5256 60.8869 16.2873 60.0019 15.3668C59.1343 14.4297 57.9719 13.9611 56.5146 13.9611C55.0398 13.9611 53.8603 14.4213 52.9753 15.3417C52.1078 16.2621 51.6742 17.5089 51.6742 19.082C51.6742 20.6383 52.1078 21.8851 52.9753 22.8223C53.8603 23.7427 55.0398 24.2029 56.5146 24.2029Z" fill="#04111D"/>
<path d="M72.7834 15.919C73.217 15.2664 73.8155 14.7392 74.5789 14.3376C75.3424 13.9359 76.2357 13.7351 77.2595 13.7351C78.4565 13.7351 79.541 14.028 80.5126 14.6137C81.4839 15.1994 82.2473 16.0362 82.8025 17.1239C83.3752 18.2117 83.6613 19.4752 83.6613 20.9144C83.6613 22.3537 83.3752 23.6255 82.8025 24.73C82.2473 25.8178 81.4839 26.6629 80.5126 27.2654C79.541 27.8511 78.4565 28.1439 77.2595 28.1439C76.2532 28.1439 75.3598 27.9432 74.5789 27.5415C73.8155 27.1399 73.217 26.6211 72.7834 25.9851V32.1102H68.3333V13.9359H72.7834V15.919ZM79.1332 20.9144C79.1332 19.8434 78.8209 19.0067 78.1962 18.4042C77.5889 17.785 76.8342 17.4754 75.9321 17.4754C75.0475 17.4754 74.2928 17.785 73.6681 18.4042C73.0608 19.0234 72.7572 19.8685 72.7572 20.9395C72.7572 22.0106 73.0608 22.8557 73.6681 23.4749C74.2928 24.0941 75.0475 24.4037 75.9321 24.4037C76.8171 24.4037 77.5718 24.0941 78.1962 23.4749C78.8209 22.839 79.1332 21.9855 79.1332 20.9144Z" fill="#04111D"/>
<path d="M99.6847 20.7136C99.6847 21.1153 99.6589 21.5336 99.6068 21.9688H89.5353C89.6048 22.839 89.891 23.5084 90.3941 23.9769C90.9147 24.4288 91.5478 24.6547 92.2941 24.6547C93.4045 24.6547 94.1762 24.2029 94.6102 23.2992H99.3465C99.1037 24.2196 98.6614 25.048 98.0192 25.7843C97.3948 26.5207 96.6052 27.098 95.651 27.5164C94.6968 27.9348 93.6298 28.1439 92.4503 28.1439C91.0275 28.1439 89.761 27.8511 88.6507 27.2654C87.5403 26.6797 86.6727 25.8429 86.048 24.7551C85.4237 23.6674 85.1113 22.3955 85.1113 20.9395C85.1113 19.4836 85.4149 18.2117 86.0222 17.1239C86.6465 16.0362 87.5141 15.1994 88.6244 14.6137C89.7348 14.028 91.0101 13.7351 92.4503 13.7351C93.8555 13.7351 95.1046 14.0196 96.1974 14.5886C97.2907 15.1576 98.1408 15.9692 98.748 17.0236C99.3727 18.0779 99.6847 19.3079 99.6847 20.7136ZM95.1308 19.584C95.1308 18.8477 94.8705 18.2619 94.3499 17.8268C93.8293 17.3917 93.1787 17.1742 92.3982 17.1742C91.6519 17.1742 91.0188 17.3834 90.4982 17.8017C89.9951 18.2201 89.6827 18.8142 89.5615 19.584H95.1308Z" fill="#04111D"/>
<path d="M110.881 13.7852C112.581 13.7852 113.934 14.3207 114.94 15.3917C115.964 16.446 116.476 17.902 116.476 19.7596V27.943H112.052V20.3369C112.052 19.3997 111.8 18.6718 111.297 18.153C110.794 17.6342 110.117 17.3748 109.267 17.3748C108.417 17.3748 107.74 17.6342 107.237 18.153C106.734 18.6718 106.483 19.3997 106.483 20.3369V27.943H102.032V13.9358H106.483V15.7933C106.934 15.1741 107.541 14.6888 108.304 14.3374C109.067 13.9692 109.926 13.7852 110.881 13.7852Z" fill="#04111D"/>
<path d="M126.179 28.1189C124.843 28.1189 123.645 27.9097 122.587 27.4913C121.529 27.0729 120.679 26.4538 120.037 25.6337C119.412 24.8137 119.082 23.8264 119.048 22.6716H123.784C123.854 23.3243 124.088 23.8264 124.487 24.1778C124.886 24.5125 125.406 24.6799 126.049 24.6799C126.708 24.6799 127.228 24.5376 127.61 24.2531C127.992 23.9519 128.183 23.5419 128.183 23.0231C128.183 22.588 128.026 22.2282 127.714 21.9437C127.419 21.6592 127.046 21.4249 126.595 21.2408C126.161 21.0567 125.537 20.8475 124.721 20.6133C123.541 20.2618 122.578 19.9104 121.832 19.5589C121.087 19.2075 120.445 18.6887 119.907 18.0026C119.369 17.3164 119.1 16.4211 119.1 15.3166C119.1 13.6766 119.716 12.3964 120.948 11.4759C122.179 10.5388 123.784 10.0702 125.762 10.0702C127.775 10.0702 129.397 10.5388 130.629 11.4759C131.861 12.3964 132.52 13.6849 132.607 15.3417H127.792C127.757 14.7727 127.54 14.3292 127.141 14.0113C126.742 13.6766 126.231 13.5092 125.606 13.5092C125.068 13.5092 124.635 13.6515 124.305 13.936C123.975 14.2037 123.81 14.597 123.81 15.1158C123.81 15.6848 124.088 16.1283 124.643 16.4462C125.199 16.7642 126.066 17.1073 127.246 17.4754C128.425 17.8603 129.38 18.2285 130.108 18.5799C130.854 18.9314 131.496 19.4418 132.034 20.1112C132.572 20.7806 132.841 21.6424 132.841 22.6968C132.841 23.7009 132.572 24.6129 132.034 25.4329C131.514 26.2529 130.75 26.9056 129.744 27.3909C128.738 27.8762 127.549 28.1189 126.179 28.1189Z" fill="#04111D"/>
<path d="M149.269 20.7136C149.269 21.1153 149.242 21.5336 149.19 21.9688H139.119C139.188 22.839 139.474 23.5084 139.978 23.9769C140.498 24.4288 141.132 24.6547 141.878 24.6547C142.988 24.6547 143.76 24.2029 144.194 23.2992H148.93C148.687 24.2196 148.245 25.048 147.603 25.7843C146.978 26.5207 146.189 27.098 145.235 27.5164C144.28 27.9348 143.213 28.1439 142.034 28.1439C140.611 28.1439 139.345 27.8511 138.234 27.2654C137.124 26.6797 136.256 25.8429 135.632 24.7551C135.007 23.6674 134.695 22.3955 134.695 20.9395C134.695 19.4836 134.998 18.2117 135.606 17.1239C136.23 16.0362 137.098 15.1994 138.208 14.6137C139.318 14.028 140.594 13.7351 142.034 13.7351C143.439 13.7351 144.688 14.0196 145.781 14.5886C146.874 15.1576 147.724 15.9692 148.332 17.0236C148.956 18.0779 149.269 19.3079 149.269 20.7136ZM144.714 19.584C144.714 18.8477 144.454 18.2619 143.933 17.8268C143.413 17.3917 142.762 17.1742 141.982 17.1742C141.236 17.1742 140.602 17.3834 140.082 17.8017C139.579 18.2201 139.266 18.8142 139.145 19.584H144.714Z" fill="#04111D"/>
<path d="M150.732 20.9144C150.732 19.4752 151.01 18.2117 151.565 17.1239C152.137 16.0362 152.909 15.1994 153.881 14.6137C154.853 14.028 155.937 13.7351 157.134 13.7351C158.158 13.7351 159.051 13.9359 159.815 14.3376C160.595 14.7392 161.194 15.2664 161.61 15.919V13.9359H166.06V27.9432H161.61V25.96C161.177 26.6127 160.569 27.1399 159.788 27.5415C159.025 27.9432 158.132 28.1439 157.108 28.1439C155.928 28.1439 154.853 27.8511 153.881 27.2654C152.909 26.6629 152.137 25.8178 151.565 24.73C151.01 23.6255 150.732 22.3537 150.732 20.9144ZM161.61 20.9395C161.61 19.8685 161.298 19.0234 160.673 18.4042C160.066 17.785 159.32 17.4754 158.435 17.4754C157.55 17.4754 156.796 17.785 156.171 18.4042C155.564 19.0067 155.26 19.8434 155.26 20.9144C155.26 21.9855 155.564 22.839 156.171 23.4749C156.796 24.0941 157.55 24.4037 158.435 24.4037C159.32 24.4037 160.066 24.0941 160.673 23.4749C161.298 22.8557 161.61 22.0106 161.61 20.9395Z" fill="#04111D"/>
</svg>
