<?xml version="1.0" encoding="UTF-8"?><svg id="a" xmlns="http://www.w3.org/2000/svg" viewBox="0 0 320 132.94"><defs><style>.c{fill:#fff;}</style></defs><g><path d="M46.08,67.54l-4.92-13.54c-.18-.5-.73-.76-1.24-.58-.5,.18-.76,.74-.58,1.24l4.92,13.54c.18,.51,.74,.77,1.24,.58,.09-.03,.18-.08,.25-.13,.34-.25,.48-.7,.33-1.11Zm0,0l-4.92-13.54c-.18-.5-.73-.76-1.24-.58-.5,.18-.76,.74-.58,1.24l4.92,13.54c.18,.51,.74,.77,1.24,.58,.09-.03,.18-.08,.25-.13,.34-.25,.48-.7,.33-1.11Zm0,0l-4.92-13.54c-.18-.5-.73-.76-1.24-.58-.5,.18-.76,.74-.58,1.24l4.92,13.54c.18,.51,.74,.77,1.24,.58,.09-.03,.18-.08,.25-.13,.34-.25,.48-.7,.33-1.11Zm38.41,28.69c-.14,.6-.36,1.16-.65,1.67-.1,.17-.2,.34-.33,.5-1.02,1.46-2.66,2.38-4.79,2.68-5.64,.78-11.61-2.28-16.88-4.98-1.07-.55-2.1-1.08-3.11-1.57-1.61-.78-3.21-1.58-4.81-2.39-.08-.06-.16-.1-.25-.13-1.65-.84-3.28-1.69-4.89-2.56-.47-.26-1.06-.08-1.31,.39-.26,.47-.08,1.06,.39,1.31,1.57,.85,3.16,1.68,4.76,2.5,1.09,2.59,2.26,5.35,3.43,8.1l3.26,7.7c1.77,3.84-.19,8.69-4.48,11.05-4.57,2.51-10.32,1.33-12.58-2.58l-18.75-45.87c-2.84-6.14,.07-12.65,3.02-17.03,4.59-6.83,10.4-12.79,15.54-15.95,3.18-1.96,6.68-2.53,9.85-1.62,3.04,.87,5.59,3.11,7.16,6.29,1.57,3.16,2.18,7.17,1.84,11.9-.48,6.44-2.49,12.77-5.82,18.3-.27,.46-.13,1.05,.33,1.33,.46,.27,1.06,.13,1.33-.33,.88-1.46,1.67-2.97,2.37-4.52,3.89,2.07,7.69,4.32,11.31,6.73,.39,.26,.78,.53,1.17,.79,.3,.2,.59,.41,.88,.6-.07-.86-.12-1.69-.17-2.47-.67-.46-1.35-.91-2.04-1.35-3.35-2.18-6.84-4.22-10.4-6.1,1.63-4.1,2.65-8.44,2.97-12.83,.38-5.17-.29-9.39-2.03-12.91-1.82-3.68-4.79-6.27-8.37-7.3-3.69-1.06-7.74-.41-11.39,1.84-7.73,4.75-13.86,13.13-16.14,16.51-4.62,6.88-5.72,13.43-3.18,18.9l18.75,45.89,.06,.11c2.75,4.84,9.72,6.39,15.23,3.37,.52-.29,1.01-.61,1.47-.95,4.12-3.08,5.81-8.32,3.84-12.58l-3.25-7.67c-.86-2.03-1.71-4.06-2.55-6.02,.87,.43,1.74,.87,2.6,1.29,1,.48,2.03,1.01,3.08,1.55,5.52,2.83,11.78,6.04,18.03,5.18,1.72-.24,3.21-.82,4.4-1.72,.87-.64,1.59-1.46,2.13-2.43,.19-.33,.35-.67,.49-1.03,.29-.72,.48-1.5,.58-2.31-.68,.3-1.39,.55-2.1,.72ZM39.92,53.43c-.5,.18-.76,.74-.58,1.24l4.92,13.54c.18,.51,.74,.77,1.24,.58,.09-.03,.18-.08,.25-.13,.34-.25,.48-.7,.33-1.11l-4.92-13.54c-.18-.5-.73-.76-1.24-.58Zm6.16,14.12l-4.92-13.54c-.18-.5-.73-.76-1.24-.58-.5,.18-.76,.74-.58,1.24l4.92,13.54c.18,.51,.74,.77,1.24,.58,.09-.03,.18-.08,.25-.13,.34-.25,.48-.7,.33-1.11Z"/><path d="M92.19,28.18c-.06-.54-.54-.92-1.07-.86-.54,.06-.92,.54-.86,1.07l.99,8.85c.06,.54,.54,.92,1.08,.86,.09-.01,.17-.03,.26-.06,.39-.16,.64-.57,.59-1.01l-.99-8.85Zm0,0c-.06-.54-.54-.92-1.07-.86-.54,.06-.92,.54-.86,1.07l.99,8.85c.06,.54,.54,.92,1.08,.86,.09-.01,.17-.03,.26-.06,.39-.16,.64-.57,.59-1.01l-.99-8.85Zm0,0c-.06-.54-.54-.92-1.07-.86-.54,.06-.92,.54-.86,1.07l.99,8.85c.06,.54,.54,.92,1.08,.86,.09-.01,.17-.03,.26-.06,.39-.16,.64-.57,.59-1.01l-.99-8.85Zm29.08,50.3s0,.03-.02,.05c-.27,.58-.57,1.13-.91,1.64-1.41,2.11-3.47,3.63-6.15,4.52-5.87,1.95-12.32-.65-14.7-5.92l-.09-.22c-.25-.53-.49-1.08-.88-2.13-.72-1.94-1.45-4.34-2.41-12.35-.19-1.55-.3-2.62-.51-4.67-.07-.66-.14-1.3-.2-1.91-.05-.46-.09-.92-.13-1.37-.23-2.45-.41-4.34-.5-5.32-.04-.47,0-1.09-.4-1.42-.22-.18-.46-.2-.56-.2-.32-.02-.62,.13-.8,.32-.07,.07-.1,.13-.11,.15-.03,.05-.17,.23-.13,.6,0,.03,.01,.15,.03,.35,.03,1,.24,3.06,.71,7.56,.2,2.08,.43,4.22,.68,6.39,.28,2.51,.54,4.64,.76,6.47,.95,7.73,1.23,10.06,.02,13.91-.77,2.47-1.96,5.61-4.32,7.89-1.08,1.05-2.51,2.02-4.06,2.7-.68,.3-1.39,.55-2.1,.72-1.42,.36-2.87,.43-4.19,.09-2.35-.61-4.45-2.8-5.62-5.86-1.06-2.81-1.76-6.26-2.08-10.28-.04-.56-.08-1.11-.12-1.64-.07-.86-.12-1.69-.17-2.47-.43-6.61-.46-10.56-.46-10.6v-.63c-.03-4.32-.05-7.73-.03-10.44,.02-2.88,.09-4.63,.26-6.93,.61-8.34,2.41-20.28,10.85-27.73,3.37-2.97,7.72-4.79,11.92-4.99,4.51-.21,8.44,1.75,11.69,5.83,4.67,5.86,7.27,14.14,9.57,21.44l.02,.09c.47,1.49,.9,2.98,1.31,4.47,.44,1.55,.84,3.11,1.23,4.65l.76-4.79c-.39-1.45-.81-2.9-1.27-4.35-.05-.19-.11-.38-.17-.57l-.03-.08c-2.35-7.46-5.01-15.92-9.9-22.07-3.66-4.59-8.14-6.8-13.3-6.56-4.64,.22-9.42,2.21-13.12,5.47-8.97,7.92-10.86,20.37-11.5,29.05-.17,2.35-.24,4.13-.27,7.06-.02,2.72,0,6.14,.03,10.46v.63s.03,3.46,.37,9.24c.05,.77,.1,1.58,.16,2.43,.07,1.01,.14,2.07,.23,3.18,.33,4.21,1.07,7.84,2.21,10.82,1.4,3.7,3.94,6.27,6.94,7.05,1.21,.31,2.46,.35,3.7,.2,.85-.1,1.69-.3,2.5-.58,2.34-.77,4.49-2.15,5.99-3.61,2.67-2.59,3.99-6.01,4.83-8.71,.64-2.02,.89-3.68,.89-5.72v-.23c2.78,6.17,10.28,9.24,17.08,6.98,.36-.12,.71-.25,1.05-.39,2.77-1.13,4.9-2.91,6.37-5.31,.29-.48,.56-.98,.8-1.51,.04-.09,.08-.17,.11-.26-.65-.14-1.27-.34-1.86-.59Zm-30.15-51.16c-.54,.06-.92,.54-.86,1.07l.99,8.85c.06,.54,.54,.92,1.08,.86,.09-.01,.17-.03,.26-.06,.39-.16,.64-.57,.59-1.01l-.99-8.85c-.06-.54-.54-.92-1.07-.86Zm-10.82,69.01c-2.35-.61-4.45-2.8-5.62-5.86-1.06-2.81-1.76-6.26-2.08-10.28-.04-.56-.08-1.11-.12-1.64-.29-.19-.58-.4-.88-.6-.39-.26-.78-.53-1.17-.79,.07,1.01,.14,2.07,.23,3.18,.33,4.21,1.07,7.84,2.21,10.82,1.4,3.7,3.94,6.27,6.94,7.05,1.21,.31,2.46,.35,3.7,.2,.13-.16,.23-.33,.33-.5,.29-.51,.51-1.07,.65-1.67-1.42,.36-2.87,.43-4.19,.09Zm11.89-68.15c-.06-.54-.54-.92-1.07-.86-.54,.06-.92,.54-.86,1.07l.99,8.85c.06,.54,.54,.92,1.08,.86,.09-.01,.17-.03,.26-.06,.39-.16,.64-.57,.59-1.01l-.99-8.85Zm0,0c-.06-.54-.54-.92-1.07-.86-.54,.06-.92,.54-.86,1.07l.99,8.85c.06,.54,.54,.92,1.08,.86,.09-.01,.17-.03,.26-.06,.39-.16,.64-.57,.59-1.01l-.99-8.85Z"/><path d="M147.09,14.25c-.52-.1-1.03,.24-1.14,.76l-2.83,14.13c-.1,.53,.24,1.04,.76,1.14,.1,.02,.19,.02,.29,0,.41-.03,.77-.34,.85-.77l2.83-14.13c.11-.52-.23-1.03-.76-1.14Zm0,0c-.52-.1-1.03,.24-1.14,.76l-2.83,14.13c-.1,.53,.24,1.04,.76,1.14,.1,.02,.19,.02,.29,0,.41-.03,.77-.34,.85-.77l2.83-14.13c.11-.52-.23-1.03-.76-1.14Zm0,0c-.52-.1-1.03,.24-1.14,.76l-2.83,14.13c-.1,.53,.24,1.04,.76,1.14,.1,.02,.19,.02,.29,0,.41-.03,.77-.34,.85-.77l2.83-14.13c.11-.52-.23-1.03-.76-1.14Zm0,0c-.52-.1-1.03,.24-1.14,.76l-2.83,14.13c-.1,.53,.24,1.04,.76,1.14,.1,.02,.19,.02,.29,0,.41-.03,.77-.34,.85-.77l2.83-14.13c.11-.52-.23-1.03-.76-1.14Zm-31.51,56.33l3.09-19.34c-.39-1.54-.79-3.1-1.23-4.65l-3.79,23.75v.12c-.13,4.13,2.67,7.92,6.69,9.71,.34-.51,.64-1.06,.91-1.64,.01-.02,.01-.03,.02-.05-3.38-1.45-5.76-4.53-5.69-7.9ZM167.06,5.52c-2.61-2.83-6.4-4.38-10.69-4.36-9.07,.05-18.66,4.03-22.37,5.74-7.52,3.47-11.86,8.5-12.53,14.49l-3.31,20.71-.72,4.49-3.79,23.75v.12c-.13,4.13,2.67,7.92,6.69,9.71,.6,.27,1.23,.49,1.88,.67,.86,.23,1.76,.37,2.69,.41,.59,.03,1.17,.01,1.75-.04,5.12-.49,9.29-4.1,9.82-8.75l1.2-8.25c.32-2.18,.64-4.35,.95-6.47,.52,.82,1.03,1.65,1.55,2.46,.6,.93,1.21,1.91,1.83,2.92,3.24,5.29,6.92,11.28,12.71,13.79,1.6,.69,3.17,.97,4.66,.82,.72-.07,1.43-.23,2.1-.5,.34-.13,.66-.28,.98-.46,.37-.21,.73-.45,1.07-.72-.05-.01-.1-.03-.15-.05-.64-.25-1.21-.6-1.71-1.02-.05,.04-.1,.07-.16,.1-.59,.33-1.22,.55-1.88,.66-1.29,.22-2.69,.02-4.14-.61-5.23-2.26-8.74-7.98-11.83-13.02-.63-1.02-1.24-2.02-1.85-2.96-.97-1.5-1.93-3.02-2.87-4.54-.03-.09-.09-.17-.15-.24-.97-1.57-1.92-3.15-2.84-4.73-.27-.46-.87-.62-1.33-.35-.46,.27-.62,.87-.34,1.33,.9,1.53,1.82,3.07,2.76,4.6-.41,2.79-.84,5.75-1.27,8.71l-1.22,8.28c-.47,4.2-4.67,7.32-9.56,7.11-.64-.03-1.26-.11-1.86-.25-.65-.14-1.27-.34-1.86-.59-3.38-1.45-5.76-4.53-5.69-7.9l3.09-19.34,.76-4.79,3.96-24.8c.75-6.73,6.63-10.78,11.42-12.99,7.47-3.45,15.53-5.53,21.57-5.56,3.73-.02,7.02,1.31,9.25,3.73,2.15,2.33,3.16,5.56,2.86,9.1-.31,3.51-1.86,7.25-4.62,11.12-3.75,5.26-8.75,9.62-14.47,12.62-.47,.25-.66,.83-.41,1.3,.25,.48,.83,.66,1.31,.41,1.5-.79,2.96-1.67,4.37-2.63,2.5,4.2,4.77,8.53,6.76,12.91,.07,.15,.14,.3,.2,.45,.39,.85,.73,1.65,1.05,2.41l1.09-2.38c-.18-.42-.37-.84-.57-1.28-.17-.36-.33-.73-.51-1.09-1.91-4.13-4.09-8.21-6.45-12.17,3.52-2.65,6.65-5.83,9.21-9.42,3-4.22,4.63-8.17,4.97-12.08,.35-4.09-.84-7.84-3.36-10.58Zm-21.11,9.49l-2.83,14.13c-.1,.53,.24,1.04,.76,1.14,.1,.02,.19,.02,.29,0,.41-.03,.77-.34,.85-.77l2.83-14.13c.11-.52-.23-1.03-.76-1.14-.52-.1-1.03,.24-1.14,.76Zm1.14-.76c-.52-.1-1.03,.24-1.14,.76l-2.83,14.13c-.1,.53,.24,1.04,.76,1.14,.1,.02,.19,.02,.29,0,.41-.03,.77-.34,.85-.77l2.83-14.13c.11-.52-.23-1.03-.76-1.14Zm0,0c-.52-.1-1.03,.24-1.14,.76l-2.83,14.13c-.1,.53,.24,1.04,.76,1.14,.1,.02,.19,.02,.29,0,.41-.03,.77-.34,.85-.77l2.83-14.13c.11-.52-.23-1.03-.76-1.14Z"/><path d="M202.52,11.72c-.67-2.55-2.5-4.73-4.9-5.83-4.08-1.87-8.72-.57-13.41,3.76-2.22,2.05-3.94,4.3-5,5.83-2.72,3.95-4.72,8.34-6.65,12.59l-9.87,21.69-1.06,2.34-1.6,3.52c-1.58,3.48-3.37,7.41-3.46,11.61-.07,2.82,.89,6.2,3.06,8.5,.54,.58,1.16,1.08,1.85,1.49,.37,.23,.76,.43,1.18,.59,.59,.23,1.2,.4,1.83,.5,2.09,.32,4.38-.08,6.52-1.17,2.75-1.4,4.85-3.69,6.19-5.3,5.88-7.11,9.78-15.91,13.55-24.43,.81-1.82,1.61-3.64,2.43-5.41l.57-1.25c3.16-6.88,6.43-14,8.33-21.52,.61-2.42,1.09-5.01,.44-7.51Zm-2.34,7.03c-1.85,7.34-5.09,14.38-8.21,21.19l-.57,1.24c-.82,1.79-1.63,3.61-2.44,5.44-3.71,8.39-7.56,17.07-13.27,23.97-1.95,2.34-3.72,3.87-5.57,4.81-2.23,1.13-4.63,1.37-6.59,.64-.05-.01-.1-.03-.15-.05-.64-.25-1.21-.6-1.71-1.02-2.23-1.83-3.21-5.05-3.14-7.69,.08-3.8,1.78-7.55,3.28-10.85l.87-1.92,1.09-2.38,10.57-23.25c1.9-4.17,3.86-8.48,6.48-12.29,1-1.45,2.63-3.58,4.71-5.5,2.84-2.62,7.09-5.34,11.27-3.42,1.85,.84,3.31,2.59,3.82,4.55,.54,2.07,.11,4.36-.44,6.53Z"/><path d="M259.02,31.77c-1.76-1.99-3.79-3-4.66-3.43-6.2-3.08-12.98-5.4-19.39-7.52-.63-.21-1.27-.42-1.92-.64-5.12-1.71-10.42-3.48-15.83-4.06-4.55-.49-8.16-.07-11.03,1.29-1.34,.63-2.44,1.54-3.28,2.69-2.21,3.05-1.49,6.68-1.07,8.1,1.03,3.54,3.75,5.48,5.06,6.41,1.93,1.39,3.28,1.99,4.27,2.33l-16.07,17.59c-1.01,1.21-2.07,2.39-3.11,3.53-2.92,3.25-5.94,6.6-7.96,10.83-1.99,4.17-1.4,8.39,1.62,11.6,1.15,1.22,2.52,2.19,4.02,2.87,2.04,.94,4.31,1.34,6.49,1.08,4.6-.55,8.12-3.5,10.38-5.67,2.05-1.98,3.93-4.17,5.75-6.29,.81-.94,1.62-1.88,2.44-2.8l20.81-23.31c3.87,1.04,8.58,1.83,10.61,2.11,6.27,.86,13.52-1.01,15.59-7.13,1.48-4.37-1.7-8.43-2.72-9.58Zm.89,8.96c-1.96,5.8-9.41,6.39-13.5,5.83-2.08-.29-7.06-1.13-10.93-2.22l-.59-.17-21.6,24.22c-.84,.93-1.65,1.88-2.47,2.83-1.79,2.08-3.64,4.24-5.63,6.15-3.3,3.19-6.16,4.77-9.26,5.14-3.12,.37-6.6-.94-8.86-3.35-2.48-2.63-2.94-5.98-1.29-9.43,1.9-3.98,4.7-7.08,7.66-10.37,1.04-1.15,2.12-2.35,3.13-3.55l18.05-19.77-1.39-.48c-.19-.07-.4-.13-.62-.2-.95-.28-2.26-.66-4.59-2.33-1.21-.86-3.47-2.48-4.32-5.38-.26-.89-.97-3.99,.78-6.41,.64-.88,1.5-1.58,2.54-2.08,2.54-1.2,5.81-1.56,10-1.11,5.19,.56,10.39,2.3,15.42,3.98,.64,.21,1.29,.43,1.93,.64,6.34,2.09,13.04,4.39,19.13,7.41,.83,.41,2.56,1.27,4.07,2.98,.6,.67,3.51,4.21,2.34,7.67Z"/><path d="M301.1,70.63c-1.68-3.07-5.04-4.73-10.25-5.08-4.82-.32-9.76,.37-14.7,2.05,.14-.66,.3-1.34,.47-2.04,1.69-7.17,3.79-16.08-3.12-21.41-2.47-1.9-5.59-2.6-8.35-1.88-4.12,1.09-6.78,4.95-8.29,7.99-1.95,3.94-2.43,8.31-2.9,12.53-.11,1.01-.22,2.01-.35,3l-1.19,9.03c-4.99,1.23-10.03,2.57-14.99,4-4.29,1.23-8.66,3.02-12.32,5.03-4.63,2.54-8.54,7.29-6.84,12.17,.56,1.6,1.42,2.88,2.5,3.9,4.06,3.87,11.1,4.07,15.52,3.74,5.37-.33,10.55-1.89,15.11-3.27,1.96-.59,3.92-1.18,5.88-1.77,6.42-1.93,13.06-3.92,19.55-6.02l1.12-.36c6.74-2.15,20.76-6.62,23.79-14.19h-.01c.96-2.4,.75-4.89-.63-7.42Zm-1.18,6.7c-2.68,6.71-16.61,11.16-22.56,13.05l-1.13,.37c-6.48,2.09-13.1,4.08-19.51,6-1.96,.59-3.92,1.18-5.88,1.77-4.47,1.35-9.52,2.87-14.69,3.19-5.03,.38-13.81,.06-16.04-6.33-1.51-4.36,3.22-8.33,5.94-9.82,3.53-1.95,7.77-3.67,11.92-4.87,5.15-1.47,10.39-2.87,15.57-4.13l.65-.16,1.36-10.35c.13-1.01,.24-2.02,.35-3.04,.45-4.06,.92-8.25,2.71-11.88,1.09-2.2,3.45-6.02,7.04-6.97,2.14-.57,4.69,.02,6.66,1.54,.3,.23,.59,.48,.85,.73,4.87,4.64,3.12,12.08,1.56,18.68-.31,1.33-.61,2.6-.85,3.82l-.34,1.73,1.65-.64c5.23-2.01,10.46-2.86,15.54-2.52,4.56,.3,7.31,1.6,8.66,4.07,1.11,2.02,1.28,3.9,.54,5.76Z"/></g><g><path d="M44.72,75.97l-4.92-13.54c-.18-.5-.73-.76-1.24-.58-.5,.18-.76,.74-.58,1.24l4.92,13.54c.18,.51,.74,.77,1.24,.58,.09-.03,.18-.08,.25-.13,.34-.25,.48-.7,.33-1.11Zm0,0l-4.92-13.54c-.18-.5-.73-.76-1.24-.58-.5,.18-.76,.74-.58,1.24l4.92,13.54c.18,.51,.74,.77,1.24,.58,.09-.03,.18-.08,.25-.13,.34-.25,.48-.7,.33-1.11Zm0,0l-4.92-13.54c-.18-.5-.73-.76-1.24-.58-.5,.18-.76,.74-.58,1.24l4.92,13.54c.18,.51,.74,.77,1.24,.58,.09-.03,.18-.08,.25-.13,.34-.25,.48-.7,.33-1.11Zm0,0l-4.92-13.54c-.18-.5-.73-.76-1.24-.58-.5,.18-.76,.74-.58,1.24l4.92,13.54c.18,.51,.74,.77,1.24,.58,.09-.03,.18-.08,.25-.13,.34-.25,.48-.7,.33-1.11Zm38.41,28.69c-.14,.6-.36,1.16-.65,1.67-.1,.17-.2,.34-.33,.5-1.02,1.46-2.66,2.38-4.79,2.68-5.64,.78-11.61-2.28-16.88-4.98-1.07-.55-2.1-1.08-3.11-1.57-1.61-.78-3.21-1.58-4.81-2.39-.08-.06-.16-.1-.25-.13-1.65-.84-3.28-1.69-4.89-2.56-.47-.26-1.06-.08-1.31,.39-.26,.47-.08,1.06,.39,1.31,1.57,.85,3.16,1.68,4.76,2.5,1.09,2.59,2.26,5.35,3.43,8.1l3.26,7.7c1.77,3.84-.19,8.69-4.48,11.05-4.57,2.51-10.32,1.33-12.58-2.58l-18.75-45.87c-2.84-6.14,.07-12.65,3.02-17.03,4.59-6.83,10.4-12.79,15.54-15.95,3.18-1.96,6.68-2.53,9.85-1.62,3.04,.87,5.59,3.11,7.16,6.29,1.57,3.16,2.18,7.17,1.84,11.9-.48,6.44-2.49,12.77-5.82,18.3-.27,.46-.13,1.05,.33,1.33,.46,.27,1.06,.13,1.33-.33,.88-1.46,1.67-2.97,2.37-4.52,3.89,2.07,7.69,4.32,11.31,6.73,.39,.26,.78,.53,1.17,.79,.3,.2,.59,.41,.88,.6-.07-.86-.12-1.69-.17-2.47-.67-.46-1.35-.91-2.04-1.35-3.35-2.18-6.84-4.22-10.4-6.1,1.63-4.1,2.65-8.44,2.97-12.83,.38-5.17-.29-9.39-2.03-12.91-1.82-3.68-4.79-6.27-8.37-7.3-3.69-1.06-7.74-.41-11.39,1.84-7.73,4.75-13.86,13.13-16.14,16.51-4.62,6.88-5.72,13.43-3.18,18.9l18.75,45.89,.06,.11c2.75,4.84,9.72,6.39,15.23,3.37,.52-.29,1.01-.61,1.47-.95,4.12-3.08,5.81-8.32,3.84-12.58l-3.25-7.67c-.86-2.03-1.71-4.06-2.55-6.02,.87,.43,1.74,.87,2.6,1.29,1,.48,2.03,1.01,3.08,1.55,5.52,2.83,11.78,6.04,18.03,5.18,1.72-.24,3.21-.82,4.4-1.72,.87-.64,1.59-1.46,2.13-2.43,.19-.33,.35-.67,.49-1.03,.29-.72,.48-1.5,.58-2.31-.68,.3-1.39,.55-2.1,.72ZM38.56,61.85c-.5,.18-.76,.74-.58,1.24l4.92,13.54c.18,.51,.74,.77,1.24,.58,.09-.03,.18-.08,.25-.13,.34-.25,.48-.7,.33-1.11l-4.92-13.54c-.18-.5-.73-.76-1.24-.58Zm6.16,14.12l-4.92-13.54c-.18-.5-.73-.76-1.24-.58-.5,.18-.76,.74-.58,1.24l4.92,13.54c.18,.51,.74,.77,1.24,.58,.09-.03,.18-.08,.25-.13,.34-.25,.48-.7,.33-1.11Zm0,0l-4.92-13.54c-.18-.5-.73-.76-1.24-.58-.5,.18-.76,.74-.58,1.24l4.92,13.54c.18,.51,.74,.77,1.24,.58,.09-.03,.18-.08,.25-.13,.34-.25,.48-.7,.33-1.11Z"/><path d="M90.83,36.6c-.06-.54-.54-.92-1.07-.86-.54,.06-.92,.54-.86,1.07l.99,8.85c.06,.54,.54,.92,1.08,.86,.09-.01,.17-.03,.26-.06,.39-.16,.64-.57,.59-1.01l-.99-8.85Zm0,0c-.06-.54-.54-.92-1.07-.86-.54,.06-.92,.54-.86,1.07l.99,8.85c.06,.54,.54,.92,1.08,.86,.09-.01,.17-.03,.26-.06,.39-.16,.64-.57,.59-1.01l-.99-8.85Zm-11.89,68.15c-2.35-.61-4.45-2.8-5.62-5.86-1.06-2.81-1.76-6.26-2.08-10.28-.04-.56-.08-1.11-.12-1.64-.29-.19-.58-.4-.88-.6-.39-.26-.78-.53-1.17-.79,.07,1.01,.14,2.07,.23,3.18,.33,4.21,1.07,7.84,2.21,10.82,1.4,3.7,3.94,6.27,6.94,7.05,1.21,.31,2.46,.35,3.7,.2,.13-.16,.23-.33,.33-.5,.29-.51,.51-1.07,.65-1.67-1.42,.36-2.87,.43-4.19,.09Zm11.89-68.15c-.06-.54-.54-.92-1.07-.86-.54,.06-.92,.54-.86,1.07l.99,8.85c.06,.54,.54,.92,1.08,.86,.09-.01,.17-.03,.26-.06,.39-.16,.64-.57,.59-1.01l-.99-8.85Zm0,0c-.06-.54-.54-.92-1.07-.86-.54,.06-.92,.54-.86,1.07l.99,8.85c.06,.54,.54,.92,1.08,.86,.09-.01,.17-.03,.26-.06,.39-.16,.64-.57,.59-1.01l-.99-8.85Zm29.08,50.3s-.01,.03-.02,.05c-.27,.58-.57,1.13-.91,1.64-1.41,2.11-3.47,3.63-6.15,4.52-5.87,1.95-12.32-.65-14.7-5.92l-.09-.22c-.25-.53-.49-1.08-.88-2.13-.72-1.94-1.45-4.34-2.41-12.35-.19-1.55-.3-2.62-.51-4.67-.07-.66-.14-1.3-.2-1.91-.05-.46-.09-.92-.13-1.37-.23-2.45-.41-4.34-.5-5.32-.04-.47,0-1.09-.4-1.42-.22-.18-.46-.2-.56-.2-.32-.02-.62,.13-.8,.32-.07,.07-.1,.13-.11,.15-.03,.05-.17,.23-.13,.6,0,.03,.01,.15,.03,.35,.03,1,.24,3.06,.71,7.56,.2,2.08,.43,4.22,.68,6.39,.28,2.51,.54,4.64,.76,6.47,.95,7.73,1.23,10.06,.02,13.91-.77,2.47-1.96,5.61-4.32,7.89-1.08,1.05-2.51,2.02-4.06,2.7-.68,.3-1.39,.55-2.1,.72-1.42,.36-2.87,.43-4.19,.09-2.35-.61-4.45-2.8-5.62-5.86-1.06-2.81-1.76-6.26-2.08-10.28-.04-.56-.08-1.11-.12-1.64-.07-.86-.12-1.69-.17-2.47-.43-6.61-.46-10.56-.46-10.6v-.63c-.03-4.32-.05-7.73-.03-10.44,.02-2.88,.09-4.63,.26-6.93,.61-8.34,2.41-20.28,10.85-27.73,3.37-2.97,7.72-4.79,11.92-4.99,4.51-.21,8.44,1.75,11.69,5.83,4.67,5.86,7.27,14.14,9.57,21.44l.02,.09c.47,1.49,.9,2.98,1.31,4.47,.44,1.55,.84,3.11,1.23,4.65l.76-4.79c-.39-1.45-.81-2.9-1.27-4.35-.05-.19-.11-.38-.17-.57l-.03-.08c-2.35-7.46-5.01-15.92-9.9-22.07-3.66-4.59-8.14-6.8-13.3-6.56-4.64,.22-9.42,2.21-13.12,5.47-8.97,7.92-10.86,20.37-11.5,29.05-.17,2.35-.24,4.13-.27,7.06-.02,2.72,0,6.14,.03,10.46v.63s.03,3.46,.37,9.24c.05,.77,.1,1.58,.16,2.43,.07,1.01,.14,2.07,.23,3.18,.33,4.21,1.07,7.84,2.21,10.82,1.4,3.7,3.94,6.27,6.94,7.05,1.21,.31,2.46,.35,3.7,.2,.85-.1,1.69-.3,2.5-.58,2.34-.77,4.49-2.15,5.99-3.61,2.67-2.59,3.99-6.01,4.83-8.71,.64-2.02,.89-3.68,.89-5.72v-.23c2.78,6.17,10.28,9.24,17.08,6.98,.36-.12,.71-.25,1.05-.39,2.77-1.13,4.9-2.91,6.37-5.31,.29-.48,.56-.98,.8-1.51,.04-.09,.08-.17,.11-.26-.65-.14-1.27-.34-1.86-.59Zm-30.15-51.16c-.54,.06-.92,.54-.86,1.07l.99,8.85c.06,.54,.54,.92,1.08,.86,.09-.01,.17-.03,.26-.06,.39-.16,.64-.57,.59-1.01l-.99-8.85c-.06-.54-.54-.92-1.07-.86Zm1.07,.86c-.06-.54-.54-.92-1.07-.86-.54,.06-.92,.54-.86,1.07l.99,8.85c.06,.54,.54,.92,1.08,.86,.09-.01,.17-.03,.26-.06,.39-.16,.64-.57,.59-1.01l-.99-8.85Zm0,0c-.06-.54-.54-.92-1.07-.86-.54,.06-.92,.54-.86,1.07l.99,8.85c.06,.54,.54,.92,1.08,.86,.09-.01,.17-.03,.26-.06,.39-.16,.64-.57,.59-1.01l-.99-8.85Zm0,0c-.06-.54-.54-.92-1.07-.86-.54,.06-.92,.54-.86,1.07l.99,8.85c.06,.54,.54,.92,1.08,.86,.09-.01,.17-.03,.26-.06,.39-.16,.64-.57,.59-1.01l-.99-8.85Zm0,0c-.06-.54-.54-.92-1.07-.86-.54,.06-.92,.54-.86,1.07l.99,8.85c.06,.54,.54,.92,1.08,.86,.09-.01,.17-.03,.26-.06,.39-.16,.64-.57,.59-1.01l-.99-8.85Z"/><path d="M78.45,106.63c-3-.78-5.54-3.35-6.94-7.05-1.14-2.98-1.88-6.61-2.21-10.82-.09-1.11-.16-2.17-.23-3.18-3.62-2.41-7.42-4.66-11.31-6.73-.7,1.55-1.49,3.06-2.37,4.52-.27,.46-.87,.6-1.33,.33-.46-.28-.6-.87-.33-1.33,3.33-5.53,5.34-11.86,5.82-18.3,.34-4.73-.27-8.74-1.84-11.9-1.57-3.18-4.12-5.42-7.16-6.29-3.17-.91-6.67-.34-9.85,1.62-5.14,3.16-10.95,9.12-15.54,15.95-2.95,4.38-5.86,10.89-3.02,17.03l18.75,45.87c2.26,3.91,8.01,5.09,12.58,2.58,4.29-2.36,6.25-7.21,4.48-11.05l-3.26-7.7c-1.17-2.75-2.34-5.51-3.43-8.1-1.6-.82-3.19-1.65-4.76-2.5-.47-.25-.65-.84-.39-1.31,.25-.47,.84-.65,1.31-.39,1.61,.87,3.24,1.72,4.89,2.56,.09,.03,.17,.07,.25,.13,1.6,.81,3.2,1.61,4.81,2.39,1.01,.49,2.04,1.02,3.11,1.57,5.27,2.7,11.24,5.76,16.88,4.98,2.13-.3,3.77-1.22,4.79-2.68-1.24,.15-2.49,.11-3.7-.2Zm-34.06-29.55c-.07,.05-.16,.1-.25,.13-.5,.19-1.06-.07-1.24-.58l-4.92-13.54c-.18-.5,.08-1.06,.58-1.24,.51-.18,1.06,.08,1.24,.58l4.92,13.54c.15,.41,.01,.86-.33,1.11Z"/><path d="M145.73,22.67c-.52-.1-1.03,.24-1.14,.76l-2.83,14.13c-.1,.53,.24,1.04,.76,1.14,.1,.02,.19,.02,.29,.01,.41-.03,.77-.34,.85-.77l2.83-14.13c.11-.52-.23-1.03-.76-1.14Zm0,0c-.52-.1-1.03,.24-1.14,.76l-2.83,14.13c-.1,.53,.24,1.04,.76,1.14,.1,.02,.19,.02,.29,.01,.41-.03,.77-.34,.85-.77l2.83-14.13c.11-.52-.23-1.03-.76-1.14Zm0,0c-.52-.1-1.03,.24-1.14,.76l-2.83,14.13c-.1,.53,.24,1.04,.76,1.14,.1,.02,.19,.02,.29,.01,.41-.03,.77-.34,.85-.77l2.83-14.13c.11-.52-.23-1.03-.76-1.14Zm0,0c-.52-.1-1.03,.24-1.14,.76l-2.83,14.13c-.1,.53,.24,1.04,.76,1.14,.1,.02,.19,.02,.29,.01,.41-.03,.77-.34,.85-.77l2.83-14.13c.11-.52-.23-1.03-.76-1.14Zm19.97-8.73c-2.61-2.83-6.4-4.38-10.69-4.36-9.07,.05-18.66,4.03-22.37,5.74-7.52,3.47-11.86,8.5-12.53,14.49l-3.31,20.71-.72,4.49-3.79,23.75v.12c-.13,4.13,2.67,7.92,6.69,9.71,.6,.27,1.23,.49,1.88,.67,.86,.23,1.76,.37,2.69,.41,.59,.03,1.17,.01,1.75-.04,5.12-.49,9.29-4.1,9.82-8.75l1.2-8.25c.32-2.18,.64-4.35,.95-6.47,.52,.82,1.03,1.65,1.55,2.46,.6,.93,1.21,1.91,1.83,2.92,3.24,5.29,6.92,11.28,12.71,13.79,1.6,.69,3.17,.97,4.66,.82,.72-.07,1.43-.23,2.1-.5,.34-.13,.66-.28,.98-.46,.37-.21,.73-.45,1.07-.72-.05-.01-.1-.03-.15-.05-.64-.25-1.21-.6-1.71-1.02-.05,.04-.1,.07-.16,.1-.59,.33-1.22,.55-1.88,.66-1.29,.22-2.69,.02-4.14-.61-5.23-2.26-8.74-7.98-11.83-13.02-.63-1.02-1.24-2.02-1.85-2.96-.97-1.5-1.93-3.02-2.87-4.54-.03-.09-.09-.17-.15-.24-.97-1.57-1.92-3.15-2.84-4.73-.27-.46-.87-.62-1.33-.35s-.62,.87-.34,1.33c.9,1.53,1.82,3.07,2.76,4.6-.41,2.79-.84,5.75-1.27,8.71l-1.22,8.28c-.47,4.2-4.67,7.32-9.56,7.11-.64-.03-1.26-.11-1.86-.25-.65-.14-1.27-.34-1.86-.59-3.38-1.45-5.76-4.53-5.69-7.9l3.09-19.34,.76-4.79,3.96-24.8c.75-6.73,6.63-10.78,11.42-12.99,7.47-3.45,15.53-5.53,21.57-5.56,3.73-.02,7.02,1.31,9.25,3.73,2.15,2.33,3.16,5.56,2.86,9.1-.31,3.51-1.86,7.25-4.62,11.12-3.75,5.26-8.75,9.62-14.47,12.62-.47,.25-.66,.83-.41,1.3,.25,.48,.83,.66,1.31,.41,1.5-.79,2.96-1.67,4.37-2.63,2.5,4.2,4.77,8.53,6.76,12.91,.07,.15,.14,.3,.2,.45,.39,.85,.73,1.65,1.05,2.41l1.09-2.38c-.18-.42-.37-.84-.57-1.28-.17-.36-.33-.73-.51-1.09-1.91-4.13-4.09-8.21-6.45-12.17,3.52-2.65,6.65-5.83,9.21-9.42,3-4.22,4.63-8.17,4.97-12.08,.35-4.09-.84-7.84-3.36-10.58Zm-21.11,9.49l-2.83,14.13c-.1,.53,.24,1.04,.76,1.14,.1,.02,.19,.02,.29,.01,.41-.03,.77-.34,.85-.77l2.83-14.13c.11-.52-.23-1.03-.76-1.14-.52-.1-1.03,.24-1.14,.76Zm1.14-.76c-.52-.1-1.03,.24-1.14,.76l-2.83,14.13c-.1,.53,.24,1.04,.76,1.14,.1,.02,.19,.02,.29,.01,.41-.03,.77-.34,.85-.77l2.83-14.13c.11-.52-.23-1.03-.76-1.14Zm-31.51,56.33l3.09-19.34c-.39-1.54-.79-3.1-1.23-4.65l-3.79,23.75v.12c-.13,4.13,2.67,7.92,6.69,9.71,.34-.51,.64-1.06,.91-1.64,0-.02,0-.03,.02-.05-3.38-1.45-5.76-4.53-5.69-7.9Zm31.51-56.33c-.52-.1-1.03,.24-1.14,.76l-2.83,14.13c-.1,.53,.24,1.04,.76,1.14,.1,.02,.19,.02,.29,.01,.41-.03,.77-.34,.85-.77l2.83-14.13c.11-.52-.23-1.03-.76-1.14Zm0,0c-.52-.1-1.03,.24-1.14,.76l-2.83,14.13c-.1,.53,.24,1.04,.76,1.14,.1,.02,.19,.02,.29,.01,.41-.03,.77-.34,.85-.77l2.83-14.13c.11-.52-.23-1.03-.76-1.14Zm0,0c-.52-.1-1.03,.24-1.14,.76l-2.83,14.13c-.1,.53,.24,1.04,.76,1.14,.1,.02,.19,.02,.29,.01,.41-.03,.77-.34,.85-.77l2.83-14.13c.11-.52-.23-1.03-.76-1.14Zm0,0c-.52-.1-1.03,.24-1.14,.76l-2.83,14.13c-.1,.53,.24,1.04,.76,1.14,.1,.02,.19,.02,.29,.01,.41-.03,.77-.34,.85-.77l2.83-14.13c.11-.52-.23-1.03-.76-1.14Z"/><path d="M112.28,78.88v-.12s3.8-23.75,3.8-23.75c-.41-1.49-.84-2.98-1.31-4.47l-.02-.09c-2.3-7.3-4.9-15.58-9.57-21.44-3.25-4.08-7.18-6.04-11.69-5.83-4.2,.2-8.55,2.02-11.92,4.99-8.44,7.45-10.24,19.39-10.85,27.73-.17,2.3-.24,4.05-.26,6.93-.02,2.71,0,6.12,.03,10.44v.63s.03,3.99,.46,10.6c.05,.78,.1,1.61,.17,2.47,.04,.53,.08,1.08,.12,1.64,.32,4.02,1.02,7.47,2.08,10.28,1.17,3.06,3.27,5.25,5.62,5.86,1.32,.34,2.77,.27,4.19-.09,.71-.17,1.42-.42,2.1-.72,1.55-.68,2.98-1.65,4.06-2.7,2.36-2.28,3.55-5.42,4.32-7.89,1.21-3.85,.93-6.18-.02-13.91-.22-1.83-.48-3.96-.76-6.47-.25-2.17-.48-4.31-.68-6.39-.47-4.5-.68-6.56-.71-7.56-.02-.2-.03-.32-.03-.35-.04-.37,.1-.55,.13-.6,.01-.02,.04-.08,.11-.15,.18-.19,.48-.34,.8-.32,.1,0,.34,.02,.56,.2,.4,.33,.36,.95,.4,1.42,.09,.98,.27,2.87,.5,5.32,.04,.45,.08,.91,.13,1.37,.06,.61,.13,1.25,.2,1.91,.21,2.05,.32,3.12,.51,4.67,.96,8.01,1.69,10.41,2.41,12.35,.39,1.05,.63,1.6,.88,2.13l.09,.22c2.38,5.27,8.83,7.87,14.7,5.92,2.68-.89,4.74-2.41,6.15-4.52-4.02-1.79-6.82-5.58-6.7-9.71Zm-21.05-32.42c-.09,.03-.17,.05-.26,.06-.54,.06-1.02-.32-1.08-.86l-.99-8.85c-.06-.53,.32-1.01,.86-1.07,.53-.06,1.01,.32,1.07,.86l.99,8.85c.05,.44-.2,.85-.59,1.01Z"/><path d="M201.16,20.15c-.67-2.55-2.5-4.73-4.9-5.83-4.08-1.87-8.72-.57-13.41,3.76-2.22,2.05-3.94,4.3-5,5.83-2.72,3.95-4.72,8.34-6.65,12.59l-9.87,21.69-1.06,2.34-1.6,3.52c-1.58,3.48-3.37,7.41-3.46,11.61-.07,2.82,.89,6.2,3.06,8.5,.54,.58,1.16,1.08,1.85,1.49,.37,.23,.76,.43,1.18,.59,.59,.23,1.2,.4,1.83,.5,2.09,.32,4.38-.08,6.52-1.17,2.75-1.4,4.85-3.69,6.19-5.3,5.88-7.11,9.78-15.91,13.55-24.43,.81-1.82,1.61-3.64,2.43-5.41l.57-1.25c3.16-6.88,6.43-14,8.33-21.52,.61-2.42,1.09-5.01,.44-7.51Zm-2.34,7.03c-1.85,7.34-5.09,14.38-8.21,21.19l-.57,1.24c-.82,1.79-1.63,3.61-2.44,5.44-3.71,8.39-7.56,17.07-13.27,23.97-1.95,2.34-3.72,3.87-5.57,4.81-2.23,1.13-4.63,1.37-6.59,.64-.05-.01-.1-.03-.15-.05-.64-.25-1.21-.6-1.71-1.02-2.23-1.83-3.21-5.05-3.14-7.69,.08-3.8,1.78-7.55,3.28-10.85l.87-1.92,1.09-2.38,10.57-23.25c1.9-4.17,3.86-8.48,6.48-12.29,1-1.45,2.63-3.58,4.71-5.5,2.84-2.62,7.09-5.34,11.27-3.42,1.85,.84,3.31,2.59,3.82,4.55,.54,2.07,.11,4.36-.44,6.53Z"/><path d="M198.82,27.18c-1.85,7.34-5.09,14.38-8.21,21.19l-.57,1.24c-.82,1.79-1.63,3.61-2.44,5.44-3.71,8.39-7.56,17.07-13.27,23.97-1.95,2.34-3.72,3.87-5.57,4.81-2.23,1.13-4.63,1.37-6.59,.64-.05-.01-.1-.03-.15-.05-.64-.25-1.21-.6-1.71-1.02-2.23-1.83-3.21-5.05-3.14-7.69,.08-3.8,1.78-7.55,3.28-10.85l.87-1.92,1.09-2.38,10.57-23.25c1.9-4.17,3.86-8.48,6.48-12.29,1-1.45,2.63-3.58,4.71-5.5,2.84-2.62,7.09-5.34,11.27-3.42,1.85,.84,3.31,2.59,3.82,4.55,.54,2.07,.11,4.36-.44,6.53Z"/><path d="M164.27,15.25c-2.23-2.42-5.52-3.75-9.25-3.73-6.04,.03-14.1,2.11-21.57,5.56-4.79,2.21-10.67,6.26-11.42,12.99l-3.96,24.8-.76,4.79-3.09,19.34c-.07,3.37,2.31,6.45,5.69,7.9,.59,.25,1.21,.45,1.86,.59,.6,.14,1.22,.22,1.86,.25,4.89,.21,9.09-2.91,9.56-7.11l1.22-8.28c.43-2.96,.86-5.92,1.27-8.71-.94-1.53-1.86-3.07-2.76-4.6-.28-.46-.12-1.06,.34-1.33s1.06-.11,1.33,.35c.92,1.58,1.87,3.16,2.84,4.73,.06,.07,.12,.15,.15,.24,.94,1.52,1.9,3.04,2.87,4.54,.61,.94,1.22,1.94,1.85,2.96,3.09,5.04,6.6,10.76,11.83,13.02,1.45,.63,2.85,.83,4.14,.61-2.17-2.3-3.13-5.68-3.06-8.5,.09-4.2,1.88-8.13,3.46-11.61l1.6-3.52c-.06-.15-.13-.3-.2-.45-1.99-4.38-4.26-8.71-6.76-12.91-1.41,.96-2.87,1.84-4.37,2.63-.48,.25-1.06,.07-1.31-.41-.25-.47-.06-1.05,.41-1.3,5.72-3,10.72-7.36,14.47-12.62,2.76-3.87,4.31-7.61,4.62-11.12,.3-3.54-.71-6.77-2.86-9.1Zm-17.78,8.56l-2.83,14.13c-.08,.43-.44,.74-.85,.77-.1,.01-.19,.01-.29-.01-.52-.1-.86-.61-.76-1.14l2.83-14.13c.11-.52,.62-.86,1.14-.76,.53,.11,.87,.62,.76,1.14Z"/><path d="M257.66,40.19c-1.76-1.99-3.79-3-4.66-3.43-6.2-3.08-12.98-5.4-19.39-7.52-.63-.21-1.27-.42-1.92-.64-5.12-1.71-10.42-3.48-15.83-4.06-4.55-.49-8.16-.07-11.03,1.29-1.34,.63-2.44,1.54-3.28,2.69-2.21,3.05-1.49,6.68-1.07,8.1,1.03,3.54,3.75,5.48,5.06,6.41,1.93,1.39,3.28,1.99,4.27,2.33l-16.07,17.59c-1.01,1.21-2.07,2.39-3.11,3.53-2.92,3.25-5.94,6.6-7.96,10.83-1.99,4.17-1.4,8.39,1.62,11.6,1.15,1.22,2.52,2.19,4.02,2.87,2.04,.94,4.31,1.34,6.49,1.08,4.6-.55,8.12-3.5,10.38-5.67,2.05-1.98,3.93-4.17,5.75-6.29,.81-.94,1.62-1.88,2.44-2.8l20.81-23.31c3.87,1.04,8.58,1.83,10.61,2.11,6.27,.86,13.52-1.01,15.59-7.13,1.48-4.37-1.7-8.43-2.72-9.58Zm.89,8.96c-1.96,5.8-9.41,6.39-13.5,5.83-2.08-.29-7.06-1.13-10.93-2.22l-.59-.17-21.6,24.22c-.84,.93-1.65,1.88-2.47,2.83-1.79,2.08-3.64,4.24-5.63,6.15-3.3,3.19-6.16,4.77-9.26,5.14-3.12,.37-6.6-.94-8.86-3.35-2.48-2.63-2.94-5.98-1.29-9.43,1.9-3.98,4.7-7.08,7.66-10.37,1.04-1.15,2.12-2.35,3.13-3.55l18.05-19.77-1.39-.48c-.19-.07-.4-.13-.62-.2-.95-.28-2.26-.66-4.59-2.33-1.21-.86-3.47-2.48-4.32-5.38-.26-.89-.97-3.99,.78-6.41,.64-.88,1.5-1.58,2.54-2.08,2.54-1.2,5.81-1.56,10-1.11,5.19,.56,10.39,2.3,15.42,3.98,.64,.21,1.29,.43,1.93,.64,6.34,2.09,13.04,4.39,19.13,7.41,.83,.41,2.56,1.27,4.07,2.98,.6,.67,3.51,4.21,2.34,7.67Z"/><path d="M258.55,49.15c-1.96,5.8-9.41,6.39-13.5,5.83-2.08-.29-7.06-1.13-10.93-2.22l-.59-.17-21.6,24.22c-.84,.93-1.65,1.88-2.47,2.83-1.79,2.08-3.64,4.24-5.63,6.15-3.3,3.19-6.16,4.77-9.26,5.14-3.12,.37-6.6-.94-8.86-3.35-2.48-2.63-2.94-5.98-1.29-9.43,1.9-3.98,4.7-7.08,7.66-10.37,1.04-1.15,2.12-2.35,3.13-3.55l18.05-19.77-1.39-.48c-.19-.07-.4-.13-.62-.2-.95-.28-2.26-.66-4.59-2.33-1.21-.86-3.47-2.48-4.32-5.38-.26-.89-.97-3.99,.78-6.41,.64-.88,1.5-1.58,2.54-2.08,2.54-1.2,5.81-1.56,10-1.11,5.19,.56,10.39,2.3,15.42,3.98,.64,.21,1.29,.43,1.93,.64,6.34,2.09,13.04,4.39,19.13,7.41,.83,.41,2.56,1.27,4.07,2.98,.6,.67,3.51,4.21,2.34,7.67Z"/><path d="M299.74,79.05c-1.68-3.07-5.04-4.73-10.25-5.08-4.82-.32-9.76,.37-14.7,2.05,.14-.66,.3-1.34,.47-2.04,1.69-7.17,3.79-16.08-3.12-21.41-2.47-1.9-5.59-2.6-8.35-1.88-4.12,1.09-6.78,4.95-8.29,7.99-1.95,3.94-2.43,8.31-2.9,12.53-.11,1.01-.22,2.01-.35,3l-1.19,9.03c-4.99,1.23-10.03,2.57-14.99,4-4.29,1.23-8.66,3.02-12.32,5.03-4.63,2.54-8.54,7.29-6.84,12.17,.56,1.6,1.42,2.88,2.5,3.9,4.06,3.87,11.1,4.07,15.52,3.74,5.37-.33,10.55-1.89,15.11-3.27,1.96-.59,3.92-1.18,5.88-1.77,6.42-1.93,13.06-3.92,19.55-6.02l1.12-.36c6.74-2.15,20.76-6.62,23.79-14.19h0c.96-2.4,.75-4.89-.63-7.42Zm-1.18,6.7c-2.68,6.71-16.61,11.16-22.56,13.05l-1.13,.37c-6.48,2.09-13.1,4.08-19.51,6-1.96,.59-3.92,1.18-5.88,1.77-4.47,1.35-9.52,2.87-14.69,3.19-5.03,.38-13.81,.06-16.04-6.33-1.51-4.36,3.22-8.33,5.94-9.82,3.53-1.95,7.77-3.67,11.92-4.87,5.15-1.47,10.39-2.87,15.57-4.13l.65-.16,1.36-10.35c.13-1.01,.24-2.02,.35-3.04,.45-4.06,.92-8.25,2.71-11.88,1.09-2.2,3.45-6.02,7.04-6.97,2.14-.57,4.69,.02,6.66,1.54,.3,.23,.59,.48,.85,.73,4.87,4.64,3.12,12.08,1.56,18.68-.31,1.33-.61,2.6-.85,3.82l-.34,1.73,1.65-.64c5.23-2.01,10.46-2.86,15.54-2.52,4.56,.3,7.31,1.6,8.66,4.07,1.11,2.02,1.28,3.9,.54,5.76Z"/><path d="M298.56,85.75c-2.68,6.71-16.61,11.16-22.56,13.05l-1.13,.37c-6.48,2.09-13.1,4.08-19.51,6-1.96,.59-3.92,1.18-5.88,1.77-4.47,1.35-9.52,2.87-14.69,3.19-5.03,.38-13.81,.06-16.04-6.33-1.51-4.36,3.22-8.33,5.94-9.82,3.53-1.95,7.77-3.67,11.92-4.87,5.15-1.47,10.39-2.87,15.57-4.13l.65-.16,1.36-10.35c.13-1.01,.24-2.02,.35-3.04,.45-4.06,.92-8.25,2.71-11.88,1.09-2.2,3.45-6.02,7.04-6.97,2.14-.57,4.69,.02,6.66,1.54,.3,.23,.59,.48,.85,.73,4.87,4.64,3.12,12.08,1.56,18.68-.31,1.33-.61,2.6-.85,3.82l-.34,1.73,1.65-.64c5.23-2.01,10.46-2.86,15.54-2.52,4.56,.3,7.31,1.6,8.66,4.07,1.11,2.02,1.28,3.9,.54,5.76Z"/></g><g><path class="c" d="M79.81,98.21c-3-.78-5.54-3.35-6.94-7.05-1.14-2.98-1.88-6.61-2.21-10.82-.09-1.11-.16-2.17-.23-3.18-3.62-2.41-7.42-4.66-11.31-6.73-.7,1.55-1.49,3.06-2.37,4.52-.27,.46-.87,.6-1.33,.33-.46-.28-.6-.87-.33-1.33,3.33-5.53,5.34-11.86,5.82-18.3,.34-4.73-.27-8.74-1.84-11.9-1.57-3.18-4.12-5.42-7.16-6.29-3.17-.91-6.67-.34-9.85,1.62-5.14,3.16-10.95,9.12-15.54,15.95-2.95,4.38-5.86,10.89-3.02,17.03l18.75,45.87c2.26,3.91,8.01,5.09,12.58,2.58,4.29-2.36,6.25-7.21,4.48-11.05l-3.26-7.7c-1.17-2.75-2.34-5.51-3.43-8.1-1.6-.82-3.19-1.65-4.76-2.5-.47-.25-.65-.84-.39-1.31,.25-.47,.84-.65,1.31-.39,1.61,.87,3.24,1.72,4.89,2.56,.09,.03,.17,.07,.25,.13,1.6,.81,3.2,1.61,4.81,2.39,1.01,.49,2.04,1.02,3.11,1.57,5.27,2.7,11.24,5.76,16.88,4.98,2.13-.3,3.77-1.22,4.79-2.68-1.24,.15-2.49,.11-3.7-.2Zm-34.06-29.55c-.07,.05-.16,.1-.25,.13-.5,.19-1.06-.07-1.24-.58l-4.92-13.54c-.18-.5,.08-1.06,.58-1.24,.51-.18,1.06,.08,1.24,.58l4.92,13.54c.15,.41,.01,.86-.33,1.11Z"/><path class="c" d="M113.64,70.46v-.12s3.8-23.75,3.8-23.75c-.41-1.49-.84-2.98-1.31-4.47l-.02-.09c-2.3-7.3-4.9-15.58-9.57-21.44-3.25-4.08-7.18-6.04-11.69-5.83-4.2,.2-8.55,2.02-11.92,4.99-8.44,7.45-10.24,19.39-10.85,27.73-.17,2.3-.24,4.05-.26,6.93-.02,2.71,0,6.12,.03,10.44v.63s.03,3.99,.46,10.6c.05,.78,.1,1.61,.17,2.47,.04,.53,.08,1.08,.12,1.64,.32,4.02,1.02,7.47,2.08,10.28,1.17,3.06,3.27,5.25,5.62,5.86,1.32,.34,2.77,.27,4.19-.09,.71-.17,1.42-.42,2.1-.72,1.55-.68,2.98-1.65,4.06-2.7,2.36-2.28,3.55-5.42,4.32-7.89,1.21-3.85,.93-6.18-.02-13.91-.22-1.83-.48-3.96-.76-6.47-.25-2.17-.48-4.31-.68-6.39-.47-4.5-.68-6.56-.71-7.56-.02-.2-.03-.32-.03-.35-.04-.37,.1-.55,.13-.6,.01-.02,.04-.08,.11-.15,.18-.19,.48-.34,.8-.32,.1,0,.34,.02,.56,.2,.4,.33,.36,.95,.4,1.42,.09,.98,.27,2.87,.5,5.32,.04,.45,.08,.91,.13,1.37,.06,.61,.13,1.25,.2,1.91,.21,2.05,.32,3.12,.51,4.67,.96,8.01,1.69,10.41,2.41,12.35,.39,1.05,.63,1.6,.88,2.13l.09,.22c2.38,5.27,8.83,7.87,14.7,5.92,2.68-.89,4.74-2.41,6.15-4.52-4.02-1.79-6.82-5.58-6.7-9.71Zm-21.05-32.42c-.09,.03-.17,.05-.26,.06-.54,.06-1.02-.32-1.08-.86l-.99-8.85c-.06-.53,.32-1.01,.86-1.07,.53-.06,1.01,.32,1.07,.86l.99,8.85c.05,.44-.2,.85-.59,1.01Z"/><path class="c" d="M200.18,18.76c-1.85,7.34-5.09,14.38-8.21,21.19l-.57,1.24c-.82,1.79-1.63,3.61-2.44,5.44-3.71,8.39-7.56,17.07-13.27,23.97-1.95,2.34-3.72,3.87-5.57,4.81-2.23,1.13-4.63,1.37-6.59,.64-.05-.01-.1-.03-.15-.05-.64-.25-1.21-.6-1.71-1.02-2.23-1.83-3.21-5.05-3.14-7.69,.08-3.8,1.78-7.55,3.28-10.85l.87-1.92,1.09-2.38,10.57-23.25c1.9-4.17,3.86-8.48,6.48-12.29,1-1.45,2.63-3.58,4.71-5.5,2.84-2.62,7.09-5.34,11.27-3.42,1.85,.84,3.31,2.59,3.82,4.55,.54,2.07,.11,4.36-.44,6.53Z"/><path class="c" d="M165.63,6.83c-2.23-2.42-5.52-3.75-9.25-3.73-6.04,.03-14.1,2.11-21.57,5.56-4.79,2.21-10.67,6.26-11.42,12.99l-3.96,24.8-.76,4.79-3.09,19.34c-.07,3.37,2.31,6.45,5.69,7.9,.59,.25,1.21,.45,1.86,.59,.6,.14,1.22,.22,1.86,.25,4.89,.21,9.09-2.91,9.56-7.11l1.22-8.28c.43-2.96,.86-5.92,1.27-8.71-.94-1.53-1.86-3.07-2.76-4.6-.28-.46-.12-1.06,.34-1.33s1.06-.11,1.33,.35c.92,1.58,1.87,3.16,2.84,4.73,.06,.07,.12,.15,.15,.24,.94,1.52,1.9,3.04,2.87,4.54,.61,.94,1.22,1.94,1.85,2.96,3.09,5.04,6.6,10.76,11.83,13.02,1.45,.63,2.85,.83,4.14,.61-2.17-2.3-3.13-5.68-3.06-8.5,.09-4.2,1.88-8.13,3.46-11.61l1.6-3.52c-.06-.15-.13-.3-.2-.45-1.99-4.38-4.26-8.71-6.76-12.91-1.41,.96-2.87,1.84-4.37,2.63-.48,.25-1.06,.07-1.31-.41-.25-.47-.06-1.05,.41-1.3,5.72-3,10.72-7.36,14.47-12.62,2.76-3.87,4.31-7.61,4.62-11.12,.3-3.54-.71-6.77-2.86-9.1Zm-17.78,8.56l-2.83,14.13c-.08,.43-.44,.74-.85,.77-.1,.01-.19,.01-.29-.01-.52-.1-.86-.61-.76-1.14l2.83-14.13c.11-.52,.62-.86,1.14-.76,.53,.11,.87,.62,.76,1.14Z"/><path class="c" d="M259.91,40.73c-1.96,5.8-9.41,6.39-13.5,5.83-2.08-.29-7.06-1.13-10.93-2.22l-.59-.17-21.6,24.22c-.84,.93-1.65,1.88-2.47,2.83-1.79,2.08-3.64,4.24-5.63,6.15-3.3,3.19-6.16,4.77-9.26,5.14-3.12,.37-6.6-.94-8.86-3.35-2.48-2.63-2.94-5.98-1.29-9.43,1.9-3.98,4.7-7.08,7.66-10.37,1.04-1.15,2.12-2.35,3.13-3.55l18.05-19.77-1.39-.48c-.19-.07-.4-.13-.62-.2-.95-.28-2.26-.66-4.59-2.33-1.21-.86-3.47-2.48-4.32-5.38-.26-.89-.97-3.99,.78-6.41,.64-.88,1.5-1.58,2.54-2.08,2.54-1.2,5.81-1.56,10-1.11,5.19,.56,10.39,2.3,15.42,3.98,.64,.21,1.29,.43,1.93,.64,6.34,2.09,13.04,4.39,19.13,7.41,.83,.41,2.56,1.27,4.07,2.98,.6,.67,3.51,4.21,2.34,7.67Z"/><path class="c" d="M299.92,77.33c-2.68,6.71-16.61,11.16-22.56,13.05l-1.13,.37c-6.48,2.09-13.1,4.08-19.51,6-1.96,.59-3.92,1.18-5.88,1.77-4.47,1.35-9.52,2.87-14.69,3.19-5.03,.38-13.81,.06-16.04-6.33-1.51-4.36,3.22-8.33,5.94-9.82,3.53-1.95,7.77-3.67,11.92-4.87,5.15-1.47,10.39-2.87,15.57-4.13l.65-.16,1.36-10.35c.13-1.01,.24-2.02,.35-3.04,.45-4.06,.92-8.25,2.71-11.88,1.09-2.2,3.45-6.02,7.04-6.97,2.14-.57,4.69,.02,6.66,1.54,.3,.23,.59,.48,.85,.73,4.87,4.64,3.12,12.08,1.56,18.68-.31,1.33-.61,2.6-.85,3.82l-.34,1.73,1.65-.64c5.23-2.01,10.46-2.86,15.54-2.52,4.56,.3,7.31,1.6,8.66,4.07,1.11,2.02,1.28,3.9,.54,5.76Z"/></g></svg>