<svg width="208" height="131" viewBox="0 0 208 131" fill="none" xmlns="http://www.w3.org/2000/svg">
<path opacity="0.7" d="M53.238 39.9179C53.7763 42.9708 56.3771 44.7055 59.3315 44.1846C61.5571 43.7921 62.7519 42.1599 62.7519 42.1599L61.9607 41.2433C61.9607 41.2433 60.9711 42.6566 59.159 42.9762C57.1106 43.3373 55.1342 42.2642 54.6271 39.7338L62.2299 38.3933C62.2299 38.3933 62.1894 37.9333 62.1477 37.697C61.7136 35.235 59.9435 33.374 57.2058 33.8568C54.5271 34.3291 52.665 36.668 53.238 39.9179ZM54.4917 38.6204C54.4561 36.5756 55.7099 35.2781 57.3643 34.9864C58.8416 34.7259 60.2723 35.4688 60.7157 37.523L54.4917 38.6204ZM63.4177 40.4381C63.765 42.4077 65.6487 43.0707 67.3032 42.7789C69.7849 42.3413 70.2336 40.0486 70.2336 40.0486L70.273 40.0417C70.273 40.0417 70.2926 40.3834 70.3795 40.8758L70.5705 41.9591L71.8507 41.7334L70.7324 35.3912C70.2948 32.9095 68.7425 31.8226 66.3593 32.2428C64.1336 32.6352 63.0316 33.9871 63.0316 33.9871L63.8425 34.9002C63.8425 34.9002 64.8378 33.7499 66.4726 33.4616C67.8908 33.2116 69.0493 33.6775 69.3861 35.588L69.4313 35.844L68.8798 35.9413C67.1662 36.2434 62.8273 37.0897 63.4177 40.4381ZM64.7825 40.1162C64.397 37.9299 67.4986 37.3221 69.0546 37.0477L69.6258 36.947L69.7022 37.3803C70.0043 39.0939 69.2092 41.265 67.3184 41.5984C65.8412 41.8588 64.9457 41.0419 64.7825 40.1162ZM73.949 41.3634L75.2883 41.1272L74.552 36.9517C74.4409 36.3214 74.4016 35.6378 74.4874 34.9728C74.6638 33.4389 75.5132 32.1518 76.9116 31.9053C77.1676 31.8601 77.4109 31.8578 77.4109 31.8578L77.1783 30.5382C77.1783 30.5382 76.9118 30.5242 76.636 30.5729C75.08 30.8472 74.1785 32.1841 73.9697 33.7644L73.9303 33.7713C73.9303 33.7713 73.9072 33.4098 73.8308 32.9765L73.5217 31.2235L72.2021 31.4562L73.949 41.3634ZM79.9848 40.2991L81.3241 40.063L80.4871 35.3162C80.4038 34.8435 80.3633 34.3835 80.4085 33.9491C80.5733 32.2344 81.8259 30.8153 83.5198 30.5167C85.4303 30.1798 85.9097 31.5168 86.1841 33.0728L87.2329 39.0211L88.5723 38.7849L87.4609 32.4821C87.0303 30.0398 85.9171 28.7942 83.4748 29.2249C81.1309 29.6381 80.1517 31.4558 79.9569 32.4243L79.9175 32.4313C79.9175 32.4313 79.8944 32.0698 79.818 31.6365L79.5575 30.1593L78.2379 30.392L79.9848 40.2991ZM94.2955 36.1917C94.2955 36.1917 95.9254 37.4884 98.4616 37.2443L98.7845 39.076L99.8875 38.8815L99.5645 37.0498C101.791 36.4337 102.873 34.6184 102.536 32.7079C101.747 28.2368 94.9266 30.2113 94.3674 27.0402C94.1521 25.819 95.0699 24.459 96.8622 24.1429C98.6546 23.8269 100.104 24.7899 100.104 24.7899L100.572 23.5294C100.572 23.5294 99.1981 22.5329 97.0501 22.7898L96.7271 20.958L95.6241 21.1525L95.9541 23.0236C93.8164 23.6849 92.6564 25.5141 92.976 27.3261C93.7192 31.5411 100.57 29.6223 101.164 32.9904C101.428 34.4873 100.347 35.6121 98.8302 35.8795C96.6439 36.265 94.9387 35.0019 94.9387 35.0019L94.2955 36.1917ZM104.959 35.8955L106.298 35.6594L105.461 30.9126C105.378 30.4399 105.337 29.9799 105.386 29.5652C105.547 27.8308 106.8 26.4117 108.494 26.1131C110.404 25.7762 110.884 27.1132 111.158 28.6692L112.207 34.6175L113.546 34.3813L112.435 28.0785C112.004 25.6362 110.891 24.3906 108.449 24.8212C106.204 25.2172 105.151 26.9665 104.944 27.9779L104.904 27.9848C104.904 27.9848 104.881 27.6233 104.801 27.1703L103.857 21.813L102.517 22.0491L104.959 35.8955ZM114.366 31.4545C114.713 33.4241 116.597 34.0871 118.252 33.7954C120.733 33.3578 121.182 31.065 121.182 31.065L121.221 31.0581C121.221 31.0581 121.241 31.3999 121.328 31.8923L121.519 32.9755L122.799 32.7498L121.681 26.4076C121.243 23.9259 119.691 22.839 117.308 23.2592C115.082 23.6516 113.98 25.0035 113.98 25.0035L114.791 25.9166C114.791 25.9166 115.786 24.7663 117.421 24.478C118.839 24.228 119.998 24.6939 120.335 26.6044L120.38 26.8605L119.828 26.9577C118.115 27.2599 113.776 28.1062 114.366 31.4545ZM115.731 31.1326C115.345 28.9463 118.447 28.3385 120.003 28.0642L120.574 27.9634L120.651 28.3968C120.953 30.1103 120.158 32.2814 118.267 32.6148C116.79 32.8752 115.894 32.0583 115.731 31.1326ZM123.372 27.531C123.914 30.6036 125.944 32.4391 128.603 31.9702C131.202 31.5118 131.659 29.3801 131.659 29.3801L131.699 29.3731C131.699 29.3731 131.708 29.6558 131.784 30.0891L131.968 31.133L133.268 30.9038L130.827 17.0574L129.487 17.2936L130.338 22.1191C130.411 22.5328 130.51 22.8606 130.51 22.8606L130.47 22.8676C130.47 22.8676 129.313 21.1423 126.91 21.566C124.31 22.0245 122.82 24.3993 123.372 27.531ZM124.751 27.2879C124.31 24.7865 125.487 23.0557 127.24 22.7466C129.367 22.3716 130.739 24.1606 131.093 26.1696C131.59 28.9861 130.242 30.4423 128.588 30.734C126.736 31.0605 125.182 29.7302 124.751 27.2879ZM133.95 25.6862C134.488 28.7391 137.089 30.4738 140.043 29.9529C142.269 29.5604 143.464 27.9282 143.464 27.9282L142.673 27.0116C142.673 27.0116 141.683 28.4249 139.871 28.7445C137.823 29.1057 135.846 28.0325 135.339 25.5022L142.942 24.1616C142.942 24.1616 142.901 23.7016 142.86 23.4653C142.426 21.0033 140.655 19.1424 137.918 19.6251C135.239 20.0974 133.377 22.4363 133.95 25.6862ZM135.204 24.3888C135.168 22.3439 136.422 21.0465 138.076 20.7547C139.553 20.4942 140.984 21.2371 141.428 23.2913L135.204 24.3888ZM144.394 27.7033C144.394 27.7033 145.908 28.9189 148.311 28.4952C150.3 28.1444 151.493 26.7357 151.209 25.1206C150.632 21.8511 145.399 23.3831 145.013 21.1969C144.819 20.0939 145.707 19.4904 146.712 19.3133C148.347 19.025 149.353 19.7817 149.353 19.7817L149.783 18.6498C149.783 18.6498 148.627 17.7367 146.539 18.1049C144.747 18.4209 143.322 19.6673 143.634 21.44C144.204 24.6701 149.448 23.1972 149.83 25.3638C150.014 26.4076 149.182 27.1027 148.118 27.2902C146.267 27.6167 144.952 26.6097 144.952 26.6097L144.394 27.7033ZM9.65369 78.0861L10.9536 77.8568L10.7974 76.9705C10.714 76.4978 10.6156 76.1699 10.6156 76.1699L10.655 76.163C10.655 76.163 11.8816 77.9369 14.2452 77.5202C16.8451 77.0617 18.355 74.6834 17.8028 71.5517C17.261 68.4791 15.2315 66.6437 12.5725 67.1125C10.0317 67.5605 9.54133 69.6169 9.54133 69.6169L9.50194 69.6239C9.50194 69.6239 9.47882 69.2624 9.39894 68.8094L8.55154 64.0035L7.2122 64.2397L9.65369 78.0861ZM10.0854 72.9328C9.58876 70.1163 10.9364 68.6601 12.5909 68.3684C14.4423 68.0419 15.9969 69.3722 16.4241 71.7948C16.8686 74.3159 15.6913 76.0467 13.9383 76.3558C11.8111 76.7308 10.4362 74.9221 10.0854 72.9328ZM19.4152 80.0204C19.4152 80.0204 20.2285 80.4862 21.2527 80.3056C22.5723 80.073 23.4541 79.0848 23.744 77.734L26.517 64.8974L25.0595 65.1544L23.4782 72.8865C23.368 73.4136 23.3274 73.9894 23.3274 73.9894L23.288 73.9964C23.288 73.9964 23.0332 73.4726 22.7494 73.015L18.5598 66.3005L17.0826 66.561L22.9518 75.66L22.5878 77.1661C22.3536 78.1416 21.8681 78.9583 21.0014 79.1111C20.3712 79.2223 19.7398 78.8665 19.7398 78.8665L19.4152 80.0204ZM32.3966 72.837C32.3966 72.837 33.9107 74.0526 36.3136 73.6289C38.303 73.2781 39.4965 71.8695 39.2117 70.2544C38.6352 66.9848 33.4017 68.5169 33.0162 66.3306C32.8217 65.2276 33.7104 64.6241 34.7149 64.447C36.3497 64.1588 37.3564 64.9154 37.3564 64.9154L37.7864 63.7836C37.7864 63.7836 36.6303 62.8705 34.5425 63.2386C32.7501 63.5546 31.3249 64.8011 31.6375 66.5737C32.207 69.8039 37.4509 68.3309 37.833 70.4975C38.017 71.5414 37.1851 72.2364 36.1215 72.424C34.27 72.7504 32.9552 71.7434 32.9552 71.7434L32.3966 72.837ZM40.9024 68.8596C41.4858 72.1686 43.8563 72.1365 44.9986 71.935C45.3532 71.8725 45.5629 71.7949 45.5629 71.7949L45.351 70.5935C45.351 70.5935 45.1807 70.6641 44.905 70.7127C44.1565 70.8447 42.6272 70.8097 42.2174 68.4856L41.3492 63.5615L43.8309 63.1239L43.6329 62.0013L41.1512 62.4389L40.6476 59.5829L39.328 59.8156L39.8316 62.6715L38.5119 62.9042L38.7099 64.0269L40.0098 63.7977L40.9024 68.8596ZM45.493 68.9844C45.8403 70.954 47.724 71.6169 49.3785 71.3252C51.8602 70.8876 52.3089 68.5949 52.3089 68.5949L52.3483 68.5879C52.3483 68.5879 52.3679 68.9297 52.4548 69.4221L52.6458 70.5054L53.926 70.2797L52.8077 63.9375C52.3701 61.4558 50.8178 60.3688 48.4346 60.789C46.2089 61.1815 45.1069 62.5334 45.1069 62.5334L45.9178 63.4465C45.9178 63.4465 46.9132 62.2961 48.5479 62.0079C49.9661 61.7578 51.1246 62.2237 51.4615 64.1343L51.5066 64.3903L50.9551 64.4876C49.2415 64.7897 44.9026 65.636 45.493 68.9844ZM46.8578 68.6625C46.4723 66.4762 49.5739 65.8684 51.1299 65.594L51.7011 65.4933L51.7775 65.9266C52.0796 67.6402 51.2846 69.8112 49.3937 70.1446C47.9165 70.4051 47.0211 69.5882 46.8578 68.6625ZM56.0243 69.9097L57.3636 69.6735L56.4884 64.7101L58.0838 64.4288L62.268 68.8087L63.8634 68.5274L59.1023 63.6399L59.0954 63.6005L61.7816 58.6793L60.1665 58.9641L57.8592 63.2702L56.2835 63.548L54.9221 55.8271L53.5828 56.0633L56.0243 69.9097ZM62.7403 56.1748L64.1388 55.9282L63.8436 54.254L62.4451 54.5006L62.7403 56.1748ZM64.926 68.3401L66.2654 68.1039L64.5185 58.1967L63.1791 58.4329L64.926 68.3401ZM68.519 67.7065L69.8584 67.4704L69.0214 62.7236C68.938 62.2509 68.8976 61.7909 68.9428 61.3565C69.1076 59.6418 70.3602 58.2227 72.054 57.924C73.9646 57.5872 74.444 58.9242 74.7184 60.4802L75.7672 66.4285L77.1066 66.1923L75.9952 59.8895C75.5646 57.4472 74.4514 56.2016 72.009 56.6322C69.6652 57.0455 68.6859 58.8632 68.4912 59.8317L68.4518 59.8387C68.4518 59.8387 68.4287 59.4772 68.3522 59.0439L68.0918 57.5667L66.7721 57.7993L68.519 67.7065ZM80.354 67.9349L80.0363 69.1282C81.0883 69.4504 82.2827 69.5444 83.4251 69.343C85.8478 68.9158 87.9566 67.2848 87.4009 64.1334L85.6957 54.4626L84.3957 54.6918L84.5867 55.7751C84.6249 55.9918 84.6655 56.1065 84.6655 56.1065L84.6261 56.1134C84.6261 56.1134 83.6844 54.5736 81.0648 55.0355C78.4058 55.5043 77.1288 57.8213 77.6532 60.7954C78.1776 63.7695 80.3022 65.5679 82.9611 65.0991C84.4974 64.8282 85.3908 64.0208 85.7872 62.8136L85.8266 62.8066C85.8266 62.8066 85.8462 63.1484 85.9122 63.5227L86.072 64.4287C86.461 66.6346 85.0844 67.8116 83.1542 68.1519C81.6967 68.4089 80.354 67.9349 80.354 67.9349ZM82.9659 63.8594C80.9963 64.2067 79.4452 62.8961 79.0284 60.5326C78.6117 58.169 79.4878 56.5727 81.418 56.2323C83.171 55.9232 84.706 56.5664 85.2165 59.4618C85.7305 62.3768 84.5219 63.585 82.9659 63.8594ZM92.3824 58.3404C92.9102 61.3342 95.65 63.1663 98.5453 62.6558C101.441 62.1452 103.389 59.4866 102.861 56.4928C102.343 53.5581 99.6104 51.7654 96.7151 52.2759C93.8197 52.7864 91.8649 55.4057 92.3824 58.3404ZM93.7611 58.0973C93.3652 55.8519 94.8032 53.8721 96.9304 53.4971C99.0576 53.122 101.086 54.4905 101.482 56.7359C101.888 59.0403 100.461 61.0792 98.3335 61.4543C96.2063 61.8294 94.1674 60.4017 93.7611 58.0973ZM105.261 61.2279L106.6 60.9918L105.763 56.245C105.68 55.7723 105.639 55.3123 105.685 54.8779C105.849 53.1632 107.102 51.7442 108.796 51.4455C110.706 51.1086 111.186 52.4457 111.46 54.0017L112.509 59.9499L113.848 59.7137L112.737 53.411C112.306 50.9686 111.193 49.723 108.751 50.1537C106.407 50.567 105.428 52.3846 105.233 53.3531L105.194 53.3601C105.194 53.3601 105.17 52.9986 105.094 52.5653L104.834 51.0881L103.514 51.3208L105.261 61.2279ZM120.256 58.5839L121.595 58.3477L120.758 53.6009C120.675 53.1282 120.635 52.6683 120.683 52.2535C120.845 50.5192 122.097 49.1001 123.791 48.8014C125.702 48.4645 126.181 49.8016 126.455 51.3576L127.504 57.3058L128.844 57.0697L127.732 50.7669C127.302 48.3246 126.188 47.079 123.746 47.5096C121.501 47.9055 120.448 49.6548 120.241 50.6662L120.202 50.6732C120.202 50.6732 120.178 50.3117 120.099 49.8587L119.154 44.5013L117.815 44.7375L120.256 58.5839ZM129.663 54.1429C130.011 56.1125 131.894 56.7754 133.549 56.4837C136.031 56.0461 136.479 53.7534 136.479 53.7534L136.519 53.7464C136.519 53.7464 136.538 54.0882 136.625 54.5806L136.816 55.6639L138.096 55.4382L136.978 49.096C136.54 46.6143 134.988 45.5273 132.605 45.9476C130.379 46.34 129.277 47.6919 129.277 47.6919L130.088 48.605C130.088 48.605 131.083 47.4546 132.718 47.1664C134.136 46.9163 135.295 47.3822 135.632 49.2928L135.677 49.5488L135.125 49.6461C133.412 49.9482 129.073 50.7945 129.663 54.1429ZM131.028 53.821C130.643 51.6347 133.744 51.0269 135.3 50.7525L135.871 50.6518L135.948 51.0851C136.25 52.7987 135.455 54.9697 133.564 55.3031C132.087 55.5636 131.191 54.7467 131.028 53.821ZM138.669 50.2194C139.211 53.292 141.241 55.1274 143.9 54.6586C146.5 54.2001 146.956 52.0684 146.956 52.0684L146.996 52.0615C146.996 52.0615 147.005 52.3442 147.081 52.7775L147.265 53.8214L148.565 53.5922L146.124 39.7458L144.785 39.9819L145.635 44.8075C145.708 45.2211 145.807 45.549 145.807 45.549L145.767 45.5559C145.767 45.5559 144.61 43.8307 142.207 44.2544C139.607 44.7128 138.117 47.0877 138.669 50.2194ZM140.048 49.9762C139.607 47.4748 140.784 45.7441 142.537 45.435C144.665 45.0599 146.036 46.8489 146.39 48.858C146.887 51.6745 145.539 53.1306 143.885 53.4224C142.033 53.7488 140.479 52.4186 140.048 49.9762ZM149.247 48.3745C149.785 51.4274 152.386 53.1622 155.341 52.6412C157.566 52.2488 158.761 50.6165 158.761 50.6165L157.97 49.7C157.97 49.7 156.98 51.1133 155.168 51.4328C153.12 51.794 151.143 50.7209 150.636 48.1905L158.239 46.8499C158.239 46.8499 158.198 46.39 158.157 46.1536C157.723 43.6916 155.953 41.8307 153.215 42.3135C150.536 42.7858 148.674 45.1247 149.247 48.3745ZM150.501 47.0771C150.465 45.0322 151.719 43.7348 153.373 43.4431C154.851 43.1826 156.281 43.9254 156.725 45.9797L150.501 47.0771ZM159.691 50.3917C159.691 50.3917 161.205 51.6072 163.608 51.1835C165.597 50.8327 166.791 49.4241 166.506 47.809C165.929 44.5394 160.696 46.0715 160.31 43.8852C160.116 42.7822 161.005 42.1787 162.009 42.0016C163.644 41.7134 164.651 42.4701 164.651 42.4701L165.08 41.3382C165.08 41.3382 163.924 40.4251 161.837 40.7932C160.044 41.1093 158.619 42.3557 158.932 44.1283C159.501 47.3585 164.745 45.8855 165.127 48.0521C165.311 49.096 164.479 49.791 163.416 49.9786C161.564 50.305 160.249 49.298 160.249 49.298L159.691 50.3917ZM170.526 49.72L171.983 49.463L173.163 41.9846C173.233 41.4644 173.271 40.8689 173.271 40.8689L173.31 40.8619C173.31 40.8619 173.549 41.4088 173.813 41.8699L177.479 48.494L178.936 48.237L180.538 37.7394L179.119 37.9895L178.019 45.7992C177.948 46.3194 177.911 46.9149 177.911 46.9149L177.872 46.9219C177.872 46.9219 177.63 46.3553 177.389 45.9104L173.651 38.9944L172.331 39.227L171.184 47.0044C171.11 47.5048 171.076 48.12 171.076 48.12L171.037 48.127C171.037 48.127 170.795 47.5604 170.554 47.1155L166.849 40.1531L165.431 40.4032L170.526 49.72ZM181.962 44.9212C182.309 46.8908 184.193 47.5538 185.847 47.262C188.329 46.8245 188.778 44.5317 188.778 44.5317L188.817 44.5248C188.817 44.5248 188.837 44.8665 188.924 45.3589L189.115 46.4422L190.395 46.2165L189.277 39.8743C188.839 37.3926 187.287 36.3057 184.904 36.7259C182.678 37.1183 181.576 38.4702 181.576 38.4702L182.387 39.3833C182.387 39.3833 183.382 38.233 185.017 37.9447C186.435 37.6947 187.594 38.1606 187.93 40.0711L187.976 40.3271L187.424 40.4244C185.711 40.7265 181.372 41.5728 181.962 44.9212ZM183.327 44.5993C182.941 42.413 186.043 41.8052 187.599 41.5308L188.17 41.4301L188.246 41.8634C188.549 43.577 187.754 45.7481 185.863 46.0815C184.385 46.3419 183.49 45.525 183.327 44.5993ZM193.188 49.7857L194.527 49.5496L193.694 44.8225C193.603 44.3104 193.501 43.9628 193.501 43.9628L193.541 43.9559C193.541 43.9559 194.741 45.6939 197.124 45.2737C199.685 44.8222 201.195 42.4438 200.642 39.3122C200.101 36.2396 198.071 34.4041 195.412 34.873C192.792 35.3349 192.332 37.4469 192.332 37.4469L192.293 37.4538C192.293 37.4538 192.273 37.112 192.197 36.6787L192.027 35.7136L190.746 35.9393L193.188 49.7857ZM192.925 40.6933C192.428 37.8767 193.776 36.4206 195.43 36.1288C197.282 35.8024 198.836 37.1326 199.264 39.5553C199.708 42.0764 198.531 43.8071 196.778 44.1162C194.729 44.4774 193.276 42.6826 192.925 40.6933ZM203.146 43.9681L204.702 43.6937L204.424 42.118L202.868 42.3924L203.146 43.9681Z" fill="#483526"/>
<path opacity="0.7" d="M109.708 81.5943C109.484 81.7557 109.433 82.0682 109.594 82.2922L112.224 85.9436C112.386 86.1677 112.698 86.2185 112.922 86.0571C113.146 85.8957 113.197 85.5833 113.036 85.3592L110.698 82.1135L113.944 79.7757C114.168 79.6143 114.219 79.3018 114.057 79.0777C113.896 78.8537 113.583 78.8029 113.359 78.9642L109.708 81.5943ZM146.697 130.04C139.694 127.039 132.607 123.804 127.774 120.644C125.35 119.059 123.546 117.526 122.588 116.09C122.113 115.377 121.864 114.714 121.829 114.1C121.795 113.496 121.966 112.897 122.404 112.294L121.596 111.706C121.034 112.478 120.783 113.301 120.831 114.156C120.878 115.001 121.215 115.834 121.756 116.645C122.829 118.255 124.775 119.878 127.226 121.481C132.143 124.696 139.306 127.961 146.303 130.959L146.697 130.04ZM122.404 112.294C122.814 111.731 123.671 111.195 124.989 110.702C126.288 110.215 127.954 109.797 129.885 109.42C133.748 108.666 138.584 108.091 143.504 107.433C148.408 106.777 153.39 106.039 157.494 104.96C159.547 104.42 161.397 103.791 162.917 103.035C164.432 102.281 165.657 101.382 166.412 100.283L165.588 99.7167C164.968 100.618 163.912 101.422 162.472 102.139C161.036 102.854 159.258 103.462 157.24 103.993C153.204 105.054 148.279 105.785 143.371 106.442C138.478 107.096 133.595 107.677 129.693 108.439C127.741 108.82 126.013 109.25 124.638 109.765C123.282 110.273 122.186 110.894 121.596 111.706L122.404 112.294ZM166.412 100.283C166.834 99.6692 166.951 99.0076 166.758 98.3405C166.573 97.7011 166.119 97.1078 165.507 96.5579C164.285 95.4589 162.267 94.3858 159.761 93.3504C154.73 91.272 147.526 89.2646 140.178 87.5136C132.824 85.761 125.299 84.2593 119.615 83.196C116.773 82.6643 114.39 82.242 112.717 81.9526C111.881 81.8079 111.222 81.6965 110.772 81.6211C110.547 81.5835 110.374 81.5548 110.258 81.5356C110.199 81.526 110.155 81.5187 110.125 81.5139C110.11 81.5114 110.099 81.5096 110.092 81.5084C110.088 81.5077 110.085 81.5073 110.083 81.507C110.082 81.5068 110.081 81.5067 110.081 81.5066C110.081 81.5065 110.08 81.5065 110 82C109.92 82.4935 109.92 82.4936 109.92 82.4936C109.921 82.4937 109.922 82.4938 109.922 82.494C109.924 82.4943 109.927 82.4947 109.931 82.4953C109.938 82.4965 109.949 82.4983 109.964 82.5007C109.993 82.5055 110.037 82.5127 110.095 82.5223C110.211 82.5414 110.383 82.5699 110.607 82.6074C111.055 82.6825 111.712 82.7936 112.547 82.938C114.216 83.2267 116.594 83.6482 119.431 84.179C125.107 85.2407 132.614 86.739 139.947 88.4864C147.286 90.2354 154.426 92.228 159.379 94.2746C161.866 95.3017 163.75 96.3223 164.838 97.3014C165.382 97.7906 165.685 98.2325 165.797 98.6184C165.901 98.9768 165.853 99.3308 165.588 99.7167L166.412 100.283Z" fill="#483526"/>
</svg>
