<svg width="186" height="38" viewBox="0 0 186 38" fill="none" xmlns="http://www.w3.org/2000/svg">
<path fill-rule="evenodd" clip-rule="evenodd" d="M38.318 15.0754L35.3923 11.6379C35.363 11.5943 35.346 11.5437 35.3431 11.4915C35.3403 11.4392 35.3517 11.3871 35.3762 11.3407C35.4007 11.2943 35.4375 11.2552 35.4825 11.2275C35.5276 11.1999 35.5794 11.1846 35.6325 11.1833H46.1977C47.0954 11.1961 47.9673 10.8875 48.6517 10.315C49.3361 9.74239 49.7866 8.94456 49.9196 8.06958C49.9879 7.56521 49.9462 7.05223 49.7972 6.56498C49.6482 6.07773 49.3954 5.62744 49.0556 5.24426C48.7159 4.86108 48.297 4.55379 47.827 4.34293C47.357 4.13213 46.8468 4.02269 46.3304 4.0218H27.4621C26.9344 4.0278 26.4143 4.14736 25.9385 4.37219C25.4625 4.59701 25.0422 4.92162 24.707 5.32331L17.4529 15.2186C17.4279 15.2538 17.3954 15.2831 17.3576 15.3045C17.3198 15.3259 17.2777 15.3388 17.2343 15.3424C17.1909 15.346 17.1472 15.34 17.1064 15.3251C17.0655 15.3102 17.0285 15.2866 16.9979 15.256L6.78653 5.18012C6.28696 4.682 5.66265 4.32283 4.97685 4.13914C4.29106 3.95541 3.56817 3.95361 2.88143 4.1339C2.08082 4.35563 1.37152 4.82032 0.854257 5.46201C0.336989 6.1037 0.0381032 6.88971 0 7.70839V30.4258C0.00107422 30.9966 0.140596 31.5589 0.406876 32.0658C0.673219 32.5726 1.05867 33.0095 1.53108 33.3397C2.00348 33.67 2.54912 33.8842 3.12256 33.9644C3.69607 34.0447 4.28063 33.9886 4.82766 33.801C5.68375 33.497 6.42187 32.9367 6.93857 32.1986C7.45533 31.4604 7.72471 30.5814 7.7091 29.6848V17.0494C7.70897 16.9902 7.72666 16.9323 7.75996 16.883C7.79327 16.8337 7.84072 16.7953 7.89626 16.7726C7.95174 16.7499 8.01285 16.744 8.0718 16.7556C8.1307 16.7672 8.18485 16.7958 8.22725 16.8377L14.8684 23.4076C16.3155 24.8398 18.9315 24.7652 19.9931 23.4076C20.7439 22.4475 23.4544 18.8147 25.3794 16.2347C26.1762 15.1667 26.8384 14.2791 27.1714 13.8361C27.1991 13.8 27.2349 13.7707 27.2761 13.7506C27.3171 13.7304 27.3624 13.7199 27.4084 13.7199C27.4543 13.7199 27.4996 13.7304 27.5407 13.7506C27.5818 13.7707 27.6177 13.8 27.6453 13.8361L31.8917 18.818C31.9332 18.8705 31.9557 18.9352 31.9557 19.0017C31.9557 19.0683 31.9332 19.1329 31.8917 19.1854C31.2649 20.0502 30.6327 20.8917 30.0028 21.7301C29.4579 22.4553 28.9147 23.1783 28.3783 23.912C27.481 25.1201 26.5711 26.3655 25.7307 27.611C25.2272 28.2796 24.8465 29.0299 24.6059 29.8279C24.4753 30.3677 24.4994 30.9325 24.6754 31.4596C25.4698 33.8797 28.225 33.8685 29.4179 33.8637C29.4681 33.8635 29.5155 33.8633 29.56 33.8633H46.2735C47.2328 33.86 48.1518 33.483 48.8301 32.8145C49.5084 32.1461 49.8909 31.2403 49.8943 30.295C50.0143 28.2151 47.9607 26.8451 46.3304 26.8451H35.6577C35.5997 26.8471 35.5424 26.8324 35.4928 26.8028C35.4432 26.7731 35.4035 26.7297 35.3787 26.678C35.3538 26.6263 35.3448 26.5686 35.3528 26.512C35.3609 26.4553 35.3856 26.4023 35.4239 26.3594L36.4918 25.1139L38.5392 22.7101C38.6198 22.6128 38.7011 22.516 38.7822 22.4194C39.578 21.4717 40.3603 20.5401 40.4348 19.229C40.4355 18.0044 39.9449 16.8292 39.07 15.9597C38.9846 15.8312 38.8098 15.6336 38.5955 15.3913C38.5084 15.2928 38.4148 15.1869 38.318 15.0754ZM122.093 15.762C121.716 15.5656 121.295 15.4684 120.869 15.4799C119.163 15.4799 118.025 16.7254 118.025 19.0295C118.025 21.3336 119.163 22.5791 120.806 22.5791C121.224 22.5976 121.639 22.5029 122.007 22.3053C122.375 22.1077 122.681 21.8148 122.891 21.4582C122.987 21.2513 123.137 21.0731 123.326 20.9418C123.515 20.8106 123.735 20.7309 123.965 20.7109H124.471C124.598 20.7006 124.727 20.7212 124.845 20.7709C124.963 20.8206 125.067 20.8978 125.147 20.9959C125.228 21.094 125.284 21.21 125.309 21.334C125.335 21.4579 125.329 21.5861 125.292 21.7072C124.723 23.2641 123.144 24.5096 120.806 24.5096C117.836 24.5096 115.687 22.5168 115.687 18.9672C115.687 15.4176 117.899 13.4249 120.806 13.4249C123.017 13.4249 124.723 14.4836 125.355 16.3518C125.392 16.473 125.398 16.6011 125.372 16.725C125.347 16.849 125.292 16.965 125.211 17.0631C125.13 17.1612 125.026 17.2384 124.908 17.2881C124.79 17.3378 124.662 17.3584 124.534 17.3481H124.092C123.857 17.345 123.629 17.2719 123.437 17.1385C123.245 17.0051 123.099 16.8177 123.017 16.6009C122.788 16.2474 122.469 15.9583 122.093 15.762ZM102.48 18.6561H99.7002C99.4657 18.6561 99.2408 18.7479 99.0746 18.9115C98.9084 19.0749 98.8155 19.2967 98.8155 19.5279C98.8155 19.7591 98.9084 19.9809 99.0746 20.1444C99.2408 20.3079 99.4657 20.3998 99.7002 20.3998H100.206C100.711 20.3998 101.217 20.8356 100.964 21.3338C100.585 22.1434 99.8266 22.5793 98.626 22.5793C96.8567 22.5793 95.7824 21.2716 95.7824 19.0297C95.7824 16.7879 96.9198 15.4802 98.626 15.4802C99.0215 15.46 99.4158 15.5411 99.7703 15.7158C100.125 15.8904 100.427 16.1525 100.648 16.4765C100.747 16.6581 100.892 16.811 101.069 16.9203C101.247 17.0295 101.45 17.0912 101.659 17.0993H102.228C102.355 17.1095 102.484 17.0889 102.602 17.0392C102.72 16.9896 102.824 16.9123 102.905 16.8143C102.985 16.7161 103.041 16.6001 103.066 16.4761C103.092 16.3522 103.085 16.2241 103.049 16.1029C102.655 15.2864 102.025 14.6028 101.238 14.1375C100.451 13.6723 99.5428 13.4462 98.626 13.4873C95.7192 13.4873 93.5076 15.5424 93.5076 19.0297C93.5076 22.517 95.5929 24.5721 98.6891 24.5721C101.469 24.5721 103.428 22.8284 103.428 20.0261V19.5902C103.431 19.4668 103.408 19.3442 103.361 19.2297C103.315 19.1152 103.245 19.0112 103.157 18.924C103.068 18.8368 102.963 18.768 102.846 18.722C102.73 18.676 102.606 18.6535 102.48 18.6561ZM140.457 22.5169H143.654C143.906 22.5169 144.147 22.6153 144.325 22.7905C144.503 22.9657 144.602 23.2033 144.602 23.4511C144.602 23.6988 144.503 23.9363 144.325 24.1116C144.147 24.2867 143.906 24.3851 143.654 24.3851H138.094C137.87 24.3988 137.649 24.3298 137.474 24.1917C137.298 24.0536 137.181 23.8562 137.146 23.6378V23.4511L139.168 14.0477C139.198 13.9049 139.277 13.7769 139.392 13.6859C139.508 13.5948 139.652 13.5466 139.8 13.5495H143.591C143.843 13.5495 144.084 13.6479 144.262 13.8231C144.439 13.9983 144.539 14.2359 144.539 14.4837C144.539 14.7314 144.439 14.969 144.262 15.1441C144.084 15.3193 143.843 15.4177 143.591 15.4177H140.432C140.182 15.424 139.945 15.5245 139.769 15.6983C139.592 15.8721 139.49 16.1061 139.484 16.3519V17.0991C139.49 17.3449 139.592 17.5788 139.769 17.7526C139.945 17.9265 140.182 18.0269 140.432 18.0332H143.212C143.464 18.0332 143.704 18.1316 143.883 18.3068C144.06 18.482 144.16 18.7196 144.16 18.9673C144.16 19.2151 144.06 19.4527 143.883 19.6278C143.704 19.803 143.464 19.9015 143.212 19.9015H140.457C140.208 19.9077 139.971 20.0082 139.794 20.182C139.617 20.3559 139.516 20.5898 139.509 20.8355V21.5828C139.516 21.8286 139.617 22.0625 139.794 22.2364C139.971 22.4102 140.208 22.5106 140.457 22.5169ZM72.2761 13.612H73.5399C73.7958 13.6293 74.0378 13.7309 74.2286 13.9002C74.4188 14.0696 74.5452 14.2971 74.5888 14.5461V23.5135C74.5825 23.7593 74.4808 23.9933 74.3038 24.1671C74.1275 24.3409 73.8906 24.4413 73.641 24.4476H73.2618C73.0122 24.4413 72.7753 24.3409 72.599 24.1671C72.422 23.9933 72.3203 23.7593 72.314 23.5135V17.473C72.314 17.4565 72.307 17.4406 72.2957 17.429C72.2837 17.4173 72.2679 17.4107 72.2508 17.4107C72.2337 17.4107 72.2179 17.4173 72.2059 17.429C72.1946 17.4406 72.1876 17.4565 72.1876 17.473L69.5968 23.8249C69.5172 23.9907 69.3927 24.1311 69.236 24.2302C69.08 24.3292 68.898 24.383 68.7122 24.3853H68.4594C68.2711 24.3956 68.0841 24.3469 67.9249 24.2463C67.7663 24.1456 67.6437 23.9982 67.5748 23.8249L64.984 17.4107C64.984 17.3942 64.9771 17.3783 64.9657 17.3667C64.9537 17.355 64.9379 17.3485 64.9208 17.3485C64.9038 17.3485 64.888 17.355 64.876 17.3667C64.8646 17.3783 64.8577 17.3942 64.8577 17.4107V23.5135C64.8513 23.7552 64.7534 23.9856 64.5821 24.1588C64.4109 24.332 64.1803 24.4351 63.9351 24.4476H63.556C63.3853 24.4488 63.2179 24.4027 63.0726 24.3146C62.9272 24.2265 62.8103 24.1 62.7345 23.9495C62.677 23.8561 62.6549 23.7459 62.6713 23.6381L64.7565 14.1103C64.8197 13.7989 65.1357 13.5498 65.3884 13.7366C65.5281 13.8544 65.6368 14.004 65.7044 14.1725L68.4847 20.7735C68.4847 20.8045 68.4847 20.82 68.4925 20.8278C68.5004 20.8357 68.5162 20.8357 68.5479 20.8357C68.565 20.8357 68.5808 20.8292 68.5928 20.8175C68.6041 20.8059 68.6111 20.79 68.6111 20.7735L71.3914 14.1725C71.471 14.0068 71.5955 13.8663 71.7522 13.7673C71.9083 13.6681 72.0903 13.6143 72.2761 13.612ZM85.7086 13.786C85.8666 13.8974 85.986 14.0541 86.0511 14.2348L89.1474 23.2022C89.1948 23.3423 89.208 23.4915 89.1865 23.6378C89.1651 23.784 89.1088 23.9232 89.0229 24.0442C88.9369 24.1653 88.8232 24.2648 88.6911 24.3349C88.5597 24.4049 88.4125 24.4435 88.2627 24.4476H87.7572C87.5626 24.4458 87.3736 24.3851 87.215 24.2737C87.0571 24.1623 86.9376 24.0056 86.8725 23.8249L86.4934 22.6417C86.4283 22.461 86.3089 22.3043 86.1509 22.1929C85.9923 22.0815 85.8034 22.0208 85.6088 22.019H83.018C82.8234 22.0208 82.6344 22.0815 82.4758 22.1929C82.3179 22.3043 82.1984 22.461 82.1333 22.6417L81.7542 23.8249C81.6891 24.0056 81.5697 24.1623 81.4117 24.2737C81.2531 24.3851 81.0642 24.4458 80.8696 24.4476H80.364C80.2143 24.4435 80.0671 24.4049 79.9356 24.3349C79.8036 24.2648 79.6898 24.1653 79.6039 24.0442C79.5179 23.9232 79.4617 23.784 79.4402 23.6378C79.4187 23.4915 79.432 23.3423 79.4794 23.2022L82.6389 14.2348C82.7039 14.0541 82.8234 13.8974 82.9813 13.786C83.14 13.6746 83.3289 13.6138 83.5235 13.612H85.1664C85.3611 13.6138 85.55 13.6746 85.7086 13.786ZM84.2565 20.1508H84.4461C84.5965 20.1428 84.7431 20.1025 84.8764 20.0326C85.0091 19.9627 85.1247 19.8649 85.2151 19.7462C85.3054 19.6274 85.3686 19.4906 85.399 19.3453C85.4299 19.2 85.428 19.0498 85.3939 18.9053L84.4461 16.0407C84.4461 16.0242 84.4391 16.0083 84.4277 15.9966C84.4157 15.985 84.3999 15.9784 84.3829 15.9784C84.3658 15.9784 84.35 15.985 84.338 15.9966C84.3266 16.0083 84.3197 16.0242 84.3197 16.0407L83.3719 18.9053C83.3245 19.0455 83.3112 19.1947 83.3327 19.3409C83.3542 19.4871 83.4104 19.6263 83.4963 19.7474C83.5823 19.8684 83.696 19.968 83.8274 20.038C83.9595 20.1081 84.1067 20.1467 84.2565 20.1508ZM109.81 13.612H109.368C109.118 13.6183 108.881 13.7188 108.705 13.8926C108.528 14.0665 108.426 14.3004 108.42 14.5461V23.5135C108.426 23.7593 108.528 23.9933 108.705 24.1671C108.881 24.3409 109.118 24.4413 109.368 24.4476H109.81C110.06 24.4413 110.297 24.3409 110.473 24.1671C110.65 23.9933 110.752 23.7593 110.758 23.5135V14.5461C110.742 14.3037 110.637 14.0753 110.462 13.9035C110.288 13.7317 110.056 13.6281 109.81 13.612ZM153.601 13.612H150.631C150.381 13.6183 150.144 13.7188 149.968 13.8926C149.791 14.0665 149.689 14.3004 149.683 14.5461V23.5135C149.689 23.7593 149.791 23.9933 149.968 24.1671C150.144 24.3409 150.381 24.4413 150.631 24.4476H153.601C156.95 24.4476 158.972 22.3926 158.972 19.0299C158.972 15.6671 156.887 13.612 153.601 13.612ZM153.474 22.4549H152.969C152.719 22.4486 152.482 22.3481 152.306 22.1743C152.129 22.0005 152.027 21.7665 152.021 21.5208V16.4766C152.027 16.2309 152.129 15.9969 152.306 15.8231C152.482 15.6492 152.719 15.5488 152.969 15.5425H153.474C155.56 15.5425 156.634 16.6012 156.634 18.9676C156.634 21.3339 155.56 22.4549 153.474 22.4549ZM167.123 22.5168H170.346C170.471 22.5143 170.595 22.5367 170.711 22.5827C170.828 22.6288 170.933 22.6975 171.022 22.7847C171.11 22.872 171.18 22.9759 171.226 23.0904C171.273 23.2049 171.296 23.3275 171.293 23.4509C171.287 23.6967 171.185 23.9306 171.008 24.1044C170.832 24.2783 170.595 24.3787 170.346 24.385H164.785C164.535 24.3787 164.298 24.2783 164.122 24.1044C163.945 23.9306 163.843 23.6967 163.837 23.4509V14.4835C163.843 14.2377 163.945 14.0038 164.122 13.83C164.298 13.6561 164.535 13.5557 164.785 13.5494H170.282C170.534 13.5494 170.775 13.6478 170.953 13.823C171.13 13.9982 171.23 14.2358 171.23 14.4835C171.23 14.7312 171.13 14.9688 170.953 15.144C170.775 15.3192 170.534 15.4176 170.282 15.4176H167.123C166.873 15.4239 166.636 15.5243 166.46 15.6982C166.283 15.872 166.181 16.106 166.175 16.3517V17.099C166.181 17.3447 166.283 17.5787 166.46 17.7525C166.636 17.9263 166.873 18.0268 167.123 18.0331H169.903C170.155 18.0331 170.395 18.1315 170.574 18.3067C170.751 18.4818 170.851 18.7194 170.851 18.9672C170.851 19.215 170.751 19.4526 170.574 19.6277C170.395 19.8029 170.155 19.9013 169.903 19.9013H167.123C166.873 19.9076 166.636 20.0081 166.46 20.1819C166.283 20.3557 166.181 20.5896 166.175 20.8354V21.5827C166.181 21.8285 166.283 22.0624 166.46 22.2362C166.636 22.4101 166.873 22.5105 167.123 22.5168ZM184.627 13.612H184.184C183.935 13.6183 183.698 13.7188 183.522 13.8926C183.345 14.0665 183.243 14.3004 183.237 14.5461V20.3376C183.237 20.3686 183.237 20.3841 183.229 20.392C183.221 20.3999 183.205 20.3999 183.173 20.3999H183.11L178.687 14.048C178.601 13.9293 178.487 13.8332 178.355 13.7681C178.223 13.7029 178.077 13.6707 177.929 13.6743H177.335C177.085 13.6806 176.848 13.781 176.672 13.9549C176.495 14.1287 176.393 14.3626 176.387 14.6084V23.5758C176.393 23.8216 176.495 24.0555 176.672 24.2293C176.848 24.4032 177.085 24.5036 177.335 24.5099H177.777C178.027 24.5036 178.264 24.4032 178.44 24.2293C178.617 24.0555 178.719 23.8216 178.725 23.5758V17.7221C178.725 17.7056 178.732 17.6897 178.743 17.6781C178.755 17.6664 178.771 17.6598 178.788 17.6598H178.851L183.338 24.0117C183.424 24.1304 183.537 24.2265 183.669 24.2916C183.801 24.3568 183.948 24.3889 184.096 24.3853H184.665C184.914 24.379 185.151 24.2786 185.328 24.1048C185.504 23.931 185.606 23.697 185.613 23.4513V14.4839C185.57 14.2514 185.449 14.0395 185.271 13.8816C185.092 13.7238 184.866 13.6289 184.627 13.612Z" fill="url(#paint0_linear_473_2992)"/>
<defs>
<linearGradient id="paint0_linear_473_2992" x1="0" y1="4" x2="185.777" y2="4" gradientUnits="userSpaceOnUse">
<stop stop-color="#B22ACB"/>
<stop offset="1" stop-color="#EE589D"/>
</linearGradient>
</defs>
</svg>
