<svg width="205" height="32" viewBox="0 0 205 32" fill="none" xmlns="http://www.w3.org/2000/svg">
<path fill-rule="evenodd" clip-rule="evenodd" d="M16.459 0H8.37084L2.27258 13.0269C0.619999 16.5571 -0.206291 18.3223 0.0440631 19.6706C0.264282 20.8567 1.05021 21.821 2.28919 22.4253C3.69773 23.1123 5.96263 23.1123 10.4924 23.1123H16.4238L18.9811 17.6494C19.1188 17.3552 19.1876 17.2081 19.1668 17.0958C19.1484 16.9969 19.083 16.9166 18.9797 16.8662C18.8623 16.809 18.6736 16.809 18.2961 16.809H18.2961H12.904C11.394 16.809 10.6391 16.809 10.1696 16.5799C9.75654 16.3785 9.49461 16.0571 9.42117 15.6617C9.33772 15.2123 9.61313 14.624 10.1639 13.4473L10.1639 13.4473L10.164 13.4471L16.459 0ZM52.62 23.4057V14.4955C52.62 13.3375 52.2553 12.3832 51.5263 11.6327C50.7969 10.8821 49.8537 10.5069 48.6954 10.5069C47.9236 10.5069 47.2374 10.6784 46.6367 11.0215C46.0364 11.3646 45.5643 11.8364 45.2214 12.4368C44.8785 13.0373 44.7066 13.7235 44.7066 14.4955V23.4057H41.8118V0.438684H44.7066V10.1008C45.1701 9.49399 45.7491 8.99674 46.4438 8.609C47.3661 8.07292 48.4059 7.80484 49.5638 7.80484C50.722 7.80484 51.7405 8.06219 52.62 8.57685C53.5204 9.09151 54.2281 9.8099 54.7429 10.732C55.2576 11.6542 55.5146 12.7156 55.5146 13.9165V23.4057H52.62ZM63.2944 29.8069L66.1894 23.5343L73.3306 8.12654H70.1136L65.4626 18.9599L61.0428 8.12654H57.8258L63.8361 22.1019L60.0778 29.8069H63.2944ZM83.6224 23.7273C82.4641 23.7273 81.4136 23.4915 80.47 23.0197C79.6667 22.5901 79.0019 22.0222 78.4754 21.3161V29.8069H75.5803V8.12654H78.4754V10.2267C79.0195 9.51823 79.6949 8.95756 80.502 8.5447C81.4456 8.05146 82.4855 7.80484 83.6224 7.80484C85.0162 7.80484 86.2707 8.15869 87.3858 8.86635C88.5223 9.57401 89.412 10.5283 90.0555 11.7292C90.699 12.9301 91.0205 14.2811 91.0205 15.7822C91.0205 17.2833 90.699 18.6343 90.0555 19.8352C89.412 21.0361 88.5223 21.9904 87.3858 22.698C86.2707 23.3843 85.0162 23.7273 83.6224 23.7273ZM83.1397 20.9932C84.1047 20.9932 84.9517 20.768 85.6807 20.3177C86.4101 19.8673 86.989 19.2562 87.4179 18.4842C87.8467 17.6907 88.0613 16.7794 88.0613 15.75C88.0613 14.7421 87.8467 13.8415 87.4179 13.048C86.989 12.2546 86.4101 11.6434 85.6807 11.2145C84.9517 10.7642 84.1154 10.539 83.1717 10.539C82.2067 10.539 81.3597 10.7642 80.6307 11.2145C79.9017 11.6434 79.3335 12.2546 78.926 13.048C78.5186 13.8415 78.3146 14.7529 78.3146 15.7822C78.3146 16.7901 78.5079 17.6907 78.8935 18.4842C79.301 19.2562 79.8692 19.8673 80.5987 20.3177C81.349 20.768 82.196 20.9932 83.1397 20.9932ZM101.379 23.7273C99.8566 23.7273 98.4841 23.3843 97.2617 22.698C96.0397 21.9904 95.0747 21.0361 94.3666 19.8352C93.659 18.6343 93.3055 17.2726 93.3055 15.75C93.3055 14.2489 93.6483 12.8979 94.3346 11.697C95.0422 10.4961 95.9858 9.55259 97.1655 8.86635C98.3661 8.15869 99.7065 7.80484 101.186 7.80484C102.602 7.80484 103.845 8.12654 104.918 8.76985C106.011 9.41321 106.858 10.3031 107.459 11.4397C108.081 12.5762 108.392 13.8629 108.392 15.2997C108.392 15.5142 108.381 15.75 108.36 16.0073C108.338 16.2432 108.295 16.522 108.231 16.8437H96.2649C96.3668 17.4387 96.549 17.9855 96.8115 18.4842C97.2403 19.2777 97.8517 19.8995 98.6449 20.3498C99.4384 20.7787 100.35 20.9932 101.379 20.9932C102.237 20.9932 103.02 20.8431 103.727 20.5429C104.456 20.2426 105.078 19.7923 105.593 19.1918L107.459 21.0897C106.73 21.9475 105.829 22.6015 104.757 23.0518C103.706 23.5022 102.58 23.7273 101.379 23.7273ZM96.7794 12.9194C96.539 13.3748 96.3695 13.8787 96.2708 14.4312H105.57C105.491 13.7988 105.327 13.2412 105.078 12.7585C104.714 12.0294 104.199 11.4718 103.534 11.0858C102.87 10.6784 102.065 10.4747 101.122 10.4747C100.135 10.4747 99.267 10.6891 98.5162 11.118C97.7658 11.5469 97.1869 12.1473 96.7794 12.9194ZM111.548 23.4057V8.12654H114.443V9.90233C114.524 9.77818 114.61 9.65802 114.7 9.54186C115.601 8.38385 116.899 7.80484 118.593 7.80484C119.365 7.80484 120.062 7.94423 120.683 8.223C121.305 8.48035 121.884 8.91997 122.421 9.54186L120.523 11.504C120.201 11.1609 119.847 10.9143 119.461 10.7642C119.075 10.6141 118.625 10.539 118.11 10.539C117.038 10.539 116.159 10.8821 115.473 11.5683C114.786 12.2546 114.443 13.2946 114.443 14.6885V23.4057H111.548ZM128.97 23.7273C128.113 23.7273 127.298 23.6202 126.526 23.4057C125.775 23.1698 125.078 22.8481 124.435 22.4407C123.792 22.0118 123.234 21.5079 122.762 20.9289L124.628 19.0632C125.186 19.7494 125.829 20.2641 126.558 20.6072C127.287 20.9289 128.102 21.0897 129.002 21.0897C129.903 21.0897 130.6 20.9396 131.094 20.6394C131.587 20.3177 131.833 19.8781 131.833 19.3205C131.833 18.7629 131.629 18.3341 131.222 18.0339C130.836 17.7122 130.332 17.4549 129.71 17.2619C129.088 17.0474 128.423 16.8437 127.716 16.6507C127.03 16.4362 126.375 16.1682 125.754 15.8465C125.132 15.5248 124.617 15.0853 124.21 14.5277C123.824 13.9701 123.631 13.2303 123.631 12.3082C123.631 11.3861 123.856 10.5926 124.306 9.92787C124.757 9.24162 125.378 8.71623 126.172 8.35169C126.987 7.98711 127.963 7.80484 129.099 7.80484C130.3 7.80484 131.361 8.01931 132.284 8.4482C133.227 8.85562 133.999 9.47751 134.6 10.3139L132.734 12.1795C132.305 11.622 131.769 11.1931 131.126 10.8928C130.504 10.5926 129.796 10.4425 129.002 10.4425C128.166 10.4425 127.523 10.5926 127.072 10.8928C126.644 11.1716 126.429 11.5683 126.429 12.083C126.429 12.5977 126.622 12.9944 127.008 13.2732C127.394 13.552 127.898 13.7879 128.52 13.9809C129.164 14.1739 129.828 14.3776 130.514 14.592C131.201 14.785 131.855 15.0531 132.477 15.3962C133.098 15.7393 133.603 16.2003 133.988 16.7794C134.396 17.3584 134.6 18.1196 134.6 19.0632C134.6 20.5 134.085 21.6365 133.056 22.4729C132.048 23.3092 130.686 23.7273 128.97 23.7273ZM145.882 23.7273C144.724 23.7273 143.674 23.4915 142.73 23.0197C141.927 22.5902 141.262 22.0226 140.736 21.3167V29.8069H137.841V8.12654H140.736V10.2262C141.28 9.51794 141.955 8.95745 142.762 8.5447C143.706 8.05146 144.746 7.80484 145.882 7.80484C147.276 7.80484 148.531 8.15869 149.646 8.86635C150.782 9.57401 151.672 10.5283 152.316 11.7292C152.959 12.9301 153.28 14.2811 153.28 15.7822C153.28 17.2833 152.959 18.6343 152.316 19.8352C151.672 21.0361 150.782 21.9904 149.646 22.698C148.531 23.3843 147.276 23.7273 145.882 23.7273ZM145.4 20.9932C146.365 20.9932 147.212 20.768 147.941 20.3177C148.67 19.8673 149.249 19.2562 149.678 18.4842C150.107 17.6907 150.321 16.7794 150.321 15.75C150.321 14.7421 150.107 13.8415 149.678 13.048C149.249 12.2546 148.67 11.6434 147.941 11.2145C147.212 10.7642 146.376 10.539 145.432 10.539C144.467 10.539 143.62 10.7642 142.891 11.2145C142.162 11.6434 141.593 12.2546 141.186 13.048C140.778 13.8415 140.575 14.7529 140.575 15.7822C140.575 16.7901 140.768 17.6907 141.154 18.4842C141.561 19.2562 142.13 19.8673 142.859 20.3177C143.609 20.768 144.456 20.9932 145.4 20.9932ZM163.06 23.7273C161.666 23.7273 160.401 23.3843 159.265 22.698C158.128 21.9904 157.227 21.0361 156.562 19.8352C155.919 18.6343 155.597 17.2833 155.597 15.7822C155.597 14.2811 155.919 12.9301 156.562 11.7292C157.227 10.5283 158.117 9.57401 159.233 8.86635C160.369 8.15869 161.645 7.80484 163.06 7.80484C164.218 7.80484 165.248 8.05146 166.148 8.5447C166.951 8.95549 167.616 9.51261 168.143 10.2161V8.12654H171.07V23.4057H168.143V21.3274C167.633 22.0283 166.979 22.5924 166.181 23.0197C165.28 23.4915 164.24 23.7273 163.06 23.7273ZM163.543 20.9932C164.979 20.9932 166.138 20.5107 167.017 19.5457C167.896 18.5593 168.336 17.3047 168.336 15.7822C168.336 14.7314 168.132 13.82 167.724 13.048C167.338 12.2546 166.781 11.6434 166.052 11.2145C165.323 10.7642 164.476 10.539 163.511 10.539C162.546 10.539 161.688 10.7642 160.937 11.2145C160.208 11.6648 159.629 12.2867 159.201 13.0802C158.793 13.8522 158.589 14.7421 158.589 15.75C158.589 16.7794 158.793 17.6907 159.201 18.4842C159.629 19.2562 160.219 19.8673 160.969 20.3177C161.72 20.768 162.578 20.9932 163.543 20.9932ZM182.265 23.7273C180.764 23.7273 179.402 23.3735 178.18 22.6659C176.979 21.9582 176.024 21.0039 175.317 19.803C174.63 18.5807 174.288 17.2297 174.288 15.75C174.288 14.2489 174.63 12.8979 175.317 11.697C176.024 10.4961 176.979 9.55259 178.18 8.86635C179.402 8.15869 180.764 7.80484 182.265 7.80484C183.444 7.80484 184.538 8.03004 185.546 8.48035C186.553 8.90924 187.422 9.54186 188.151 10.3782L186.221 12.3082C185.75 11.7507 185.17 11.3325 184.485 11.0537C183.82 10.7534 183.08 10.6034 182.265 10.6034C181.3 10.6034 180.442 10.8285 179.692 11.2788C178.941 11.7077 178.351 12.3082 177.922 13.0802C177.493 13.8522 177.279 14.7421 177.279 15.75C177.279 16.7579 177.493 17.6479 177.922 18.4199C178.351 19.1918 178.941 19.803 179.692 20.2533C180.442 20.7037 181.3 20.9289 182.265 20.9289C183.08 20.9289 183.82 20.7895 184.485 20.5107C185.17 20.2105 185.76 19.7816 186.253 19.224L188.151 21.154C187.444 21.9689 186.575 22.6015 185.546 23.0518C184.538 23.5022 183.444 23.7273 182.265 23.7273ZM197.817 23.7273C196.294 23.7273 194.922 23.3843 193.699 22.698C192.477 21.9904 191.512 21.0361 190.804 19.8352C190.096 18.6343 189.742 17.2726 189.742 15.75C189.742 14.2489 190.086 12.8979 190.772 11.697C191.48 10.4961 192.423 9.55259 193.602 8.86635C194.804 8.15869 196.144 7.80484 197.623 7.80484C199.039 7.80484 200.282 8.12654 201.355 8.76985C202.448 9.41321 203.295 10.3031 203.896 11.4397C204.518 12.5762 204.829 13.8629 204.829 15.2997C204.829 15.5142 204.818 15.75 204.797 16.0073C204.775 16.2432 204.732 16.522 204.668 16.8437H192.702C192.804 17.4387 192.986 17.9855 193.249 18.4842C193.678 19.2777 194.289 19.8995 195.082 20.3498C195.876 20.7787 196.787 20.9932 197.817 20.9932C198.674 20.9932 199.457 20.8431 200.165 20.5429C200.894 20.2426 201.515 19.7923 202.03 19.1918L203.896 21.0897C203.167 21.9475 202.266 22.6015 201.194 23.0518C200.143 23.5022 199.017 23.7273 197.817 23.7273ZM193.216 12.9194C192.976 13.3748 192.807 13.8787 192.708 14.4312H202.007C201.928 13.7988 201.764 13.2412 201.515 12.7585C201.151 12.0294 200.636 11.4718 199.971 11.0858C199.307 10.6784 198.503 10.4747 197.559 10.4747C196.573 10.4747 195.704 10.6891 194.954 11.118C194.203 11.5469 193.624 12.1473 193.216 12.9194ZM22.159 32H14.0708L20.3658 18.5528C20.9167 17.3761 21.1921 16.7877 21.1086 16.3382C21.0352 15.9429 20.7733 15.6215 20.3603 15.42C19.8907 15.191 19.1358 15.191 17.6258 15.191H12.2337H12.2337C11.8562 15.191 11.6675 15.191 11.5501 15.1338C11.4469 15.0834 11.3814 15.003 11.3631 14.9042C11.3422 14.7919 11.411 14.6448 11.5488 14.3506L14.1061 8.88767H20.0374C24.5672 8.88767 26.8321 8.88767 28.2406 9.57471C29.4796 10.179 30.2655 11.1433 30.4858 12.3294C30.7361 13.6777 29.9098 15.4428 28.2573 18.9729L28.2572 18.973L22.159 32Z" fill="#4669F1"/>
</svg>
