<svg width="267" height="84" viewBox="0 0 267 84" fill="none" xmlns="http://www.w3.org/2000/svg">
<path opacity="0.7" d="M2.63673 35.8505C3.01696 38.9472 5.56062 40.791 8.5184 40.4278C11.0593 40.1158 12.2166 38.3818 12.2166 38.3818L11.4721 37.4053C11.4721 37.4053 10.4739 38.9585 8.44913 39.2071C6.24567 39.4777 4.3139 38.0223 4.02629 35.6799C3.73381 33.2977 5.24112 31.4604 7.42472 31.1922C9.23115 30.9704 10.4915 32.0448 10.4915 32.0448L11.062 30.9471C11.062 30.9471 9.67556 29.6666 7.2339 29.9664C4.29596 30.3271 2.25893 32.7736 2.63673 35.8505ZM13.8455 39.5319L15.1954 39.3662L14.6786 35.1578C14.6006 34.5225 14.5972 33.8379 14.7177 33.1783C14.974 31.6557 15.8896 30.4148 17.2991 30.2418C17.5571 30.2101 17.8002 30.2205 17.8002 30.2205L17.6369 28.8905C17.6369 28.8905 17.3715 28.8627 17.0936 28.8968C15.5254 29.0893 14.5551 30.3772 14.2639 31.9444L14.2242 31.9492C14.2242 31.9492 14.22 31.587 14.1664 31.1503L13.9495 29.3836L12.6195 29.5469L13.8455 39.5319ZM18.5058 33.902C18.8836 36.9789 21.39 38.8474 24.3677 38.4817C26.6108 38.2063 27.8893 36.6388 27.8893 36.6388L27.1472 35.6821C27.1472 35.6821 26.085 37.0417 24.2587 37.266C22.1942 37.5195 20.2767 36.3444 19.9027 33.7909L27.5652 32.8501C27.5652 32.8501 27.5488 32.3886 27.5196 32.1504C27.2149 29.6691 25.5447 27.7181 22.7854 28.0569C20.0857 28.3884 18.1037 30.6266 18.5058 33.902ZM19.8258 32.672C19.8972 30.628 21.2171 29.398 22.8846 29.1933C24.3734 29.0104 25.7633 29.8272 26.0987 31.9017L19.8258 32.672ZM28.6443 34.9543C28.8881 36.9394 30.7345 37.7 32.402 37.4953C34.9032 37.1881 35.4713 34.922 35.4713 34.922L35.511 34.9171C35.511 34.9171 35.5127 35.2595 35.5737 35.7558L35.7077 36.8476L36.998 36.6891L36.2132 30.2971C35.9061 27.7959 34.4128 26.6292 32.0108 26.9241C29.7676 27.1996 28.5964 28.4919 28.5964 28.4919L29.3584 29.4462C29.3584 29.4462 30.4126 28.3495 32.0602 28.1472C33.4895 27.9717 34.622 28.4976 34.8585 30.4232L34.8901 30.6812L34.3343 30.7495C32.6073 30.9615 28.23 31.5796 28.6443 34.9543ZM30.0241 34.7042C29.7536 32.5008 32.8827 32.0561 34.451 31.8636L35.0266 31.7929L35.0803 32.2296C35.2923 33.9566 34.3847 36.0831 32.479 36.3171C30.9902 36.4999 30.1387 35.6372 30.0241 34.7042ZM38.9857 32.7576C39.3952 36.0925 41.7641 36.1845 42.9154 36.0432C43.2728 35.9993 43.4862 35.9328 43.4862 35.9328L43.3376 34.7219C43.3376 34.7219 43.1638 34.7835 42.8859 34.8176C42.1315 34.9103 40.6062 34.7953 40.3185 32.4529L39.7092 27.4902L42.2104 27.183L42.0715 26.0515L39.5703 26.3587L39.2168 23.4803L37.8868 23.6436L38.2403 26.522L36.9102 26.6853L37.0492 27.8168L38.3593 27.6559L38.9857 32.7576ZM43.4048 30.8448C43.7826 33.9217 46.289 35.7902 49.2666 35.4245C51.5098 35.1491 52.7883 33.5816 52.7883 33.5816L52.0461 32.6249C52.0461 32.6249 50.9839 33.9845 49.1576 34.2088C47.0931 34.4623 45.1756 33.2872 44.8017 30.7337L52.4641 29.7929C52.4641 29.7929 52.4478 29.3314 52.4185 29.0932C52.1138 26.6119 50.4436 24.6609 47.6843 24.9997C44.9846 25.3312 43.0026 27.5694 43.4048 30.8448ZM44.7247 29.6148C44.7962 27.5708 46.1161 26.3408 47.7836 26.136C49.2724 25.9532 50.6623 26.7699 50.9976 28.8445L44.7247 29.6148ZM57.9795 37.74C57.9795 37.74 58.7673 38.2477 59.7995 38.121C61.1295 37.9577 62.0618 37.0171 62.422 35.6832L65.8631 23.0094L64.3941 23.1898L62.4102 30.8285C62.2727 31.3491 62.202 31.922 62.202 31.922L62.1623 31.9269C62.1623 31.9269 61.9352 31.3906 61.6758 30.9187L57.8433 23.9941L56.3545 24.1769L61.7394 33.5707L61.2971 35.0556C61.0122 36.0175 60.4846 36.8077 59.6111 36.915C58.9759 36.993 58.364 36.6046 58.364 36.6046L57.9795 37.74ZM66.5896 27.9376C66.96 30.9549 69.6002 32.9279 72.5182 32.5696C75.4363 32.2113 77.5207 29.6583 77.1502 26.6409C76.7871 23.6831 74.1518 21.7499 71.2337 22.1082C68.3157 22.4665 66.2264 24.9798 66.5896 27.9376ZM67.9791 27.767C67.7013 25.504 69.241 23.6022 71.3849 23.3389C73.5288 23.0757 75.4828 24.5485 75.7607 26.8115C76.0459 29.1341 74.5135 31.0955 72.3696 31.3587C70.2257 31.6219 68.2643 30.0895 67.9791 27.767ZM78.7143 27.8795C79.0336 30.48 80.1821 31.6286 82.5245 31.341C84.728 31.0704 85.848 29.3612 86.1256 28.3398L86.1653 28.3349C86.1653 28.3349 86.1695 28.6971 86.2231 29.1338L86.4059 30.6226L87.716 30.4617L86.49 20.4767L85.1402 20.6425L85.7276 25.4265C85.9933 27.5903 84.83 29.7683 82.5472 30.0486C80.6216 30.285 80.2128 28.9247 80.0202 27.3565L79.2842 21.3615L77.9343 21.5272L78.7143 27.8795ZM89.9769 30.1841L91.3267 30.0184L90.81 25.81C90.732 25.1748 90.7286 24.4901 90.8491 23.8305C91.1054 22.3079 92.021 21.0671 93.4304 20.894C93.6885 20.8623 93.9316 20.8728 93.9316 20.8728L93.7683 19.5428C93.7683 19.5428 93.5029 19.5149 93.225 19.549C91.6568 19.7416 90.6865 21.0294 90.3953 22.5966L90.3556 22.6015C90.3556 22.6015 90.3514 22.2393 90.2978 21.8026L90.0809 20.0358L88.7509 20.1991L89.9769 30.1841ZM99.045 23.9526C99.4155 26.9699 102.056 28.9429 104.974 28.5846C107.892 28.2263 109.976 25.6732 109.606 22.6559C109.243 19.6981 106.607 17.7648 103.689 18.1231C100.771 18.4814 98.6819 20.9948 99.045 23.9526ZM100.435 23.782C100.157 21.5189 101.696 19.6171 103.84 19.3539C105.984 19.0907 107.938 20.5635 108.216 22.8265C108.501 25.1491 106.969 27.1104 104.825 27.3737C102.681 27.6369 100.72 26.1045 100.435 23.782ZM113.839 27.2542L115.308 27.0739L116.877 19.6674C116.975 19.1517 117.043 18.5589 117.043 18.5589L117.083 18.5541C117.083 18.5541 117.293 19.1127 117.532 19.587L120.846 26.3938L122.315 26.2135L124.464 15.8141L123.035 15.9896L121.527 23.7311C121.429 24.2468 121.361 24.8396 121.361 24.8396L121.321 24.8444C121.321 24.8444 121.109 24.266 120.892 23.809L117.521 16.7069L116.191 16.8702L114.639 24.5768C114.538 25.0727 114.473 25.6853 114.473 25.6853L114.433 25.6902C114.433 25.6902 114.221 25.1117 114.004 24.6548L110.668 17.5081L109.238 17.6836L113.839 27.2542ZM126.658 25.6802L128.008 25.5145L127.421 20.7304C127.362 20.254 127.346 19.7925 127.414 19.361C127.668 17.6574 128.993 16.3058 130.701 16.0962C132.626 15.8597 133.035 17.2201 133.227 18.7883L133.964 24.7833L135.313 24.6175L134.533 18.2652C134.231 15.8037 133.185 14.5015 130.723 14.8038C128.361 15.0938 127.288 16.8577 127.043 17.8148L127.003 17.8196C127.003 17.8196 126.999 17.4574 126.945 17.0207L126.762 15.5319L125.432 15.6952L126.658 25.6802ZM7.38705 65.5127L15.2282 64.5499L15.077 63.3191L8.60564 64.1137L7.04328 51.3893L5.67356 51.5575L7.38705 65.5127ZM16.6689 64.373L18.0386 64.2048L17.3659 58.7259L20.82 58.3018C23.3212 57.9947 24.9229 56.1055 24.6036 53.505C24.2867 50.9244 22.2804 49.5184 19.7792 49.8255L14.9554 50.4178L16.6689 64.373ZM17.2148 57.4952L16.4763 51.4804L19.7715 51.0758C21.6176 50.8491 22.9626 51.7922 23.1942 53.678C23.4281 55.5837 22.3562 56.8639 20.4902 57.093L17.2148 57.4952ZM31.9694 66.5244L33.3192 66.3586L32.7342 61.5944C32.6709 61.0783 32.5873 60.7258 32.5873 60.7258L32.627 60.721C32.627 60.721 33.7344 62.5194 36.1364 62.2245C38.717 61.9076 40.3494 59.6116 39.9618 56.4553C39.5816 53.3585 37.6509 51.4194 34.971 51.7484C32.3308 52.0726 31.7607 54.1576 31.7607 54.1576L31.721 54.1625C31.721 54.1625 31.7192 53.8201 31.6656 53.3834L31.5462 52.4107L30.2559 52.5692L31.9694 66.5244ZM32.1827 57.4306C31.8341 54.5919 33.2561 53.2083 34.9236 53.0035C36.7896 52.7744 38.2725 54.1842 38.5723 56.6259C38.8842 59.1668 37.6179 60.8336 35.8512 61.0505C33.7867 61.304 32.4289 59.4355 32.1827 57.4306ZM40.8253 56.2888C41.1958 59.3061 43.8359 61.2791 46.754 60.9208C49.6721 60.5625 51.7565 58.0094 51.386 54.9921C51.0228 52.0343 48.3876 50.1011 45.4695 50.4594C42.5514 50.8177 40.4621 53.331 40.8253 56.2888ZM42.2149 56.1182C41.937 53.8552 43.4767 51.9534 45.6206 51.6901C47.7645 51.4269 49.7186 52.8997 49.9964 55.1627C50.2816 57.4853 48.7492 59.4467 46.6053 59.7099C44.4614 59.9731 42.5 58.4407 42.2149 56.1182ZM52.1814 54.8944C52.5519 57.9118 55.192 59.8847 58.1101 59.5264C61.0282 59.1681 63.1126 56.6151 62.7421 53.5978C62.379 50.64 59.7437 48.7067 56.8256 49.065C53.9075 49.4233 51.8183 51.9367 52.1814 54.8944ZM53.571 54.7238C53.2931 52.4608 54.8328 50.559 56.9767 50.2958C59.1206 50.0325 61.0747 51.5054 61.3526 53.7684C61.6377 56.0909 60.1053 58.0523 57.9614 58.3155C55.8175 58.5788 53.8562 57.0464 53.571 54.7238ZM64.5018 56.102C64.7699 58.2856 66.2706 58.3633 67.1043 58.2609C67.3624 58.2292 67.5957 58.1603 67.5957 58.1603L67.4471 56.9493C67.4471 56.9493 67.2907 56.9887 67.112 57.0106C66.5959 57.074 65.976 56.9486 65.8151 55.6385L64.4283 44.3433L63.0784 44.509L64.5018 56.102ZM71.9939 54.8194C72.2376 56.8044 74.0841 57.5651 75.7515 57.3603C78.2528 57.0532 78.8208 54.7871 78.8208 54.7871L78.8605 54.7822C78.8605 54.7822 78.8623 55.1246 78.9232 55.6209L79.0573 56.7127L80.3476 56.5542L79.5627 50.1622C79.2556 47.661 77.7623 46.4943 75.3603 46.7892C73.1172 47.0647 71.9459 48.357 71.9459 48.357L72.7079 49.3113C72.7079 49.3113 73.7621 48.2146 75.4098 48.0123C76.839 47.8368 77.9716 48.3627 78.208 50.2883L78.2397 50.5463L77.6838 50.6146C75.9568 50.8266 71.5795 51.4447 71.9939 54.8194ZM73.3737 54.5693C73.1031 52.3659 76.2323 51.9212 77.8005 51.7287L78.3762 51.658L78.4298 52.0947C78.6418 53.8217 77.7342 55.9482 75.8285 56.1822C74.3397 56.365 73.4882 55.5023 73.3737 54.5693ZM82.4623 56.2946L83.8122 56.1288L83.2248 51.3448C83.1663 50.8683 83.1499 50.4069 83.2178 49.9754C83.4721 48.2717 84.7973 46.9201 86.5044 46.7105C88.43 46.4741 88.8388 47.8344 89.0314 49.4026L89.7674 55.3976L91.1173 55.2319L90.3373 48.8796C90.0351 46.4181 88.9886 45.1159 86.5271 45.4181C84.1648 45.7082 83.0918 47.4721 82.8466 48.4291L82.8069 48.434C82.8069 48.434 82.8027 48.0718 82.7491 47.6351L82.5663 46.1462L81.2363 46.3096L82.4623 56.2946ZM91.9676 50.0496C92.3478 53.1464 94.2785 55.0855 96.9584 54.7565C99.5787 54.4347 100.146 52.3299 100.146 52.3299L100.186 52.325C100.186 52.325 100.181 52.6078 100.234 53.0445L100.363 54.0966L101.674 53.9357L99.96 39.9805L98.6102 40.1463L99.2073 45.0097C99.2585 45.4266 99.3396 45.7592 99.3396 45.7592L99.2999 45.7641C99.2999 45.7641 98.2346 43.9806 95.8128 44.278C93.1925 44.5997 91.58 46.8933 91.9676 50.0496ZM93.3571 49.879C93.0476 47.3579 94.3139 45.6912 96.0806 45.4743C98.2245 45.211 99.5005 47.0694 99.7491 49.0942C100.098 51.9328 98.6757 53.3165 97.0082 53.5212C95.1422 53.7503 93.6594 52.3405 93.3571 49.879ZM106.966 48.2282C107.344 51.3051 109.85 53.1736 112.828 52.808C115.071 52.5326 116.349 50.9651 116.349 50.9651L115.607 50.0084C115.607 50.0084 114.545 51.368 112.719 51.5922C110.654 51.8457 108.737 50.6706 108.363 48.1172L116.025 47.1763C116.025 47.1763 116.009 46.7149 115.98 46.4767C115.675 43.9953 114.005 42.0443 111.245 42.3831C108.546 42.7146 106.564 44.9528 106.966 48.2282ZM108.286 46.9982C108.357 44.9542 109.677 43.7242 111.345 43.5195C112.833 43.3367 114.223 44.1534 114.559 46.228L108.286 46.9982ZM117.104 49.2805C117.348 51.2656 119.195 52.0262 120.862 51.8215C123.363 51.5144 123.931 49.2482 123.931 49.2482L123.971 49.2434C123.971 49.2434 123.973 49.5857 124.034 50.082L124.168 51.1738L125.458 51.0154L124.673 44.6234C124.366 42.1221 122.873 40.9554 120.471 41.2504C118.228 41.5258 117.056 42.8182 117.056 42.8182L117.818 43.7724C117.818 43.7724 118.873 42.6758 120.52 42.4735C121.949 42.298 123.082 42.8239 123.318 44.7494L123.35 45.0075L122.794 45.0757C121.067 45.2878 116.69 45.9058 117.104 49.2805ZM118.484 49.0305C118.214 46.827 121.343 46.3824 122.911 46.1898L123.487 46.1191L123.54 46.5558C123.752 48.2829 122.845 50.4093 120.939 50.6433C119.45 50.8261 118.599 49.9635 118.484 49.0305ZM127.573 50.7557L128.923 50.59L128.406 46.3816C128.328 45.7463 128.324 45.0617 128.445 44.402C128.701 42.8795 129.617 41.6386 131.026 41.4656C131.284 41.4339 131.527 41.4443 131.527 41.4443L131.364 40.1143C131.364 40.1143 131.099 40.0865 130.821 40.1206C129.253 40.3131 128.282 41.601 127.991 43.1682L127.951 43.173C127.951 43.173 127.947 42.8108 127.894 42.3741L127.677 40.6074L126.347 40.7707L127.573 50.7557ZM133.656 50.0088L135.006 49.843L134.418 45.059C134.36 44.5825 134.344 44.1211 134.411 43.6896C134.666 41.9859 135.991 40.6343 137.698 40.4247C139.624 40.1883 140.032 41.5486 140.225 43.1168L140.961 49.1118L142.311 48.9461L141.531 42.5938C141.229 40.1323 140.182 38.8301 137.721 39.1323C135.359 39.4224 134.285 41.1863 134.04 42.1433L134.001 42.1482C134.001 42.1482 133.996 41.786 133.943 41.3493L133.76 39.8605L132.43 40.0238L133.656 50.0088ZM149.226 48.0971L150.575 47.9313L149.503 39.1969L152.064 38.8825L151.925 37.751L149.364 38.0654L149.306 37.589C149.033 35.3657 150.467 34.9074 151.242 34.8123C151.52 34.7782 151.723 34.7936 151.723 34.7936L151.574 33.5826C151.574 33.5826 151.331 33.5722 150.954 33.6185C149.822 33.7574 147.551 34.4595 147.956 37.7547L148.014 38.2312L146.764 38.3847L146.903 39.5162L148.153 39.3627L149.226 48.0971ZM152.751 42.6065C153.129 45.6834 155.635 47.5519 158.613 47.1863C160.856 46.9109 162.134 45.3434 162.134 45.3434L161.392 44.3867C161.392 44.3867 160.33 45.7463 158.504 45.9705C156.439 46.224 154.522 45.0489 154.148 42.4955L161.81 41.5546C161.81 41.5546 161.794 41.0932 161.765 40.855C161.46 38.3736 159.79 36.4226 157.03 36.7614C154.331 37.0929 152.349 39.3311 152.751 42.6065ZM154.071 41.3765C154.142 39.3325 155.462 38.1025 157.13 37.8978C158.618 37.715 160.008 38.5317 160.344 40.6063L154.071 41.3765ZM162.731 41.3812C163.108 44.4581 165.615 46.3265 168.592 45.9609C170.836 45.6855 172.114 44.118 172.114 44.118L171.372 43.1613C171.372 43.1613 170.31 44.5209 168.483 44.7451C166.419 44.9986 164.501 43.8236 164.128 41.2701L171.79 40.3293C171.79 40.3293 171.774 39.8678 171.744 39.6296C171.44 37.1482 169.769 35.1972 167.01 35.536C164.31 35.8675 162.328 38.1058 162.731 41.3812ZM164.051 40.1511C164.122 38.1072 165.442 36.8772 167.109 36.6724C168.598 36.4896 169.988 37.3063 170.323 39.3809L164.051 40.1511ZM173.054 43.9421C173.054 43.9421 174.503 45.2352 176.925 44.9379C178.93 44.6917 180.195 43.3474 179.995 41.7197C179.591 38.4244 174.284 39.6805 174.014 37.477C173.877 36.3654 174.796 35.8092 175.809 35.6849C177.456 35.4826 178.422 36.2909 178.422 36.2909L178.911 35.1831C178.911 35.1831 177.804 34.2108 175.7 34.4691C173.893 34.6909 172.405 35.861 172.624 37.6476C173.024 40.9032 178.338 39.7067 178.606 41.8903C178.735 42.9424 177.868 43.5929 176.796 43.7245C174.93 43.9536 173.669 42.8792 173.669 42.8792L173.054 43.9421ZM181.865 44.0894L183.433 43.8969L183.238 42.3088L181.67 42.5014L181.865 44.0894Z" fill="#483526"/>
<path opacity="0.7" d="M197.655 32.8161C197.455 33.0066 197.448 33.3231 197.638 33.523L200.744 36.7792C200.935 36.979 201.251 36.9865 201.451 36.7959C201.651 36.6053 201.658 36.2888 201.468 36.089L198.707 33.1946L201.601 30.4337C201.801 30.2431 201.809 29.9266 201.618 29.7268C201.427 29.527 201.111 29.5195 200.911 29.7101L197.655 32.8161ZM266.5 83.6779C266.995 83.6071 266.995 83.6069 266.995 83.6065C266.995 83.6063 266.995 83.6059 266.995 83.6056C266.995 83.6048 266.995 83.6039 266.994 83.6027C266.994 83.6004 266.994 83.5972 266.993 83.5932C266.992 83.5851 266.99 83.5737 266.988 83.5591C266.983 83.5297 266.976 83.4873 266.966 83.4324C266.947 83.3226 266.917 83.1629 266.874 82.9583C266.788 82.5491 266.648 81.9601 266.433 81.2317C266.003 79.7751 265.272 77.7581 264.066 75.5044C261.652 70.9944 257.333 65.5355 249.724 61.7306L249.276 62.6251C256.667 66.3202 260.848 71.6113 263.184 75.9763C264.353 78.1601 265.06 80.1119 265.474 81.5147C265.68 82.2159 265.814 82.7793 265.896 83.165C265.936 83.3579 265.964 83.5063 265.981 83.6052C265.99 83.6547 265.996 83.6918 266 83.7159C266.002 83.7279 266.003 83.7367 266.004 83.7422C266.004 83.7449 266.005 83.7468 266.005 83.7479C266.005 83.7484 266.005 83.7488 266.005 83.7489C266.005 83.7489 266.005 83.7489 266.005 83.7489C266.005 83.7487 266.005 83.7486 266.5 83.6779ZM249.724 61.7306C242.142 57.9397 234.554 57.0549 229.084 56.1225C226.319 55.6511 224.16 55.177 222.75 54.3622C222.059 53.9626 221.577 53.4965 221.289 52.9333C221.001 52.3713 220.881 51.6645 220.996 50.7399L220.004 50.6158C219.869 51.6912 219.999 52.6095 220.399 53.3893C220.798 54.1678 221.441 54.7603 222.25 55.2279C223.84 56.1475 226.181 56.6421 228.916 57.1082C234.446 58.0508 241.858 58.916 249.276 62.6251L249.724 61.7306ZM220.996 50.7399C221.088 50.0058 221.616 49.4449 222.719 49.0455C223.829 48.6436 225.406 48.4549 227.337 48.42C231.192 48.3503 236.248 48.8927 241.329 49.3632C246.381 49.831 251.462 50.228 255.285 49.8394C257.193 49.6454 258.848 49.2511 260.039 48.5281C261.262 47.7857 262 46.6892 262 45.1779H261C261 46.2915 260.488 47.0856 259.52 47.6733C258.52 48.2804 257.042 48.6556 255.184 48.8445C251.475 49.2215 246.494 48.8372 241.421 48.3675C236.377 47.9005 231.245 47.3492 227.319 47.4201C225.359 47.4555 223.648 47.6457 222.379 48.1052C221.103 48.567 220.162 49.3499 220.004 50.6158L220.996 50.7399ZM262 45.1779C262 43.588 260.801 42.2862 259.029 41.2193C257.234 40.1379 254.702 39.2035 251.709 38.3907C245.717 36.7627 237.747 35.5876 229.803 34.7432C221.853 33.8981 213.906 33.3819 207.947 33.0769C204.968 32.9245 202.485 32.8247 200.746 32.7631C199.877 32.7323 199.194 32.7111 198.728 32.6975C198.495 32.6907 198.316 32.6858 198.195 32.6827C198.135 32.6811 198.089 32.6799 198.058 32.6791C198.043 32.6788 198.031 32.6785 198.024 32.6783C198.02 32.6782 198.017 32.6781 198.015 32.6781C198.014 32.678 198.013 32.678 198.013 32.678C198.012 32.678 198.012 32.678 198 33.1779C197.988 33.6777 197.988 33.6777 197.989 33.6777C197.989 33.6777 197.99 33.6778 197.991 33.6778C197.993 33.6778 197.996 33.6779 197.999 33.678C198.007 33.6782 198.018 33.6785 198.034 33.6788C198.064 33.6796 198.109 33.6807 198.169 33.6823C198.289 33.6855 198.467 33.6903 198.699 33.6971C199.163 33.7106 199.844 33.7318 200.711 33.7625C202.445 33.8239 204.923 33.9235 207.896 34.0756C213.844 34.3801 221.772 34.8951 229.697 35.7376C237.628 36.5806 245.533 37.7492 251.447 39.3557C254.408 40.16 256.836 41.0655 258.513 42.0759C260.215 43.1007 261 44.1427 261 45.1779H262Z" fill="#483526"/>
</svg>
