<svg width="263" height="146" viewBox="0 0 263 146" fill="none" xmlns="http://www.w3.org/2000/svg">
<path opacity="0.7" d="M96.1753 41.9918C96.7171 45.0644 99.3538 46.7725 102.289 46.2551C104.81 45.8105 105.875 44.0184 105.875 44.0184L105.08 43.0821C105.08 43.0821 104.164 44.6855 102.155 45.0397C99.9692 45.4252 97.9639 44.0729 97.5541 41.7487C97.1373 39.3852 98.5464 37.4714 100.713 37.0894C102.505 36.7734 103.82 37.7803 103.82 37.7803L104.332 36.6543C104.332 36.6543 102.881 35.448 100.458 35.8752C97.5432 36.3892 95.637 38.9389 96.1753 41.9918ZM105.951 40.2073C106.478 43.2011 109.218 45.0332 112.114 44.5226C115.009 44.0121 116.957 41.3535 116.429 38.3597C115.911 35.4249 113.179 33.6322 110.283 34.1428C107.388 34.6533 105.433 37.2726 105.951 40.2073ZM107.329 39.9642C106.933 37.7188 108.371 35.739 110.499 35.3639C112.626 34.9889 114.654 36.3574 115.05 38.6028C115.456 40.9072 114.029 42.9461 111.902 43.3212C109.774 43.6963 107.736 42.2686 107.329 39.9642ZM118.829 43.0948L120.168 42.8587L119.342 38.171C119.262 37.718 119.221 37.258 119.247 36.827C119.393 35.2375 120.368 33.6237 121.983 33.339C123.854 33.009 124.328 34.4283 124.592 35.9252L125.644 41.8932L126.983 41.657L126.157 36.9693C126.063 36.4375 126.019 35.9579 126.08 35.5003C126.198 33.9768 127.202 32.4186 128.719 32.1512C130.531 31.8317 131.102 33.112 131.387 34.7271L132.439 40.695L133.778 40.4588L132.667 34.1561C132.236 31.7138 131.103 30.4716 128.701 30.8953C127.026 31.1905 125.79 32.5864 125.494 34.0195L125.455 34.0265C124.871 32.4438 123.777 31.7636 121.945 32.0865C120.408 32.3574 119.038 33.7973 118.801 35.22L118.762 35.227C118.762 35.227 118.739 34.8655 118.662 34.4322L118.402 32.955L117.082 33.1877L118.829 43.0948ZM135.886 40.0872L137.226 39.851L136.399 35.1633C136.319 34.7103 136.279 34.2504 136.304 33.8194C136.45 32.2298 137.425 30.6161 139.04 30.3313C140.911 30.0014 141.385 31.4207 141.649 32.9176L142.701 38.8855L144.04 38.6494L143.214 33.9617C143.12 33.4299 143.076 32.9502 143.138 32.4926C143.255 30.9691 144.259 29.411 145.776 29.1436C147.588 28.824 148.159 30.1043 148.444 31.7194L149.496 37.6874L150.836 37.4512L149.724 31.1484C149.294 28.7061 148.161 27.464 145.758 27.8877C144.084 28.1829 142.847 29.5788 142.552 31.0119L142.512 31.0188C141.928 29.4361 140.834 28.7559 139.002 29.0789C137.466 29.3498 136.095 30.7897 135.858 32.2124L135.819 32.2193C135.819 32.2193 135.796 31.8579 135.719 31.4245L135.459 29.9473L134.139 30.18L135.886 40.0872ZM152.17 33.4995C152.625 36.0797 153.832 37.1666 156.156 36.7567C158.342 36.3713 159.371 34.6057 159.595 33.5712L159.635 33.5642C159.635 33.5642 159.658 33.9257 159.734 34.359L159.995 35.8362L161.295 35.607L159.548 25.6998L158.208 25.936L159.045 30.6828C159.424 32.8297 158.376 35.0655 156.111 35.4649C154.201 35.8018 153.721 34.4648 153.447 32.9088L152.398 26.9605L151.059 27.1967L152.17 33.4995ZM163.538 35.2115L164.877 34.9753L164.04 30.2285C163.957 29.7558 163.916 29.2959 163.961 28.8614C164.126 27.1468 165.379 25.7277 167.073 25.429C168.983 25.0921 169.463 26.4292 169.737 27.9852L170.786 33.9334L172.125 33.6973L171.014 27.3945C170.583 24.9522 169.47 23.7065 167.028 24.1372C164.684 24.5505 163.705 26.3681 163.51 27.3367L163.47 27.3436C163.47 27.3436 163.447 26.9821 163.371 26.5488L163.11 25.0716L161.791 25.3043L163.538 35.2115ZM172.043 21.1612L173.441 20.9146L173.146 19.2404L171.747 19.487L172.043 21.1612ZM174.228 33.3264L175.568 33.0903L173.821 23.1831L172.481 23.4193L174.228 33.3264ZM177.56 29.0225C178.143 32.3315 180.514 32.2994 181.656 32.0979C182.011 32.0354 182.22 31.9578 182.22 31.9578L182.009 30.7563C182.009 30.7563 181.838 30.827 181.563 30.8756C180.814 31.0076 179.285 30.9726 178.875 28.6485L178.007 23.7244L180.488 23.2868L180.291 22.1642L177.809 22.6018L177.305 19.7458L175.986 19.9785L176.489 22.8344L175.17 23.0671L175.367 24.1898L176.667 23.9606L177.56 29.0225ZM182.582 35.509C182.582 35.509 183.395 35.9749 184.419 35.7943C185.739 35.5616 186.621 34.5735 186.911 33.2226L189.684 20.386L188.226 20.643L186.645 28.3751C186.535 28.9022 186.494 29.478 186.494 29.478L186.455 29.485C186.455 29.485 186.2 28.9613 185.916 28.5036L181.726 21.7891L180.249 22.0496L186.118 31.1487L185.754 32.6547C185.52 33.6302 185.035 34.4469 184.168 34.5998C183.538 34.7109 182.906 34.3551 182.906 34.3551L182.582 35.509ZM196.583 29.3848L197.883 29.1555L197.726 28.2692C197.643 27.7965 197.545 27.4686 197.545 27.4686L197.584 27.4617C197.584 27.4617 198.811 29.2356 201.174 28.8189C203.774 28.3604 205.284 25.9821 204.732 22.8504C204.19 19.7778 202.16 17.9424 199.501 18.4112C196.961 18.8592 196.47 20.9156 196.47 20.9156L196.431 20.9226C196.431 20.9226 196.408 20.5611 196.328 20.1081L195.48 15.3022L194.141 15.5384L196.583 29.3848ZM197.014 24.2315C196.518 21.415 197.865 19.9588 199.52 19.6671C201.371 19.3406 202.926 20.6709 203.353 23.0935C203.798 25.6146 202.62 27.3454 200.867 27.6545C198.74 28.0295 197.365 26.2208 197.014 24.2315ZM206.423 23.9332C206.878 26.5134 208.085 27.6003 210.409 27.1905C212.595 26.805 213.624 25.0395 213.848 24.0049L213.887 23.998C213.887 23.998 213.911 24.3594 213.987 24.7928L214.247 26.27L215.547 26.0408L213.801 16.1336L212.461 16.3698L213.298 21.1165C213.677 23.2634 212.629 25.4993 210.364 25.8987C208.453 26.2356 207.974 24.8985 207.7 23.3425L206.651 17.3943L205.311 17.6304L206.423 23.9332ZM215.605 13.4799L217.003 13.2334L216.708 11.5592L215.31 11.8058L215.605 13.4799ZM217.791 25.6452L219.13 25.4091L217.383 15.5019L216.044 15.7381L217.791 25.6452ZM220.872 22.6852C221.254 24.8518 222.757 24.8508 223.584 24.705C223.84 24.6598 224.069 24.5787 224.069 24.5787L223.857 23.3773C223.857 23.3773 223.703 23.4248 223.526 23.456C223.014 23.5463 222.388 23.4535 222.159 22.1536L220.183 10.9465L218.844 11.1826L220.872 22.6852ZM225.004 20.6569C225.587 23.9658 227.958 23.9337 229.1 23.7323C229.455 23.6698 229.664 23.5922 229.664 23.5922L229.453 22.3907C229.453 22.3907 229.282 22.4614 229.006 22.51C228.258 22.642 226.729 22.607 226.319 20.2828L225.451 15.3588L227.932 14.9212L227.734 13.7985L225.253 14.2361L224.749 11.3802L223.429 11.6129L223.933 14.4688L222.613 14.7015L222.811 15.8242L224.111 15.595L225.004 20.6569ZM230.309 25.4079L231.451 25.2064L232.287 21.4238L230.81 21.6843L230.309 25.4079ZM100.517 66.612C101.058 69.6846 103.695 71.3927 106.63 70.8753C109.151 70.4307 110.216 68.6386 110.216 68.6386L109.421 67.7023C109.421 67.7023 108.506 69.3057 106.497 69.6599C104.31 70.0454 102.305 68.6931 101.895 66.3689C101.479 64.0054 102.888 62.0916 105.054 61.7096C106.847 61.3936 108.161 62.4005 108.161 62.4005L108.674 61.2745C108.674 61.2745 107.222 60.0682 104.799 60.4954C101.884 61.0094 99.9782 63.5591 100.517 66.612ZM110.292 64.8275C110.82 67.8213 113.559 69.6534 116.455 69.1428C119.35 68.6323 121.298 65.9737 120.77 62.9799C120.253 60.0451 117.52 58.2524 114.624 58.763C111.729 59.2735 109.774 61.8927 110.292 64.8275ZM111.67 64.5844C111.275 62.339 112.713 60.3592 114.84 59.9841C116.967 59.609 118.995 60.9776 119.391 63.223C119.798 65.5274 118.37 67.5663 116.243 67.9414C114.116 68.3165 112.077 66.8888 111.67 64.5844ZM123.17 67.715L124.51 67.4789L123.683 62.7912C123.603 62.3382 123.563 61.8782 123.588 61.4472C123.734 59.8577 124.709 58.2439 126.324 57.9591C128.195 57.6292 128.669 59.0485 128.933 60.5454L129.985 66.5134L131.324 66.2772L130.498 61.5895C130.404 61.0577 130.36 60.5781 130.422 60.1204C130.539 58.5969 131.544 57.0388 133.06 56.7714C134.872 56.4519 135.443 57.7322 135.728 59.3473L136.78 65.3152L138.12 65.079L137.008 58.7763C136.578 56.3339 135.445 55.0918 133.042 55.5155C131.368 55.8107 130.131 57.2066 129.836 58.6397L129.796 58.6467C129.212 57.064 128.118 56.3837 126.286 56.7067C124.75 56.9776 123.379 58.4175 123.142 59.8402L123.103 59.8472C123.103 59.8472 123.08 59.4857 123.003 59.0524L122.743 57.5752L121.423 57.8079L123.17 67.715ZM140.227 64.7074L141.567 64.4712L140.74 59.7835C140.66 59.3305 140.62 58.8706 140.645 58.4396C140.792 56.85 141.766 55.2363 143.381 54.9515C145.252 54.6216 145.726 56.0409 145.99 57.5378L147.042 63.5057L148.382 63.2696L147.555 58.5819C147.461 58.0501 147.417 57.5704 147.479 57.1128C147.596 55.5893 148.601 54.0312 150.117 53.7638C151.929 53.4442 152.5 54.7245 152.785 56.3396L153.837 62.3076L155.177 62.0714L154.065 55.7686C153.635 53.3263 152.502 52.0842 150.099 52.5079C148.425 52.8031 147.188 54.199 146.893 55.6321L146.853 55.639C146.27 54.0563 145.175 53.3761 143.343 53.6991C141.807 53.97 140.436 55.4099 140.2 56.8326L140.16 56.8395C140.16 56.8395 140.137 56.478 140.061 56.0447L139.8 54.5675L138.48 54.8002L140.227 64.7074ZM156.511 58.1197C156.966 60.6998 158.173 61.7868 160.497 61.3769C162.684 60.9914 163.713 59.2259 163.936 58.1914L163.976 58.1844C163.976 58.1844 163.999 58.5459 164.075 58.9792L164.336 60.4564L165.636 60.2272L163.889 50.32L162.549 50.5562L163.386 55.303C163.765 57.4498 162.717 59.6857 160.452 60.0851C158.542 60.422 158.062 59.085 157.788 57.529L156.739 51.5807L155.4 51.8169L156.511 58.1197ZM167.879 59.8317L169.218 59.5955L168.381 54.8487C168.298 54.376 168.257 53.9161 168.303 53.4816C168.467 51.7669 169.72 50.3479 171.414 50.0492C173.324 49.7123 173.804 51.0494 174.078 52.6054L175.127 58.5536L176.466 58.3175L175.355 52.0147C174.924 49.5724 173.811 48.3267 171.369 48.7574C169.025 49.1707 168.046 50.9883 167.851 51.9569L167.812 51.9638C167.812 51.9638 167.789 51.6023 167.712 51.169L167.452 49.6918L166.132 49.9245L167.879 59.8317ZM176.384 45.7814L177.782 45.5348L177.487 43.8606L176.089 44.1072L176.384 45.7814ZM178.569 57.9466L179.909 57.7105L178.162 47.8033L176.823 48.0395L178.569 57.9466ZM181.901 53.6427C182.485 56.9517 184.855 56.9195 185.997 56.7181C186.352 56.6556 186.562 56.578 186.562 56.578L186.35 55.3765C186.35 55.3765 186.18 55.4472 185.904 55.4958C185.155 55.6278 183.626 55.5928 183.216 53.2687L182.348 48.3446L184.83 47.907L184.632 46.7844L182.15 47.2219L181.646 44.366L180.327 44.5987L180.83 47.4546L179.511 47.6873L179.709 48.81L181.009 48.5808L181.901 53.6427ZM186.923 60.1292C186.923 60.1292 187.736 60.5951 188.761 60.4145C190.08 60.1818 190.962 59.1936 191.252 57.8428L194.025 45.0062L192.567 45.2632L190.986 52.9953C190.876 53.5224 190.835 54.0982 190.835 54.0982L190.796 54.1052C190.796 54.1052 190.541 53.5815 190.257 53.1238L186.068 46.4093L184.59 46.6698L190.46 55.7688L190.096 57.2749C189.861 58.2504 189.376 59.0671 188.509 59.22C187.879 59.3311 187.248 58.9753 187.248 58.9753L186.923 60.1292ZM199.313 49.1306C199.841 52.1244 202.581 53.9565 205.476 53.446C208.371 52.9355 210.319 50.2768 209.791 47.283C209.274 44.3483 206.541 42.5556 203.646 43.0661C200.75 43.5766 198.795 46.1959 199.313 49.1306ZM200.692 48.8875C200.296 46.6422 201.734 44.6624 203.861 44.2873C205.988 43.9122 208.017 45.2808 208.413 47.5261C208.819 49.8306 207.391 51.8695 205.264 52.2445C203.137 52.6196 201.098 51.192 200.692 48.8875ZM214.26 51.6535L215.717 51.3965L216.896 43.9181C216.967 43.3979 217.004 42.8024 217.004 42.8024L217.044 42.7955C217.044 42.7955 217.282 43.3424 217.546 43.8035L221.212 50.4276L222.67 50.1706L224.271 39.673L222.853 39.923L221.753 47.7328C221.682 48.253 221.645 48.8485 221.645 48.8485L221.605 48.8554C221.605 48.8554 221.363 48.2889 221.122 47.8439L217.385 40.9279L216.065 41.1606L214.918 48.9379C214.844 49.4384 214.81 50.0536 214.81 50.0536L214.771 50.0606C214.771 50.0606 214.529 49.494 214.288 49.0491L210.582 42.0867L209.164 42.3367L214.26 51.6535ZM226.979 49.4107L228.318 49.1746L227.481 44.4278C227.398 43.9551 227.357 43.4951 227.403 43.0607C227.567 41.346 228.82 39.9269 230.514 39.6283C232.424 39.2914 232.904 40.6285 233.178 42.1844L234.227 48.1327L235.566 47.8965L234.455 41.5938C234.024 39.1514 232.911 37.9058 230.469 38.3365C228.125 38.7497 227.146 40.5674 226.951 41.5359L226.912 41.5429C226.912 41.5429 226.889 41.1814 226.812 40.7481L226.552 39.2709L225.232 39.5036L226.979 49.4107ZM236.108 42.7035C236.647 45.7564 239.247 47.4912 242.202 46.9702C244.428 46.5778 245.622 44.9455 245.622 44.9455L244.831 44.029C244.831 44.029 243.841 45.4423 242.029 45.7618C239.981 46.123 238.005 45.0499 237.498 42.5195L245.1 41.1789C245.1 41.1789 245.06 40.719 245.018 40.4826C244.584 38.0206 242.814 36.1597 240.076 36.6424C237.398 37.1148 235.535 39.4537 236.108 42.7035ZM237.362 41.4061C237.327 39.3612 238.58 38.0638 240.235 37.7721C241.712 37.5116 243.143 38.2544 243.586 40.3086L237.362 41.4061ZM246.046 40.9309C246.588 44.0035 248.618 45.839 251.277 45.3701C253.876 44.9117 254.333 42.78 254.333 42.78L254.373 42.773C254.373 42.773 254.382 43.0557 254.458 43.489L254.642 44.5329L255.942 44.3037L253.501 30.4573L252.161 30.6935L253.012 35.519C253.085 35.9327 253.184 36.2605 253.184 36.2605L253.144 36.2675C253.144 36.2675 251.987 34.5422 249.584 34.9659C246.984 35.4244 245.494 37.7992 246.046 40.9309ZM247.425 40.6878C246.984 38.1864 248.161 36.4556 249.914 36.1466C252.041 35.7715 253.413 37.5605 253.767 39.5695C254.264 42.3861 252.916 43.8422 251.262 44.1339C249.41 44.4604 247.856 43.1301 247.425 40.6878ZM258.224 43.9013L259.78 43.627L259.503 42.0513L257.947 42.3256L258.224 43.9013Z" fill="#483526"/>
<path opacity="0.7" d="M79.514 57.9345C79.754 57.798 79.838 57.4928 79.7015 57.2527L77.4772 53.3409C77.3407 53.1008 77.0355 53.0169 76.7954 53.1534C76.5554 53.2899 76.4714 53.5951 76.6079 53.8352L78.5851 57.3124L75.1079 59.2895C74.8678 59.426 74.7839 59.7313 74.9204 59.9713C75.0568 60.2114 75.3621 60.2953 75.6021 60.1588L79.514 57.9345ZM11.3221 145.089C11.7633 144.853 11.7636 144.854 11.7638 144.854C11.7638 144.854 11.764 144.855 11.7641 144.855C11.7643 144.855 11.7645 144.856 11.7645 144.856C11.7646 144.856 11.7644 144.855 11.7639 144.854C11.7628 144.852 11.7607 144.848 11.7575 144.841C11.751 144.828 11.7403 144.806 11.7263 144.774C11.6982 144.71 11.6564 144.609 11.6077 144.47C11.5103 144.192 11.3846 143.763 11.2836 143.178C11.0818 142.01 10.9773 140.216 11.3985 137.765C12.241 132.863 15.1912 125.315 23.709 114.905L22.935 114.272C14.3426 124.773 11.2928 132.476 10.4129 137.596C9.97289 140.156 10.0766 142.066 10.2982 143.349C10.409 143.99 10.5489 144.473 10.6641 144.801C10.7217 144.965 10.7731 145.091 10.8114 145.178C10.8306 145.221 10.8466 145.255 10.8584 145.279C10.8643 145.291 10.8692 145.301 10.873 145.309C10.8749 145.312 10.8765 145.315 10.8778 145.318C10.8785 145.319 10.879 145.32 10.8795 145.321C10.8798 145.322 10.8801 145.322 10.8802 145.323C10.8805 145.323 10.8808 145.324 11.3221 145.089ZM23.709 114.905C32.2088 104.517 41.2434 99.0572 47.4828 94.8488C50.5782 92.7609 53.0622 90.9339 54.3727 88.9295C55.0394 87.9099 55.4137 86.8301 55.4091 85.6403C55.4044 84.4563 55.0248 83.2071 54.2579 81.8437L53.3863 82.334C54.0959 83.5956 54.4053 84.6773 54.4091 85.6442C54.4128 86.6054 54.1149 87.4966 53.5358 88.3823C52.3548 90.1884 50.0528 91.9091 46.9236 94.0197C40.714 98.2081 31.5454 103.748 22.935 114.272L23.709 114.905ZM54.2579 81.8437C53.4299 80.3717 51.9896 79.5135 50.1913 79.0886C48.4007 78.6655 46.2103 78.6594 43.7884 78.9199C38.9434 79.4409 33.022 81.0476 27.207 82.7336C21.3689 84.4263 15.6417 86.1975 11.1175 87.0825C8.85375 87.5254 6.93302 87.7372 5.4728 87.6198C3.99642 87.501 3.13766 87.0608 2.76396 86.3549L1.88017 86.8228C2.49913 87.9919 3.80966 88.4892 5.39262 88.6166C6.99174 88.7452 9.02039 88.5117 11.3095 88.0639C15.8909 87.1677 21.6831 85.3764 27.4854 83.6941C33.3108 82.0051 39.1507 80.4243 43.8953 79.9141C46.2682 79.6589 48.3297 79.6763 49.9613 80.0618C51.5853 80.4455 52.7377 81.181 53.3863 82.334L54.2579 81.8437ZM2.76396 86.3549C1.8015 84.537 1.34186 82.7974 1.54889 81.0543C1.75567 79.3133 2.63573 77.5005 4.48106 75.5508C8.19415 71.6277 15.7052 67.2633 28.9525 61.9642L28.5811 61.0357C15.3283 66.3371 7.63169 70.7672 3.75478 74.8634C1.80511 76.9234 0.794584 78.9265 0.555867 80.9364C0.317394 82.9442 0.857328 84.8908 1.88017 86.8228L2.76396 86.3549ZM28.9525 61.9642C42.1216 56.6964 54.6736 55.7011 63.937 56.0244C68.5678 56.1861 72.3735 56.6771 75.019 57.1271C76.3416 57.3521 77.3738 57.5667 78.0738 57.7247C78.4237 57.8037 78.6906 57.8685 78.8691 57.9133C78.9583 57.9357 79.0255 57.9531 79.0699 57.9648C79.0921 57.9706 79.1086 57.9751 79.1194 57.978C79.1248 57.9794 79.1287 57.9805 79.1312 57.9811C79.1324 57.9815 79.1333 57.9817 79.1338 57.9819C79.1341 57.9819 79.1342 57.982 79.1343 57.982C79.1343 57.982 79.1343 57.982 79.2668 57.4999C79.3994 57.0178 79.3992 57.0177 79.3988 57.0176C79.3986 57.0175 79.3982 57.0174 79.3977 57.0173C79.3967 57.017 79.3954 57.0167 79.3937 57.0162C79.3904 57.0153 79.3856 57.014 79.3793 57.0123C79.3668 57.0089 79.3485 57.0041 79.3245 56.9977C79.2764 56.9851 79.2056 56.9667 79.1126 56.9434C78.9266 56.8967 78.652 56.83 78.2939 56.7492C77.5778 56.5876 76.5281 56.3695 75.1867 56.1413C72.504 55.685 68.6535 55.1885 63.9718 55.025C54.6102 54.6983 41.9122 55.7031 28.5811 61.0357L28.9525 61.9642Z" fill="#483526"/>
</svg>
