<svg width="26" height="27" viewBox="0 0 26 27" fill="none" xmlns="http://www.w3.org/2000/svg">
<path fill-rule="evenodd" clip-rule="evenodd" d="M7.06282 0H13.8871L8.5758 11.3459L8.57575 11.346C8.111 12.3388 7.87862 12.8352 7.94903 13.2145C8.01099 13.548 8.232 13.8192 8.5805 13.9892C8.97663 14.1824 9.61362 14.1824 10.8876 14.1824H15.4372C15.7557 14.1824 15.9149 14.1824 16.0139 14.2307C16.1011 14.2732 16.1563 14.341 16.1718 14.4244C16.1894 14.5192 16.1313 14.6433 16.0151 14.8916L13.8574 19.5008H8.85291C5.03092 19.5008 3.11993 19.5008 1.93149 18.9211C0.886102 18.4113 0.222986 17.5976 0.0371778 16.5969C-0.174056 15.4593 0.523119 13.9699 1.91747 10.9914L7.06282 0ZM18.6964 27H11.8721L17.1834 15.6541L17.1834 15.6541C17.6482 14.6612 17.8806 14.1648 17.8102 13.7856C17.7482 13.452 17.5272 13.1808 17.1788 13.0109C16.7826 12.8176 16.1456 12.8176 14.8716 12.8176H10.3221H10.3221C10.0036 12.8176 9.84433 12.8176 9.74529 12.7693C9.6582 12.7268 9.60293 12.659 9.58745 12.5757C9.56982 12.4809 9.62791 12.3567 9.74413 12.1085L11.9018 7.49923H16.9063C20.7283 7.49923 22.6393 7.49923 23.8278 8.07892C24.8731 8.58879 25.5362 9.40241 25.7221 10.4031C25.9333 11.5408 25.2361 13.0301 23.8418 16.0086L23.8418 16.0087L18.6964 27Z" fill="white"/>
</svg>
