<svg width="178" height="38" viewBox="0 0 178 38" fill="none" xmlns="http://www.w3.org/2000/svg">
<path fill-rule="evenodd" clip-rule="evenodd" d="M0 16.843V29.6564H2.41045H4.82091L4.8265 24.6453C4.83132 20.3166 4.89577 19.4958 5.30047 18.6191C5.92566 17.2645 6.75841 16.5426 8.02351 16.2584C9.88059 15.8413 11.4859 16.6834 12.5232 18.6191C13.0167 19.5402 13.0748 20.0982 13.1497 24.6453L13.2321 29.6564H15.4967H17.7613V24.5011C17.7613 18.6582 17.5385 17.4355 16.0813 15.2823C14.5609 13.0358 12.3129 11.8295 9.63599 11.8239C7.99484 11.8207 5.87238 12.4892 5.473 13.1352C4.95538 13.9725 4.82091 13.0621 4.82091 8.72358V4.02954H2.41045H0V16.843ZM54.2986 8.59672C54.2986 11.1087 54.2452 13.1639 54.1796 13.1639C54.1143 13.1639 53.6146 12.9315 53.0699 12.6475C49.939 11.0158 45.6764 11.7049 43.1089 14.2582C38.6941 18.6486 40.0131 26.776 45.5639 29.3851C47.8427 30.4562 51.2715 30.2853 53.1554 29.007C54.2958 28.2328 54.4816 28.8689 54.6793 29.6564C54.6793 29.6564 54.884 29.6564 56.9677 29.6564H59.1197V16.843V4.02954H56.7091H54.2986V8.59672ZM148.083 10.655C146.443 11.0399 144.153 12.4182 142.974 13.7297C139.025 18.1216 139.235 24.2184 143.427 26.9096C144.59 27.6561 144.98 27.7636 146.801 27.8414C148.489 27.9134 149.093 27.8289 150.151 27.374C150.861 27.0685 151.639 26.6007 151.88 26.3346C152.438 25.7178 152.747 25.7189 152.747 26.3372C152.747 27.4284 153.004 27.6266 154.423 27.6266C155.176 27.6266 155.792 27.5628 155.792 27.4846C155.792 27.4065 156.298 24.1239 156.916 20.1898C157.534 16.2559 158.119 12.4882 158.215 11.8176L158.391 10.5979L157.036 10.6758C155.821 10.7453 155.641 10.8318 155.292 11.5146C155.078 11.9333 154.882 12.3159 154.857 12.3649C154.831 12.4139 154.403 12.1437 153.906 11.7643C152.219 10.4781 150.352 10.1224 148.083 10.655ZM168.551 10.741C167.963 10.9247 166.971 11.3743 166.346 11.7402C165.148 12.4425 165.093 12.4273 164.829 11.3243C164.675 10.6793 164.567 10.6266 163.403 10.6266C162.306 10.6266 162.128 10.6997 162.015 11.1975C161.943 11.5116 161.14 16.5068 160.231 22.2983C159.321 28.0897 158.509 33.199 158.424 33.6528L158.272 34.4773H159.933C161.296 34.4773 161.616 34.3981 161.72 34.0333C161.79 33.7893 162.103 31.8767 162.416 29.7834C162.728 27.6901 163.008 25.9426 163.039 25.9001C163.069 25.8574 163.42 26.1293 163.819 26.5044C164.927 27.5455 165.983 27.8803 168.153 27.8802C169.801 27.8802 170.379 27.7601 171.65 27.1542C174.662 25.7185 176.738 23.03 177.508 19.5694C177.869 17.9468 177.885 17.453 177.615 16.2386C177.186 14.3072 176.573 13.1766 175.362 12.0825C173.664 10.5482 170.905 10.0049 168.551 10.741ZM113.836 10.8204C113.729 10.9942 116.062 24.7214 116.596 27.0557C116.717 27.5832 116.866 27.6266 118.566 27.6266H120.406L122.987 22.3618C124.408 19.4661 125.648 16.8684 125.744 16.5893C125.853 16.2726 126.295 18.1335 126.919 21.5371C127.469 24.5375 127.964 27.1351 128.019 27.3094C128.087 27.5241 128.702 27.6266 129.923 27.6266H131.727L135.767 19.3791C137.988 14.8431 139.806 11.0128 139.806 10.8676C139.806 10.7035 139.17 10.6319 138.13 10.6783L136.453 10.7534L133.642 16.843C132.096 20.1923 130.795 22.9802 130.751 23.0383C130.551 23.3063 130.383 22.5429 129.421 16.9793C128.856 13.7117 128.295 10.9389 128.173 10.8171C128.051 10.6953 127.394 10.6314 126.711 10.6748L125.471 10.7534L122.507 16.7162C120.876 19.9956 119.493 22.7931 119.433 22.9325C119.373 23.0721 119.262 23.1293 119.187 23.0595C119.112 22.9897 118.65 20.2836 118.16 17.046C117.67 13.8084 117.208 11.0584 117.131 10.9351C116.949 10.6398 114.011 10.5378 113.836 10.8204ZM26.3881 11.9919C24.0761 12.5017 22.5892 13.5171 21.2151 15.5246C18.0604 20.1332 19.713 26.9523 24.5595 29.3233C25.7741 29.9176 26.3295 30.0308 28.0362 30.0312C30.3852 30.0319 31.6687 29.652 32.8659 28.6007L33.7183 27.8525L33.8875 28.7546L34.0566 29.6564H36.185H38.3136V21.0296V12.4027H36.1769H34.0405L33.8738 13.1619L33.7071 13.9208L32.8886 13.2966C31.1251 11.9516 28.7407 11.473 26.3881 11.9919ZM69.4547 11.9021C66.6568 12.3789 64.1724 14.2709 62.8716 16.9158C62.106 18.4725 62.0375 18.8094 62.0375 21.0257C62.0375 23.2944 62.09 23.537 62.9078 25.0451C65.2838 29.4274 70.8737 31.2961 75.9382 29.4014C78.2779 28.5261 78.3206 28.4568 77.5124 26.8485C77.1315 26.0903 76.7878 25.4336 76.7484 25.3893C76.7093 25.3449 76.0743 25.4876 75.3374 25.7065C73.6272 26.2143 71.0444 26.2167 69.8316 25.7113C68.7794 25.2731 66.9337 23.6016 67.1375 23.2718C67.2099 23.1551 70.0596 23.0595 73.4704 23.0595H79.6718V21.1969C79.6718 18.9064 79.2146 17.3193 78.0485 15.5629C76.2154 12.8021 72.7741 11.3363 69.4547 11.9021ZM151.508 13.9723C152.67 14.6257 153.762 16.5702 153.762 17.9886C153.762 22.118 149.798 25.9142 146.592 24.8558C143.191 23.7336 142.593 18.8107 145.461 15.552C147.283 13.4829 149.572 12.8845 151.508 13.9723ZM172.029 13.955C175.011 15.6307 174.882 20.511 171.779 23.4129C170.387 24.7153 168.938 25.2159 167.28 24.9674C164.845 24.6021 163.634 22.4291 164.134 19.324C164.561 16.67 165.627 15.0144 167.515 14.0738C169.153 13.2573 170.715 13.2162 172.029 13.955ZM31.475 16.7803C32.6191 17.5514 33.245 18.7024 33.4148 20.3483C33.6578 22.7025 32.7319 24.5139 30.8485 25.3694C28.1496 26.5952 25.17 25.1084 24.3811 22.1422C23.8566 20.1699 24.7805 17.8617 26.5097 16.8253C27.9161 15.9821 30.2588 15.9608 31.475 16.7803ZM52.2948 16.7816C54.5679 18.2923 54.9848 22.3324 53.0791 24.387C50.9732 26.6579 47.0602 26.0545 45.7024 23.2497C44.0286 19.7921 46.1553 16.212 49.8842 16.2097C51.069 16.2089 51.6349 16.3432 52.2948 16.7816ZM72.7348 16.6256C73.5969 17.0346 74.8509 18.5516 74.8509 19.1855C74.8509 19.4313 73.9249 19.5072 70.9182 19.5072C66.5649 19.5072 66.5521 19.5011 67.6012 17.9574C68.7156 16.3175 70.8945 15.7522 72.7348 16.6256Z" fill="#1A1C1E"/>
<path d="M93.3736 4.28359C92.7629 3.67285 92.7392 3.30926 93.2613 2.56405C93.6349 2.03045 93.8337 2 96.9568 2C98.7723 2 100.479 2.11824 100.749 2.26261C101.068 2.43363 101.239 2.79368 101.239 3.29505C101.239 3.96211 100.255 5.06763 93.8458 11.5959C89.4444 16.0791 86.3018 19.4832 86.0804 20.0074C85.5171 21.3403 85.7652 23.3183 86.6396 24.4647C87.3559 25.4037 89.0041 26.3436 89.9483 26.3512C91.8176 26.3666 92.3507 25.9599 97.9409 20.2515C102.421 15.6769 103.52 14.6815 104.088 14.6838C105.018 14.6876 105.738 15.7353 105.361 16.5366C105.216 16.8448 102.762 19.4948 99.9082 22.4254C94.1638 28.3244 93.3265 28.9295 90.6691 29.1035C87.806 29.2904 85.2901 27.9354 83.8093 25.4089C83.2617 24.4743 82.9324 23.8555 82.8437 22.1716C82.6653 18.7686 83.1242 18.305 90.1202 11.2383L90.1952 11.1625C93.4785 7.84598 96.1648 5.05569 96.1648 4.96181C96.1648 4.86793 95.6509 4.79105 95.023 4.79105C94.2194 4.79105 93.7307 4.64059 93.3736 4.28359Z" fill="url(#paint0_linear_473_2987)"/>
<path d="M93.3736 4.28359C92.7629 3.67285 92.7392 3.30926 93.2613 2.56405C93.6349 2.03045 93.8337 2 96.9568 2C98.7723 2 100.479 2.11824 100.749 2.26261C101.068 2.43363 101.239 2.79368 101.239 3.29505C101.239 3.96211 100.255 5.06763 93.8458 11.5959C89.4444 16.0791 86.3018 19.4832 86.0804 20.0074C85.5171 21.3403 85.7652 23.3183 86.6396 24.4647C87.3559 25.4037 89.0041 26.3436 89.9483 26.3512C91.8176 26.3666 92.3507 25.9599 97.9409 20.2515C102.421 15.6769 103.52 14.6815 104.088 14.6838C105.018 14.6876 105.738 15.7353 105.361 16.5366C105.216 16.8448 102.762 19.4948 99.9082 22.4254C94.1638 28.3244 93.3265 28.9295 90.6691 29.1035C87.806 29.2904 85.2901 27.9354 83.8093 25.4089C83.2617 24.4743 82.9324 23.8555 82.8437 22.1716C82.6653 18.7686 83.1242 18.305 90.1202 11.2383L90.1952 11.1625C93.4785 7.84598 96.1648 5.05569 96.1648 4.96181C96.1648 4.86793 95.6509 4.79105 95.023 4.79105C94.2194 4.79105 93.7307 4.64059 93.3736 4.28359Z" fill="url(#paint1_linear_473_2987)"/>
<path d="M94.0112 15.7714C99.3026 10.3212 100.2 9.56257 102.082 8.94751C104.274 8.23122 107.339 9.03556 109.152 10.8025C110.584 12.1976 111.251 13.9267 111.237 16.2091C111.218 19.2414 110.889 19.72 103.954 26.7739L97.8782 32.9553H98.9946C100.419 32.9553 101.239 33.5116 101.239 34.4777C101.239 35.7462 100.531 36.0001 96.9956 36.0001C94.2189 36.0001 93.8256 35.9452 93.373 35.4926C93.0941 35.2137 92.8656 34.7494 92.8656 34.4616C92.8656 34.1173 95.3923 31.3604 100.249 26.4055C104.309 22.2628 107.813 18.5307 108.035 18.1121C108.563 17.1162 108.551 15.0259 108.011 14.0021C106.955 12.0014 104.182 11.0644 102.158 12.0248C101.616 12.2821 99.1554 14.6207 96.2238 17.6652C93.4698 20.5258 90.9441 22.97 90.6112 23.0966C89.7527 23.4237 88.8059 22.7631 88.8059 21.8367C88.8059 21.2643 89.7787 20.1305 94.0112 15.7714Z" fill="url(#paint2_linear_473_2987)"/>
<defs>
<linearGradient id="paint0_linear_473_2987" x1="97.0264" y1="2" x2="97.0264" y2="36" gradientUnits="userSpaceOnUse">
<stop stop-color="#C1E7FE"/>
<stop offset="1" stop-color="#94C5FD"/>
</linearGradient>
<linearGradient id="paint1_linear_473_2987" x1="91.1147" y1="-4.63934" x2="91.1147" y2="29.1205" gradientUnits="userSpaceOnUse">
<stop stop-color="#B5D5E9"/>
<stop offset="1" stop-color="#7DA3CE"/>
</linearGradient>
<linearGradient id="paint2_linear_473_2987" x1="97.0259" y1="2.00007" x2="97.0259" y2="36.0001" gradientUnits="userSpaceOnUse">
<stop stop-color="#B5D5E9"/>
<stop offset="1" stop-color="#7DA3CE"/>
</linearGradient>
</defs>
</svg>
