<svg width="800" height="247" viewBox="0 0 800 247" fill="none" xmlns="http://www.w3.org/2000/svg">
<path d="M699.301 39.0044L629.452 135.513C625.866 140.469 628.003 147.479 633.745 149.589L674.615 164.615L728.301 182.904C735.278 185.281 736.793 194.472 730.949 198.962L710.97 214.311C691.945 228.928 668.423 236.461 644.447 235.617C600.462 234.068 561.383 207.109 544.317 166.541L543.758 165.213C532.184 137.7 534.156 106.356 549.089 80.5124L551.567 76.2231C560.524 60.7207 574.38 48.6359 590.957 41.8701L674.699 7.68945C677.184 6.67539 679.842 6.15385 682.525 6.15385C699.428 6.15385 709.212 25.3113 699.301 39.0044Z" fill="#58E421"/>
<path d="M712.308 153.846L716.923 178.462L670 164.615L642.308 150.769L666.154 138.462L671.539 162.308L693.846 142.308L698.462 170.769L712.308 153.846Z" fill="white"/>
<path d="M673.846 111.538L646.923 112.308L700 39.2308L713.077 67.6923L689.231 58.4615L698.462 77.6923L677.692 70.7692L690.769 86.9231L696.154 101.538L661.538 95.3846L673.846 111.538Z" fill="white"/>
<path d="M550 213.077C553.846 225.385 546.659 229.476 536.46 234.726C526.262 239.976 514.999 238.414 511.305 231.237C507.61 224.061 512.883 213.987 523.082 208.737C533.28 203.487 546.306 205.9 550 213.077Z" fill="#46DD01"/>
<path d="M783.793 121.326C774.192 117.895 770.479 123.741 765.656 132.049C760.833 140.357 761.389 149.684 766.899 152.883C772.408 156.082 780.785 151.94 785.608 143.632C790.431 135.325 789.302 124.524 783.793 121.326Z" fill="#46DD01"/>
<path d="M663.846 65.3846C660.99 79.1102 650.398 86.7787 640 84.6153C629.602 82.4519 617.914 72.9564 620.769 59.2307C623.625 45.5051 636.154 26.9231 653.077 31.5385C669.231 38.4615 666.702 51.659 663.846 65.3846Z" fill="white"/>
<path d="M619.649 73.7944C613.846 86.1538 601.937 93.7018 591.538 91.5384C578.462 87.6923 573.298 69.1102 576.154 55.3846C580.769 36.1538 607.692 30 620.769 40.7692C631.12 49.9999 625.042 62.3076 619.649 73.7944Z" fill="white"/>
<path d="M485.845 211.113L361.828 237.731C348.622 240.566 335.93 231.153 334.81 217.692L328.559 127.692L325.747 47.9565C325.518 41.4772 328.282 35.2528 333.241 31.0767C337.565 27.4353 343.17 25.6818 348.798 26.2094L364.615 27.6923L491.381 33.0378C491.997 33.0638 492.611 33.1443 493.213 33.2782C499.819 34.7461 503.325 41.994 500.375 48.0841L499.185 50.5402C488.165 73.2918 470.852 92.4061 449.298 105.617L436.799 113.277C435.442 114.108 434.615 115.585 434.615 117.177C434.615 118.483 435.174 119.727 436.151 120.595L441.538 125.385L496.261 169.846C500.653 173.415 503.59 178.465 504.521 184.048C505.564 190.306 504 196.718 500.194 201.793L499.997 202.055C496.527 206.682 491.501 209.899 485.845 211.113Z" fill="#FF6CB6"/>
<path d="M405.972 98.9854L352.624 107.437C348.941 108.02 346.287 111.28 346.463 115.005C347.944 146.307 389.374 156.296 404.958 129.108L414.847 111.854C418.466 105.54 413.161 97.8466 405.972 98.9854Z" fill="#FF5E3D"/>
<path d="M355.385 122.308L356.154 106.923L406.923 100L390 119.231L383.077 114.615L375.385 124.615L366.923 117.692L360.769 124.615L355.385 122.308Z" fill="white"/>
<path d="M390.769 59.2308C390.769 73.6751 380.116 85.3846 370.769 85.3846C361.423 85.3846 350 78.4615 352.308 59.2308C355.385 39.2308 363.846 33.8462 376.154 33.8462C385.5 33.8462 390.769 44.7864 390.769 59.2308Z" fill="white"/>
<path d="M441.538 61.5385C440.769 78.4615 426.269 90 416.923 90C407.577 90 396.923 80.7692 400 61.5385C403.077 46.1538 412.308 33.8462 426.154 33.8462C440 33.8462 441.538 47.0941 441.538 61.5385Z" fill="white"/>
<ellipse cx="295.236" cy="190.252" rx="17.3502" ry="9.74399" transform="rotate(146.692 295.236 190.252)" fill="#FF6CB6"/>
<path d="M549.106 210.157C552.733 218.095 550.905 226.709 545.022 229.397C539.14 232.085 531.431 227.828 527.804 219.89C524.177 211.951 523.414 200.33 531.316 197.696C538.641 195.254 545.479 202.218 549.106 210.157Z" fill="#FF6CB6"/>
<path d="M205.584 13.1478L33.8487 233.846H273.542C275.607 233.846 277.086 231.851 276.486 229.875L244.801 125.565C244.765 125.445 244.747 125.321 244.747 125.196V116.587C244.747 109.45 241.747 102.641 236.48 97.8248C236.385 97.7381 236.315 97.6274 236.278 97.5045L210.957 14.1432C210.231 11.7561 207.116 11.1789 205.584 13.1478Z" fill="#FFE312"/>
<path d="M117.296 180.635L113.626 176.277C110.924 173.068 112.589 168.138 116.683 167.224L152.063 159.327C177.32 153.689 203.472 163.931 218.181 185.222C220.564 188.671 218.803 193.439 214.751 194.512L185.616 202.224C160.584 208.85 133.975 200.442 117.296 180.635Z" fill="#E67028"/>
<path d="M156.923 203.846L137.692 196.154L162.308 191.538L186.154 199.231L180 203.846H156.923Z" fill="#DA8456"/>
<path d="M204.086 116.742C197.698 136.108 180 149.167 161.538 143.077C144.615 137.495 143.64 118.277 150.028 98.9109C156.416 79.5452 177.38 69.6914 192.308 74.6154C207.235 79.5393 210.474 97.3764 204.086 116.742Z" fill="white"/>
<path d="M246.923 128.462C243.196 146.116 232.221 161.231 218.722 158.381C205.224 155.531 201.117 139.714 204.845 122.059C208.573 104.404 220.916 90.6717 232.308 93.0769C243.699 95.4821 250.651 110.807 246.923 128.462Z" fill="white"/>
<ellipse cx="29.6495" cy="161.137" rx="22.3077" ry="9.23077" transform="rotate(-9.19054 29.6495 161.137)" fill="#FFE312"/>
<ellipse cx="311.688" cy="203.945" rx="13.4686" ry="10.653" transform="rotate(49.5664 311.688 203.945)" fill="#FFE312"/>
<path fill-rule="evenodd" clip-rule="evenodd" d="M152.065 166.677L152.017 166.86C151.234 169.794 151.925 172.925 153.869 175.258C156.578 178.509 161.133 179.536 164.975 177.763L165.323 177.602C167.355 176.665 169.007 175.063 170.007 173.062L172.694 167.689C172.948 167.181 173.128 166.64 173.23 166.081C173.931 162.224 170.801 158.744 166.892 159.034L160.738 159.489C156.612 159.795 153.132 162.68 152.065 166.677ZM175.385 159.231L172.308 175.385L180.769 181.538L189.231 179.231L196.923 166.154L175.385 159.231Z" fill="white"/>
<path fill-rule="evenodd" clip-rule="evenodd" d="M673.537 4.84069C676.39 3.67595 679.443 3.07692 682.525 3.07692C700.499 3.07692 711.464 21.9356 703.96 37.2141L716.397 62.6527C718.996 67.9679 713.329 73.5298 708.063 70.8327L695.936 64.6213L702.666 74.1042C705.303 77.8207 701.531 82.7049 697.269 81.0921L683.989 76.0675L698.153 93.8632C702.798 99.6984 697.254 108.066 690.07 106.064L668.621 100.086L674.318 105.564C678.312 109.405 675.594 116.154 670.053 116.154H648.462C648.088 116.154 647.73 116.087 647.398 115.965L631.945 137.317C629.554 140.621 630.979 145.294 634.806 146.701L640.744 148.884L659.286 136.716C663.945 133.659 670.207 136.415 671.099 141.916L673.521 156.85L686.434 141.919C690.941 136.708 699.5 139.595 699.93 146.471L700.949 162.777L706.509 154.159C709.661 149.272 717.208 151.082 717.801 156.867L719.843 176.772L729.294 179.991C729.924 180.206 730.522 180.463 731.085 180.757L763.234 149.338C763.327 149.247 763.424 149.163 763.525 149.087C761.482 144.716 762.137 138.111 765.656 132.049C770.479 123.741 774.192 117.895 783.793 121.326C789.302 124.524 790.431 135.325 785.608 143.632C781.059 151.467 773.35 155.597 767.866 153.358C767.768 153.492 767.658 153.619 767.535 153.739L735.645 184.904C738.922 189.97 738.27 197.217 732.823 201.402L712.844 216.751C693.252 231.803 669.03 239.561 644.339 238.692C610.724 237.508 579.899 221.878 559.099 196.791L547.979 207.911C548.382 208.646 548.759 209.397 549.106 210.157C550.185 212.518 550.781 214.94 550.931 217.248C551.38 220.949 550.563 223.761 548.84 226.102C548.297 226.911 547.653 227.625 546.915 228.224C544.3 230.625 540.632 232.579 536.46 234.726C526.262 239.976 514.999 238.414 511.305 231.237C507.61 224.061 512.883 213.987 523.082 208.737C523.77 208.382 524.472 208.063 525.183 207.777C525.255 205.355 525.764 203.103 526.836 201.302L507.658 184.208C508.624 191.083 506.831 198.071 502.655 203.639L502.459 203.901C498.543 209.122 492.872 212.752 486.491 214.122L362.474 240.74C347.453 243.964 333.018 233.257 331.744 217.948L334.809 217.692L331.74 217.906L328.784 175.338L310.534 185.766C310.338 186.795 309.966 187.867 309.433 188.954C313.255 189.553 317.269 191.808 320.393 195.474C326.127 202.203 326.691 211.138 321.653 215.431C316.615 219.724 307.883 217.749 302.149 211.02C299.298 207.673 297.725 203.782 297.484 200.186C290.401 203.733 283.312 203.702 280.735 199.78C278.785 196.812 279.906 192.356 283.197 188.156L262.486 173.198L279.43 228.981C280.631 232.933 277.673 236.923 273.542 236.923H35.3531L30.8899 242.659C29.8463 244 27.9131 244.241 26.5719 243.198C25.2308 242.154 24.9896 240.221 26.0332 238.88L27.5557 236.923H21.5385C19.8391 236.923 18.4615 235.545 18.4615 233.846C18.4615 232.147 19.8391 230.769 21.5385 230.769H32.3443L99.6588 144.263L51.4521 159.689C49.8816 164.106 41.6024 168.554 31.1238 170.249C18.9618 172.217 8.44242 169.732 7.62818 164.7C6.81393 159.667 16.0131 153.992 28.1752 152.024C36.9822 150.6 44.9278 151.509 48.9505 154.031C48.9679 154.024 48.9853 154.018 49.0029 154.012C49.0225 154.005 49.0423 153.999 49.0622 153.993L106.354 135.659L203.156 11.2582C206.22 7.32042 212.451 8.47469 213.901 13.2489L239.038 96.0052C244.457 101.195 247.609 108.314 247.813 115.811C247.97 117.833 247.978 119.937 247.824 122.099V124.928L259.532 163.473L287.612 183.754C288.329 183.183 289.087 182.633 289.885 182.109C297.188 177.31 305.224 176.372 308.823 179.656L327.704 168.867C327.902 168.754 328.107 168.665 328.316 168.6L325.489 127.906L325.486 127.853L325.484 127.801L322.672 48.0649C322.41 40.6407 325.576 33.5083 331.259 28.7231C336.214 24.5506 342.636 22.5413 349.085 23.146L364.824 24.6214L491.51 29.9636C492.308 29.9973 493.101 30.1013 493.881 30.2745C502.425 32.1733 506.96 41.5482 503.144 49.4254L501.955 51.8815C490.678 75.1628 472.961 94.722 450.906 108.24L438.407 115.9C437.963 116.172 437.692 116.656 437.692 117.177C437.692 117.604 437.875 118.012 438.195 118.296L443.532 123.04L496.158 165.799C496.335 165.901 496.504 166.023 496.663 166.165L497.22 166.662L498.201 167.458C499.064 168.159 499.877 168.911 500.637 169.707L531.856 197.532C536.506 196.269 540.931 198.738 544.427 202.76L555.272 191.915C549.794 184.539 545.144 176.442 541.48 167.734L540.922 166.406C528.974 138.006 531.011 105.651 546.424 78.9731L548.903 74.6838C558.119 58.7324 572.332 46.2666 589.339 39.2084C591.096 38.2901 592.948 37.538 594.852 36.9569L673.537 4.84069ZM288.191 191.763C287.549 192.56 287.038 193.337 286.664 194.061C286.001 195.341 285.923 196.057 285.933 196.365C286.211 196.496 286.9 196.709 288.338 196.609C289.715 196.513 291.389 196.121 293.199 195.38L288.191 191.763ZM298.987 191.968L292.845 187.533C292.983 187.439 293.123 187.345 293.264 187.252C296.553 185.091 299.777 184.06 302.133 183.896C303.571 183.796 304.26 184.008 304.538 184.14C304.548 184.447 304.47 185.164 303.807 186.444C302.93 188.138 301.31 190.127 298.987 191.968ZM543.751 222.63C543.771 222.604 543.791 222.578 543.811 222.552C544.135 222.041 544.421 221.362 544.61 220.468C544.778 219.678 544.85 218.782 544.8 217.814C544.711 217.158 544.556 216.403 544.311 215.533C543.497 214.356 541.506 212.915 537.954 212.315C536.018 211.987 533.894 211.973 531.761 212.31C532.115 214.013 532.676 215.745 533.401 217.332C534.722 220.223 536.693 222.22 538.542 223.241C540.392 224.262 541.71 224.145 542.465 223.8C542.623 223.727 542.79 223.63 542.959 223.502C543.236 223.233 543.483 222.963 543.704 222.689C543.72 222.669 543.735 222.649 543.751 222.63ZM537.787 204.865C538.31 205.278 538.832 205.763 539.345 206.312C536.886 205.855 534.217 205.779 531.525 206.128C531.897 204.196 532.689 203.725 533.262 203.534C534.359 203.168 535.767 203.272 537.787 204.865ZM527.804 219.89C527.001 218.133 526.339 216.197 525.88 214.218C521.781 216.332 518.909 219.302 517.435 222.118C515.95 224.957 516.094 227.095 516.776 228.421C517.459 229.747 519.115 231.106 522.289 231.546C525.442 231.984 529.536 231.369 533.644 229.255C534.195 228.971 534.722 228.697 535.225 228.433C532.245 226.682 529.551 223.713 527.804 219.89ZM591.911 44.8042C591.981 44.7757 592.05 44.7472 592.12 44.7188L596.904 42.7661L597.004 42.7367C604.513 40.5567 612.192 41.7473 616.765 45.444C619.985 48.3619 620.672 51.4597 620.035 55.4707C619.311 60.0363 616.958 65.0466 614.173 70.9785L614.079 71.179C609.075 81.8351 599.674 86.7759 593.036 85.5613C589.119 84.3066 585.766 80.6851 583.633 75.0035C581.486 69.2863 580.993 62.4381 582.159 56.7322C583.433 51.5465 587.032 47.4323 591.911 44.8042ZM576.839 53.064C567.653 59.5153 559.916 67.9232 554.231 77.7624L551.753 82.0517C537.302 107.062 535.393 137.395 546.594 164.02L547.153 165.348C563.755 204.811 601.769 231.035 644.555 232.542C667.817 233.361 690.637 226.052 709.095 211.871L729.074 196.522C732.97 193.528 731.96 187.401 727.309 185.817L673.623 167.528L673.588 167.516L673.554 167.503L632.683 152.477C625.028 149.663 622.178 140.316 626.959 133.709L696.809 37.2004C705.246 25.5418 696.917 9.23077 682.525 9.23077C680.24 9.23077 677.977 9.67481 675.862 10.5382L612.273 36.493C615.429 37.35 618.338 38.7672 620.769 40.7692C623.004 42.7617 624.472 44.8975 625.348 47.1375C631.01 36.8968 640.907 28.2194 653.077 31.5385C669.231 38.4615 666.702 51.659 663.846 65.3846C660.99 79.1102 650.398 86.7787 640 84.6153C632.557 83.0669 624.454 77.7619 621.496 69.8381C620.994 70.9323 620.481 72.023 619.972 73.1072L619.966 73.1191L619.649 73.7944C613.846 86.1538 601.937 93.7018 591.538 91.5384C578.462 87.6923 573.298 69.1102 576.154 55.3846C576.345 54.5886 576.574 53.815 576.839 53.064ZM651.716 110H670.053L659.958 100.293C659.702 100.048 659.484 99.789 659.3 99.5211L651.716 110ZM664.372 92.5135L664.396 92.5201L691.722 100.136C693.158 100.536 694.267 98.8626 693.338 97.6955L676.203 76.1665L664.372 92.5135ZM681.671 68.6108L694.727 73.5508L686.493 61.9487L681.671 68.6108ZM691.287 55.3258L710.868 65.3555L700.047 43.2213L691.287 55.3258ZM667.596 158.756L647.933 151.527L662.662 141.861C663.594 141.25 664.846 141.801 665.025 142.901L667.596 158.756ZM695.16 168.364L677.039 162.19L691.089 145.945C691.99 144.903 693.702 145.48 693.788 146.855L695.099 167.83C695.11 168.013 695.131 168.191 695.16 168.364ZM713.433 174.588L702.812 170.97C703.095 170.708 703.354 170.4 703.583 170.044L711.68 157.495L713.433 174.588ZM780.972 126.874C779.636 126.474 778.78 126.445 778.261 126.502C777.719 126.562 777.237 126.745 776.651 127.189C775.095 128.369 773.557 130.696 770.978 135.139C769.088 138.394 768.402 141.613 768.546 144.015C768.692 146.473 769.58 147.324 769.989 147.561C770.397 147.798 771.576 148.147 773.783 147.056C775.941 145.989 778.396 143.798 780.286 140.543C782.042 137.518 782.704 134.015 782.445 131.108C782.221 128.586 781.435 127.355 780.972 126.874ZM641.253 78.5905C647.423 79.8742 655.454 75.5081 657.821 64.1311C659.309 56.982 660.317 51.4729 659.529 46.9723C659.168 44.914 658.439 43.2087 657.219 41.7209C656.03 40.272 654.146 38.753 651.059 37.3727C645.608 36.0471 640.575 38.1369 636.067 42.789C631.359 47.6478 628.011 54.6361 626.794 60.4842C625.819 65.1697 627.246 69.048 630.019 72.1768C632.925 75.4541 637.227 77.7528 641.253 78.5905ZM607.692 60.7692C607.692 65.0176 605.626 68.4615 603.077 68.4615C600.528 68.4615 598.462 65.0176 598.462 60.7692C598.462 56.5209 600.528 53.0769 603.077 53.0769C605.626 53.0769 607.692 56.5209 607.692 60.7692ZM648.462 63.8461C651.435 63.8461 653.846 60.7466 653.846 56.9231C653.846 53.0996 651.435 50 648.462 50C645.488 50 643.077 53.0996 643.077 56.9231C643.077 60.7466 645.488 63.8461 648.462 63.8461ZM439.598 127.773L493.231 171.349L496.345 174.125C499.033 177.005 500.831 180.628 501.486 184.553C502.39 189.982 501.034 195.544 497.732 199.947L497.536 200.209C494.51 204.242 490.129 207.047 485.2 208.105L361.183 234.723C349.797 237.167 338.856 229.058 337.878 217.457L331.632 127.531L328.822 47.848C328.626 42.3138 330.987 36.9972 335.223 33.4302C338.916 30.32 343.703 28.8222 348.511 29.2729L364.328 30.7558L364.407 30.7632L364.486 30.7665L491.251 36.112C491.687 36.1304 492.12 36.1872 492.546 36.2818C497.213 37.319 499.69 42.4399 497.606 46.7427L496.416 49.1988C485.652 71.4209 468.742 90.0903 447.69 102.993L435.191 110.654C432.922 112.044 431.538 114.515 431.538 117.177C431.538 119.362 432.473 121.443 434.106 122.895L439.494 127.684L439.545 127.73L439.598 127.773ZM384.615 59.2308C384.615 64.9536 382.494 70.143 379.491 73.8522C376.368 77.7095 372.961 79.2308 370.769 79.2308C367.52 79.2308 364.107 78.0197 361.734 75.3937C359.473 72.8908 357.439 68.2976 358.406 60.0639C359.853 50.7404 362.399 45.9848 365.013 43.4947C367.484 41.1414 370.878 40 376.154 40C377.948 40 379.822 40.8855 381.568 44.0767C383.394 47.4125 384.615 52.6364 384.615 59.2308ZM370.769 85.3846C361.423 85.3846 350 78.4615 352.308 59.2308C355.385 39.2308 363.846 33.8462 376.154 33.8462C385.5 33.8462 390.769 44.7864 390.769 59.2308C390.769 73.6751 380.116 85.3846 370.769 85.3846ZM441.538 61.5385C441.538 47.0941 440 33.8462 426.154 33.8462C412.308 33.8462 403.077 46.1538 400 61.5385C396.923 80.7692 407.577 90 416.923 90C426.269 90 440.769 78.4615 441.538 61.5385ZM428.047 77.8129C432.021 73.7494 435.045 68.0626 435.385 61.392C435.379 54.1682 434.932 48.4515 433.351 44.6265C432.616 42.8487 431.761 41.8088 430.864 41.179C429.995 40.5693 428.6 40 426.154 40C416.791 40 408.943 48.3733 406.058 62.6277C404.756 70.9182 406.501 76.2462 408.769 79.3471C411.089 82.5178 414.265 83.8462 416.923 83.8462C419.397 83.8462 423.871 82.0841 428.047 77.8129ZM370.769 60.7693C373.318 60.7693 376.154 56.2116 376.154 51.5385C376.154 46.8653 372.549 43.0769 370 43.0769C367.451 43.0769 364.615 47.6345 364.615 52.3077C364.615 56.9809 368.22 60.7693 370.769 60.7693ZM424.626 51.5534C424.363 55.6084 422.028 59.4285 419.091 59.2379C416.154 59.0473 413.573 55.5786 413.836 51.5235C414.099 47.4685 416.154 43.6303 419.371 43.8391C422.587 44.0478 424.889 47.4983 424.626 51.5534ZM398.243 117.943L409.118 102.236C412.253 103.291 414.032 107.088 412.177 110.324L402.288 127.578C388.235 152.097 350.872 143.088 349.537 114.859C349.441 112.843 350.778 111.062 352.694 110.562L351.69 118.595C351.552 119.702 351.65 120.825 351.978 121.89C353.872 128.045 361.949 129.453 365.813 124.301L367.083 122.607L368.963 124.8C369.225 125.106 369.51 125.391 369.816 125.653C373.92 129.171 380.269 127.594 382.25 122.564L383.552 119.26C384.686 120.4 386.125 121.271 387.793 121.732C391.727 122.819 395.92 121.299 398.243 117.943ZM357.796 119.359L359.024 109.538L363.846 108.774V116.667L360.89 120.608C360.043 121.737 358.274 121.429 357.859 120.08C357.788 119.847 357.766 119.601 357.796 119.359ZM370 116.554V107.799L382.215 105.864L376.525 120.309C376.094 121.403 374.713 121.746 373.82 120.98C373.754 120.923 373.692 120.861 373.635 120.795L370 116.554ZM387.088 111.368L389.347 104.734L401.203 102.856L393.184 114.44C392.35 115.645 390.845 116.191 389.432 115.8C387.521 115.272 386.449 113.244 387.088 111.368ZM417.517 113.385C422.421 104.828 415.232 94.4033 405.491 95.9464L352.142 104.398C346.91 105.226 343.14 109.859 343.39 115.15C345.016 149.525 390.514 160.496 407.627 130.639L417.517 113.385ZM231.682 92.9611L208.012 15.0374L40.1417 230.769H273.542L244.793 136.124C239.873 150.217 230.212 160.807 218.722 158.381C205.224 155.531 201.117 139.714 204.845 122.059C208.504 104.727 220.468 91.175 231.682 92.9611ZM241.665 116.13C241.668 116.282 241.67 116.434 241.67 116.587V121.877C241.538 123.593 241.287 125.369 240.902 127.19C239.193 135.283 235.882 142.43 231.844 147.072C227.843 151.67 223.824 153.169 219.994 152.36C215.776 151.469 212.835 148.676 211.141 143.765C209.37 138.629 209.149 131.464 210.866 123.33C212.529 115.452 216.087 108.659 220.204 104.241C224.436 99.6996 228.32 98.5245 231.036 99.098C234.231 99.7726 237.471 102.401 239.622 107.459C240.673 109.93 241.396 112.863 241.665 116.13ZM163.466 137.233C177.534 141.873 192.488 132.257 198.242 114.814C201.198 105.853 201.73 97.7867 200.221 91.758C198.77 85.9664 195.526 82.1569 190.38 80.4595C178.987 76.7017 161.299 84.3841 155.872 100.839C152.848 110.006 151.804 118.498 153.079 124.973C154.279 131.063 157.43 135.242 163.466 137.233ZM161.538 143.077C180 149.167 197.698 136.108 204.086 116.742C210.474 97.3764 207.235 79.5393 192.308 74.6154C177.38 69.6914 156.416 79.5452 150.028 98.9109C143.64 118.277 144.615 137.495 161.538 143.077ZM180.531 101.354C177.59 106.295 172.565 108.728 169.307 106.788C166.049 104.849 165.792 99.2715 168.733 94.3307C171.674 89.3899 176.7 86.9568 179.958 88.8962C183.216 90.8356 183.473 96.4131 180.531 101.354ZM222.095 128.85C225.187 128.647 227.445 124.682 227.138 119.992C226.832 115.302 224.076 111.665 220.984 111.867C217.891 112.069 215.633 116.035 215.94 120.724C216.247 125.414 219.002 129.052 222.095 128.85ZM151.393 156.323C177.872 150.413 205.291 161.151 220.713 183.473C224.307 188.675 221.651 195.868 215.539 197.486L186.403 205.198C160.22 212.129 132.389 203.335 114.943 182.617L111.272 178.259C107.083 173.284 109.664 165.638 116.012 164.221L151.393 156.323ZM193.443 167.512C188.332 164.898 182.865 163.02 177.211 161.942L175.619 169.904C175.369 171.153 174.927 172.356 174.308 173.469L176.039 175.828C178.346 178.975 182.647 179.889 186.034 177.953C187.176 177.301 188.131 176.366 188.807 175.239L193.443 167.512ZM198.773 170.589L194.084 178.405C192.865 180.436 191.144 182.121 189.087 183.296C182.983 186.784 175.234 185.137 171.076 179.468L170.784 179.069C167.756 182.426 163.051 183.909 158.539 182.732L156.984 182.326C150.218 180.561 146.28 173.522 148.316 166.833L149.465 163.059L117.353 170.227C115.513 170.638 114.765 172.853 115.979 174.295L119.65 178.653C124.245 184.11 129.63 188.66 135.541 192.22L150.488 189.313C158.912 187.675 167.634 188.591 175.534 191.942L189.663 197.937C189.679 197.943 189.695 197.95 189.71 197.957L213.964 191.537C215.956 191.01 216.821 188.666 215.65 186.971C211.058 180.325 205.294 174.81 198.773 170.589ZM156.329 161.64C161.277 160.845 166.236 160.678 171.104 161.098L169.584 168.697C169.455 169.346 169.221 169.969 168.893 170.543L166.989 173.876C165.609 176.29 162.783 177.479 160.092 176.777L158.537 176.372C155.154 175.489 153.185 171.97 154.203 168.625L156.329 161.64ZM179.683 200.387L173.131 197.608C166.359 194.735 158.883 193.95 151.663 195.354L144.582 196.731C155.556 201.161 167.709 202.523 179.683 200.387ZM44.5943 158.719C44.115 158.532 43.5102 158.339 42.7639 158.163C39.4735 157.386 34.6421 157.212 29.1581 158.099C23.674 158.987 19.1439 160.675 16.2665 162.45C15.6138 162.853 15.1007 163.226 14.7047 163.555C15.184 163.741 15.7888 163.934 16.5351 164.11C19.8255 164.888 24.6569 165.061 30.1409 164.174C35.625 163.287 40.1551 161.598 43.0325 159.823C43.6852 159.421 44.1983 159.047 44.5943 158.719ZM313.52 211.356C315.629 211.833 316.951 211.352 317.662 210.747C318.372 210.142 319.057 208.913 318.921 206.754C318.785 204.593 317.798 201.916 315.709 199.465C313.621 197.014 311.135 195.615 309.023 195.138C306.913 194.66 305.591 195.142 304.881 195.747C304.17 196.352 303.485 197.581 303.622 199.74C303.758 201.901 304.745 204.578 306.833 207.028C308.922 209.479 311.408 210.879 313.52 211.356Z" fill="black"/>
</svg>
