<svg width="23" height="27" viewBox="0 0 23 27" fill="none" xmlns="http://www.w3.org/2000/svg">
<path d="M8.38463 1.81344C7.8997 1.32844 7.88083 1.03971 8.29546 0.447922C8.59217 0.0241806 8.75003 0 11.2301 0C12.6718 0 14.0268 0.0938966 14.2413 0.208546C14.495 0.344353 14.631 0.630272 14.631 1.02842C14.631 1.55815 13.8489 2.43606 8.75961 7.62027C5.26439 11.1805 2.76881 13.8837 2.59297 14.3C2.14562 15.3585 2.34269 16.9293 3.03707 17.8396C3.60588 18.5853 4.91476 19.3317 5.66457 19.3377C7.149 19.35 7.57233 19.027 12.0116 14.4938C15.5692 10.8611 16.4419 10.0706 16.8931 10.0724C17.6319 10.0755 18.2035 10.9074 17.9041 11.5437C17.789 11.7886 15.8404 13.893 13.5739 16.2201C9.0121 20.9047 8.3472 21.3852 6.23692 21.5233C3.96332 21.6718 1.96535 20.5958 0.789419 18.5894C0.354598 17.8473 0.0931163 17.3558 0.0226606 16.0187C-0.118988 13.3162 0.245378 12.9481 5.80106 7.33627L5.86061 7.27612C8.46791 4.6424 10.6012 2.42658 10.6012 2.35203C10.6012 2.27747 10.193 2.21642 9.6944 2.21642C9.05632 2.21642 8.66822 2.09694 8.38463 1.81344Z" fill="white"/>
<path d="M8.38463 1.81344C7.8997 1.32844 7.88083 1.03971 8.29546 0.447922C8.59217 0.0241806 8.75003 0 11.2301 0C12.6718 0 14.0268 0.0938966 14.2413 0.208546C14.495 0.344353 14.631 0.630272 14.631 1.02842C14.631 1.55815 13.8489 2.43606 8.75961 7.62027C5.26439 11.1805 2.76881 13.8837 2.59297 14.3C2.14562 15.3585 2.34269 16.9293 3.03707 17.8396C3.60588 18.5853 4.91476 19.3317 5.66457 19.3377C7.149 19.35 7.57233 19.027 12.0116 14.4938C15.5692 10.8611 16.4419 10.0706 16.8931 10.0724C17.6319 10.0755 18.2035 10.9074 17.9041 11.5437C17.789 11.7886 15.8404 13.893 13.5739 16.2201C9.0121 20.9047 8.3472 21.3852 6.23692 21.5233C3.96332 21.6718 1.96535 20.5958 0.789419 18.5894C0.354598 17.8473 0.0931163 17.3558 0.0226606 16.0187C-0.118988 13.3162 0.245378 12.9481 5.80106 7.33627L5.86061 7.27612C8.46791 4.6424 10.6012 2.42658 10.6012 2.35203C10.6012 2.27747 10.193 2.21642 9.6944 2.21642C9.05632 2.21642 8.66822 2.09694 8.38463 1.81344Z" fill="white"/>
<path d="M8.89141 10.9357C13.0934 6.60761 13.8061 6.00516 15.3008 5.51673C17.0411 4.94791 19.475 5.58665 20.9152 6.98984C22.0523 8.09766 22.5818 9.47082 22.5706 11.2833C22.556 13.6913 22.2941 14.0713 16.7875 19.673L11.9623 24.5818H12.8489C13.98 24.5818 14.631 25.0235 14.631 25.7907C14.631 26.798 14.0686 26.9997 11.2614 26.9997C9.05635 26.9997 8.74401 26.956 8.38466 26.5967C8.16312 26.3751 7.98167 26.0065 7.98167 25.7779C7.98167 25.5045 9.98819 23.3152 13.8448 19.3804C17.0694 16.0907 19.8518 13.1269 20.0283 12.7945C20.4475 12.0036 20.4376 10.3437 20.0087 9.53068C19.1707 7.94191 16.9682 7.19779 15.361 7.96043C14.9303 8.16476 12.9765 10.0219 10.6485 12.4396C8.46145 14.7113 6.45582 16.6523 6.19139 16.7528C5.50968 17.0125 4.75781 16.4879 4.75781 15.7522C4.75781 15.2977 5.53032 14.3973 8.89141 10.9357Z" fill="white"/>
</svg>
