<svg width="24" height="24" viewBox="0 0 24 24" fill="none" xmlns="http://www.w3.org/2000/svg">
<path d="M23.5855 4.22021C22.699 4.60477 21.7616 4.85898 20.8024 4.97495C21.8144 4.37036 22.5728 3.41923 22.9369 2.298C21.9858 2.86412 20.9448 3.26299 19.8589 3.47727C19.1332 2.69019 18.1667 2.16627 17.111 1.98767C16.0554 1.80908 14.9703 1.98591 14.026 2.49044C13.0817 2.99497 12.3316 3.79866 11.8932 4.77546C11.4549 5.75225 11.3532 6.84691 11.604 7.88775C9.68115 7.79049 7.80023 7.2898 6.08346 6.41821C4.36669 5.54662 2.85248 4.32363 1.63919 2.82867C1.21363 3.57181 0.990022 4.4134 0.990589 5.26976C0.98908 6.06504 1.18425 6.84836 1.55871 7.54996C1.93317 8.25157 2.47531 8.84969 3.13686 9.29108C2.36795 9.27016 1.61547 9.06384 0.943418 8.68965V8.74862C0.949181 9.8629 1.33965 10.941 2.04877 11.8005C2.75789 12.6601 3.74213 13.2483 4.83502 13.4657C4.41432 13.5937 3.97754 13.6612 3.53782 13.6662C3.23344 13.6626 2.92981 13.635 2.62978 13.5836C2.941 14.5422 3.54327 15.3798 4.35278 15.9801C5.1623 16.5804 6.13879 16.9134 7.14639 16.9328C5.44494 18.2716 3.34428 19.0022 1.17927 19.0083C0.785083 19.0096 0.391207 18.986 0 18.9375C2.21046 20.3648 4.78645 21.1224 7.41762 21.1192C9.23334 21.138 11.0346 20.7949 12.7162 20.1098C14.3979 19.4247 15.9261 18.4114 17.2117 17.1291C18.4973 15.8468 19.5146 14.3211 20.204 12.6413C20.8933 10.9614 21.2411 9.16104 21.2269 7.34528C21.2269 7.14481 21.2269 6.93254 21.2269 6.72027C22.1523 6.03017 22.9504 5.18418 23.5855 4.22021Z" fill="white"/>
</svg>
