<svg width="29" height="17" viewBox="0 0 29 17" fill="none" xmlns="http://www.w3.org/2000/svg">
<path d="M20.2357 4.32813L21.9085 6.27605C22.1 6.49483 22.2698 6.6748 22.3384 6.77714C22.8387 7.26988 23.1192 7.93582 23.1188 8.62977C23.0718 9.44847 22.5335 10.006 22.0349 10.6024L20.8644 11.9645L20.2538 12.6703C20.2319 12.6946 20.2178 12.7247 20.2132 12.7568C20.2086 12.7889 20.2137 12.8216 20.2279 12.8509C20.2421 12.8802 20.2648 12.9047 20.2932 12.9216C20.3215 12.9384 20.3543 12.9467 20.3875 12.9455H26.4896C27.4217 12.9455 28.5959 13.7219 28.5273 14.9005C28.5254 15.4362 28.3067 15.9495 27.9188 16.3282C27.531 16.707 27.0056 16.9207 26.4571 16.9225H16.901C16.2724 16.9225 14.5816 16.9896 14.1083 15.5604C14.0076 15.2617 13.9939 14.9417 14.0685 14.6358C14.2061 14.1836 14.4238 13.7584 14.7116 13.3796C15.1922 12.6738 15.7124 11.968 16.2254 11.2834C16.8866 10.3871 17.5658 9.51904 18.2342 8.60506C18.2579 8.57531 18.2708 8.53868 18.2708 8.50097C18.2708 8.46327 18.2579 8.42663 18.2342 8.39688L15.8063 5.5738C15.7905 5.55335 15.77 5.53674 15.7465 5.52531C15.723 5.51389 15.6971 5.50795 15.6709 5.50795C15.6446 5.50795 15.6187 5.51389 15.5952 5.52531C15.5717 5.53674 15.5512 5.55335 15.5354 5.5738C14.8851 6.43131 12.0381 10.2284 11.4311 10.9976C10.8242 11.7669 9.32845 11.8092 8.5011 10.9976L4.70397 7.27471C4.67973 7.25094 4.64876 7.23472 4.61509 7.22817C4.58138 7.22158 4.54645 7.22494 4.51473 7.2378C4.48297 7.25065 4.45584 7.27242 4.4368 7.30035C4.41776 7.32828 4.40764 7.36112 4.40771 7.39467V14.5547C4.41664 15.0628 4.26262 15.5609 3.96716 15.9792C3.67173 16.3974 3.24971 16.715 2.76024 16.8873C2.44747 16.9936 2.11324 17.0253 1.78534 16.9798C1.45747 16.9344 1.1455 16.813 0.875401 16.6258C0.605302 16.4387 0.384916 16.1912 0.232633 15.9039C0.0803865 15.6167 0.000614189 15.2981 0 14.9746V2.10142C0.0217857 1.6375 0.192675 1.1921 0.488425 0.828473C0.784175 0.46485 1.18972 0.201524 1.64747 0.0758758C2.04012 -0.0262896 2.45343 -0.0252656 2.84554 0.0788477C3.23764 0.182939 3.5946 0.386468 3.88023 0.668737L9.71864 6.37839C9.73613 6.39572 9.75727 6.40911 9.78064 6.41756C9.80398 6.42601 9.82898 6.42938 9.8538 6.42734C9.87862 6.42533 9.90268 6.41799 9.92429 6.40589C9.94589 6.39375 9.96446 6.37713 9.97877 6.35719L14.1264 0.749876C14.318 0.52225 14.5583 0.338307 14.8304 0.210905C15.1025 0.0835027 15.3999 0.0157555 15.7016 0.0123538H26.4896C26.7849 0.0128551 27.0766 0.0748732 27.3453 0.194326C27.614 0.313815 27.8535 0.487946 28.0478 0.705081C28.2421 0.922217 28.3866 1.17738 28.4718 1.45349C28.557 1.7296 28.5808 2.02028 28.5417 2.3061C28.4657 2.80192 28.2082 3.25402 27.8169 3.57847C27.4255 3.90292 26.927 4.07777 26.4138 4.07054H20.373C20.3427 4.07125 20.3131 4.07992 20.2873 4.0956C20.2615 4.11129 20.2405 4.13345 20.2265 4.15973C20.2125 4.18605 20.206 4.21556 20.2076 4.24517C20.2092 4.27478 20.2189 4.30343 20.2357 4.32813Z" fill="white"/>
</svg>
