<svg width="31" height="28" viewBox="0 0 31 28" fill="none" xmlns="http://www.w3.org/2000/svg">
<path fill-rule="evenodd" clip-rule="evenodd" d="M31 19.5222V17.8967C31 17.7463 30.8554 17.6374 30.7133 17.6789L23.064 19.8982C23.0227 19.9085 22.9865 19.9318 22.9581 19.963C22.1388 20.8712 21.4425 21.4807 21.2581 21.6422L21.2454 21.6533C20.77 22.0578 20.181 22.2782 19.561 22.2782H16.7917V19.4445H18.9927C19.0495 19.4445 19.1038 19.4237 19.1451 19.3874L19.4292 19.1255C19.5507 19.0141 19.6954 18.8793 19.8684 18.7055C19.8831 18.6908 19.8981 18.6758 19.9132 18.6607C20.0041 18.5698 20.1013 18.4726 20.1965 18.3659C20.3102 18.2545 20.4213 18.13 20.5246 18.0082C20.6977 17.8215 20.863 17.627 21.0361 17.4222C21.1601 17.2874 21.2738 17.1345 21.3849 16.9815C21.5089 16.8363 21.6303 16.673 21.7439 16.5174C21.7862 16.455 21.8313 16.392 21.8773 16.3275C21.9211 16.2661 21.9659 16.2034 22.01 16.1389C22.0927 16.0145 22.1753 15.8822 22.2451 15.7578C22.4621 15.4207 22.6455 15.0603 22.8005 14.7C22.8717 14.5456 22.9285 14.3831 22.9838 14.2251C22.9908 14.2053 22.9977 14.1856 23.0046 14.1659C23.0666 13.9818 23.1182 13.8082 23.157 13.6241C23.25 13.1911 23.2707 12.7607 23.2293 12.3303C23.219 12.1955 23.2087 12.0633 23.1777 11.9389V11.9182C23.1673 11.83 23.1467 11.7315 23.1182 11.6407C23.0253 11.2207 22.8806 10.8007 22.6972 10.3885C22.6352 10.2355 22.5629 10.08 22.4931 9.93743C22.3278 9.62891 22.1547 9.32035 21.9583 9.02223C21.9189 8.95926 21.8754 8.89546 21.832 8.83178C21.7985 8.78271 21.7651 8.73371 21.7336 8.6852C21.6093 8.49275 21.4695 8.30721 21.3338 8.12717C21.3032 8.08649 21.2727 8.04608 21.2427 8.00594C21.1627 7.90043 21.075 7.79493 20.9868 7.68874C20.9384 7.63051 20.8899 7.57208 20.8423 7.51332C20.708 7.35 20.5763 7.19446 20.4419 7.04149C19.9614 6.49703 19.4577 6.00446 19.0082 5.58446C18.9255 5.50149 18.8351 5.41851 18.7421 5.33817C18.3933 5.01926 18.0756 4.74183 17.8095 4.52668C17.7296 4.46496 17.6578 4.40414 17.5911 4.34753C17.5457 4.30903 17.5026 4.27248 17.4607 4.23891C17.3801 4.17858 17.3101 4.12507 17.2514 4.08015C17.2141 4.05168 17.1814 4.02667 17.1533 4.00554C17.1327 3.99 17.1094 3.97965 17.0862 3.97183L16.7917 3.88891V1.44148C16.7917 1.04223 16.6315 0.684455 16.3758 0.422574C16.12 0.160742 15.7635 0 15.3709 0C14.5855 0 13.95 0.645544 13.95 1.44148V3.09035L13.8028 3.04891L13.4023 2.9348L13.0381 2.83371C13.037 2.83371 13.0359 2.83326 13.0347 2.83273C13.0329 2.83199 13.0308 2.83109 13.0278 2.83109H13.02L10.2558 2.07926C10.1344 2.04554 10.0311 2.17777 10.0931 2.28926L10.5348 3.10851C10.5599 3.17148 10.5917 3.23444 10.6243 3.29915C10.6455 3.34102 10.667 3.38362 10.6872 3.42743C10.7596 3.57257 10.8319 3.72554 10.9017 3.87851C10.9637 4.01332 11.0257 4.14554 11.098 4.29074C11.1284 4.359 11.1594 4.42808 11.1908 4.49815C11.3063 4.75546 11.4277 5.02603 11.5475 5.31743C11.6508 5.56371 11.7542 5.81 11.8446 6.06668C12.0926 6.71223 12.3277 7.40183 12.5318 8.10965C12.5826 8.26807 12.6232 8.42135 12.6643 8.57673C12.6817 8.64257 12.6993 8.70879 12.7177 8.77594L12.7462 8.90034C12.8288 9.22965 12.9012 9.55629 12.9528 9.88554C12.9942 10.1111 13.0329 10.3263 13.0536 10.5441C13.0846 10.7903 13.1156 11.0367 13.1259 11.283C13.1466 11.5085 13.1569 11.7445 13.1569 11.97C13.1569 12.5455 13.1053 13.1003 12.9838 13.6241C12.9762 13.6522 12.9686 13.6807 12.9609 13.7094C12.9269 13.8369 12.8917 13.969 12.8495 14.0959C12.8114 14.2319 12.7619 14.3678 12.7105 14.509C12.6924 14.559 12.674 14.6096 12.6557 14.6611C12.6523 14.6703 12.6489 14.6795 12.6455 14.6887C12.6075 14.7913 12.5689 14.8959 12.5214 14.9982C12.2656 15.6152 11.9479 16.2297 11.6198 16.8052C11.1393 17.6582 10.6563 18.4074 10.3178 18.8897C10.2971 18.9208 10.2769 18.9504 10.2575 18.979C10.2333 19.0145 10.2102 19.0484 10.1887 19.0815C10.0828 19.2318 10.1913 19.4445 10.3747 19.4445H13.95V22.2782H10.3333C9.36199 22.2782 8.46299 21.7259 8.029 20.8418C7.80426 20.3985 7.71641 19.9111 7.7681 19.4341C7.78098 19.2915 7.67507 19.1567 7.53044 19.1567H0.224739C0.100727 19.1567 0 19.2578 0 19.3822V19.5326C0 24.2097 3.76394 28 8.40873 28H21.514C23.9706 28 25.3655 25.7534 26.7365 23.5452C27.1187 22.9297 27.4991 22.3171 27.9 21.757C28.6208 20.7511 30.3542 19.9526 30.8605 19.7348C30.9432 19.6985 31 19.6155 31 19.5222ZM2.14796 15.4788L2.03681 15.6517C1.93886 15.801 2.04738 16 2.23268 16H9.12559C9.20237 16 9.27384 15.9633 9.3162 15.9005C9.40622 15.7643 9.49093 15.6229 9.56766 15.4788C10.1633 14.4888 10.6927 13.4177 10.8859 12.6267C11.3386 10.7044 10.3724 7.6166 9.25266 5.13381C9.17856 4.96883 8.94828 4.95313 8.85033 5.105L2.14796 15.4788Z" fill="white"/>
</svg>
